<svg width="24" height="24" viewBox="0 0 24 24" fill="none" xmlns="http://www.w3.org/2000/svg">
<path d="M24 20.3834C24 22.3132 22.4356 23.8775 20.5059 23.8775H3.49414C1.56436 23.8775 0 22.3132 0 20.3834V3.49414C0 1.56436 1.56436 0 3.49414 0H20.5059C22.4356 0 24 1.56436 24 3.49414V20.3834Z" fill="#028E7F"/>
<path d="M23.8785 20.2971C23.8785 22.207 22.3301 23.7553 20.4202 23.7553H3.58321C1.67327 23.7553 0.125 22.207 0.125 20.2971V3.58125C0.125 1.67132 1.67334 0.123047 3.58321 0.123047H20.4202C22.3301 0.123047 23.8785 1.67138 23.8785 3.58125V20.2971Z" fill="#028E7F"/>
<path d="M11.9866 3.56836C9.60805 3.56836 7.67987 5.4966 7.67987 7.87513C7.67987 10.2537 9.60805 12.1821 11.9866 12.1821C14.3652 12.1821 16.2934 10.2537 16.2934 7.87513C16.2934 5.4966 14.3652 3.56836 11.9866 3.56836ZM11.9866 9.65557C11.0034 9.65557 10.2063 8.85841 10.2063 7.87519C10.2063 6.89196 11.0034 6.09487 11.9866 6.09487C12.9699 6.09487 13.767 6.89196 13.767 7.87519C13.767 8.85841 12.9699 9.65557 11.9866 9.65557Z" fill="white"/>
<path d="M13.5059 15.6088C15.2301 15.2575 16.2633 14.441 16.318 14.3972C16.8225 13.9926 16.9035 13.2556 16.4989 12.751C16.0943 12.2464 15.3574 12.1654 14.8528 12.57C14.8421 12.5786 13.7401 13.4239 11.9269 13.4252C10.1138 13.4239 8.98853 12.5786 8.97787 12.57C8.47322 12.1654 7.73628 12.2464 7.33173 12.751C6.92711 13.2556 7.00815 13.9926 7.51268 14.3972C7.56809 14.4416 8.64395 15.2794 10.4164 15.6224L7.94614 18.204C7.49721 18.6696 7.51071 19.4109 7.97628 19.8599C8.20352 20.079 8.4964 20.1879 8.78903 20.1879C9.09584 20.1879 9.40234 20.068 9.6321 19.8297L11.927 17.385L14.4537 19.8455C14.9115 20.3026 15.6528 20.3018 16.1098 19.8442C16.5667 19.3865 16.5661 18.6451 16.1085 18.1881L13.5059 15.6088Z" fill="white"/>
</svg>
