<svg width="39" height="39" viewBox="0 0 39 39" fill="none" xmlns="http://www.w3.org/2000/svg">
<g filter="url(#filter0_f_269_15452)">
<path d="M13.9334 27.3449L14.29 27.5561C15.7877 28.445 17.505 28.9152 19.2562 28.916H19.2599C24.638 28.916 29.0148 24.5401 29.017 19.1617C29.018 16.5554 28.004 14.1045 26.1618 12.2609C25.2583 11.3517 24.1834 10.6307 22.9993 10.1397C21.8153 9.64867 20.5456 9.3974 19.2637 9.40041C13.8815 9.40041 9.50452 13.7758 9.5026 19.1539C9.49995 20.9903 10.0171 22.79 10.9943 24.3449L11.2264 24.7138L10.2405 28.313L13.9334 27.3449ZM7.42188 31.1014L9.08745 25.0202C8.06025 23.2405 7.51984 21.2215 7.52048 19.1531C7.52319 12.6823 12.7891 7.41797 19.2601 7.41797C22.4002 7.41956 25.3476 8.64158 27.5643 10.8598C29.781 13.0781 31.0006 16.0266 30.9995 19.1625C30.9966 25.6329 25.7299 30.8981 19.2599 30.8981H19.2548C17.2902 30.8973 15.3598 30.4044 13.6451 29.4695L7.42188 31.1014Z" fill="#B3B3B3"/>
</g>
<path d="M7.30469 30.9803L8.97026 24.8991C7.94129 23.1151 7.40081 21.0914 7.40329 19.032C7.406 12.5612 12.6719 7.29688 19.1429 7.29688C22.283 7.29847 25.2305 8.52049 27.4471 10.7388C29.6638 12.957 30.8834 15.9056 30.8823 19.0414C30.8794 25.5118 25.6127 30.777 19.1427 30.777H19.1376C17.173 30.7762 15.2426 30.2833 13.5279 29.3484L7.30469 30.9803Z" fill="#028E7F"/>
<path d="M19.144 9.27932C13.7618 9.27932 9.38474 13.6547 9.38282 19.0328C9.38017 20.8692 9.89732 22.6689 10.8745 24.2238L11.1066 24.5929L10.1208 28.1921L13.8138 27.2238L14.1704 27.435C15.6681 28.3239 17.3854 28.7939 19.1366 28.7949H19.1403C24.5183 28.7949 28.8953 24.419 28.8974 19.0406C28.9015 17.7587 28.6512 16.4887 28.1611 15.3042C27.671 14.1196 26.9508 13.0441 26.0422 12.1398C25.1387 11.2305 24.0637 10.5095 22.8796 10.0185C21.6955 9.52755 20.4258 9.27629 19.144 9.27932Z" fill="#028E7F"/>
<path fill-rule="evenodd" clip-rule="evenodd" d="M16.207 14.1269C15.9871 13.6385 15.7558 13.6286 15.5469 13.6201L14.9846 13.6133C14.789 13.6133 14.4712 13.6867 14.2025 13.9803C13.9338 14.2738 13.1758 14.9834 13.1758 16.4265C13.1758 17.8697 14.2269 19.2642 14.3734 19.4601C14.5199 19.656 16.4026 22.7119 19.3841 23.8877C21.8618 24.8648 22.366 24.6705 22.904 24.6216C23.4421 24.5728 24.6395 23.9121 24.8838 23.2271C25.1281 22.5422 25.1282 21.9553 25.055 21.8327C24.9817 21.71 24.7861 21.637 24.4926 21.4903C24.199 21.3435 22.7571 20.6339 22.4882 20.536C22.2194 20.438 22.0239 20.3893 21.8282 20.6829C21.6324 20.9765 21.0709 21.6369 20.8997 21.8327C20.7285 22.0284 20.5577 22.053 20.2641 21.9064C19.9705 21.7597 19.0259 21.4499 17.9052 20.4506C17.0333 19.6731 16.4447 18.7129 16.2733 18.4195C16.102 18.1261 16.2552 17.9672 16.4023 17.821C16.5339 17.6895 16.6955 17.4785 16.8425 17.3073C16.9894 17.1361 17.0378 17.0137 17.1354 16.8182C17.2331 16.6228 17.1844 16.4511 17.111 16.3045C17.0376 16.1578 16.4677 14.707 16.207 14.1269Z" fill="white"/>
<defs>
<filter id="filter0_f_269_15452" x="0.359875" y="0.355969" width="37.7016" height="37.8076" filterUnits="userSpaceOnUse" color-interpolation-filters="sRGB">
<feFlood flood-opacity="0" result="BackgroundImageFix"/>
<feBlend mode="normal" in="SourceGraphic" in2="BackgroundImageFix" result="shape"/>
<feGaussianBlur stdDeviation="3.531" result="effect1_foregroundBlur_269_15452"/>
</filter>
</defs>
</svg>
