<svg width="15" height="16" viewBox="0 0 15 16" fill="none" xmlns="http://www.w3.org/2000/svg">
<path d="M12.6562 10.25C12.8906 10.25 13.125 10.4844 13.125 10.7188V14.4688C13.125 15.2598 12.4805 15.875 11.7188 15.875H1.40625C0.615234 15.875 0 15.2598 0 14.4688V4.15625C0 3.39453 0.615234 2.75 1.40625 2.75H6.09375C6.32812 2.75 6.5625 2.98438 6.5625 3.21875V4.15625C6.5625 4.41992 6.32812 4.625 6.09375 4.625H1.875V14H11.25V10.7188C11.25 10.4844 11.4551 10.25 11.7188 10.25H12.6562ZM14.2969 0.875C14.6777 0.875 15 1.19727 15 1.57812V5.32812C15 5.97266 14.2383 6.26562 13.7988 5.82617L12.7441 4.80078L5.5957 11.9199C5.47852 12.0664 5.30273 12.1543 5.09766 12.1543C4.92188 12.1543 4.74609 12.0664 4.59961 11.9199L3.95508 11.2754C3.80859 11.1582 3.7207 10.9824 3.7207 10.7773C3.7207 10.5723 3.80859 10.3965 3.95508 10.2793L11.0742 3.13086L10.0488 2.07617C9.58008 1.63672 9.90234 0.875 10.5469 0.875H14.2969Z" fill="#C0C0C0"/>
</svg>
