<svg width="39" height="25" viewBox="0 0 39 25" fill="none" xmlns="http://www.w3.org/2000/svg">
<g id="Group">
<path id="Oval" d="M11.5 25C17.8513 25 23 19.4036 23 12.5C23 5.59644 17.8513 0 11.5 0C5.14873 0 0 5.59644 0 12.5C0 19.4036 5.14873 25 11.5 25Z" fill="#2285DD"/>
<path id="Shape" fill-rule="evenodd" clip-rule="evenodd" d="M27.5007 0C23.8708 0 20.6391 1.83281 18.5302 4.6875H22.0954C22.4562 5.17656 22.771 5.70469 23.0629 6.25H17.5612H17.5497C17.2823 6.75156 17.0437 7.27031 16.8424 7.8125H16.8554H23.7687C23.9585 8.31875 24.1224 8.8375 24.2503 9.375H16.3766C16.2559 9.88437 16.1596 10.4047 16.0992 10.9375H24.5307C24.5896 11.45 24.6255 11.9703 24.6255 12.5H16C16 13.0297 16.0403 13.55 16.0992 14.0625H24.5307C24.4688 14.5953 24.3711 15.1156 24.2503 15.625H16.3766C16.5032 16.1594 16.6555 16.6828 16.8439 17.1875H16.8568H23.7702C23.5675 17.7281 23.3317 18.25 23.0643 18.75H17.5627H17.5512C17.843 19.2984 18.1679 19.8219 18.5302 20.3125H22.0954C21.6756 20.8797 21.1998 21.3953 20.6966 21.875H19.9275H19.9102C21.9358 23.8141 24.5882 25 27.4993 25C33.8506 25 39 19.4031 39 12.5C39 5.59687 33.852 0 27.5007 0Z" fill="#F01524"/>
</g>
</svg>
