<svg width="206" height="399" viewBox="0 0 206 399" fill="none" xmlns="http://www.w3.org/2000/svg">
<path fill-rule="evenodd" clip-rule="evenodd" d="M82.5846 305.083C80.3295 305.083 78.5013 306.912 78.5013 309.167V313.25H74.418C67.6525 313.25 62.168 318.735 62.168 325.5V382.667C62.168 389.432 67.6525 394.917 74.418 394.917H107.497C105.105 392.572 103.123 389.811 101.668 386.75H74.418C72.1628 386.75 70.3346 384.922 70.3346 382.667V345.917H135.668V347.1C138.618 347.978 141.368 349.32 143.835 351.04V325.5C143.835 318.735 138.35 313.25 131.585 313.25H127.501V309.167C127.501 306.912 125.673 305.083 123.418 305.083C121.163 305.083 119.335 306.912 119.335 309.167V313.25H86.668V309.167C86.668 306.912 84.8398 305.083 82.5846 305.083ZM119.335 325.5V321.417H86.668V325.5C86.668 327.755 84.8398 329.583 82.5846 329.583C80.3295 329.583 78.5013 327.755 78.5013 325.5V321.417H74.418C72.1628 321.417 70.3346 323.245 70.3346 325.5V337.75H135.668V325.5C135.668 323.245 133.84 321.417 131.585 321.417H127.501V325.5C127.501 327.755 125.673 329.583 123.418 329.583C121.163 329.583 119.335 327.755 119.335 325.5Z" fill="#028E7F"/>
<path d="M116.446 373.304C118.04 371.709 120.626 371.709 122.221 373.304L124.839 375.922L132.593 368.167C134.188 366.573 136.773 366.573 138.368 368.167C139.963 369.762 139.963 372.347 138.368 373.942L127.995 384.315C127.642 384.667 127.241 384.942 126.813 385.139C125.249 386.053 123.207 385.84 121.866 384.499L116.446 379.079C114.851 377.484 114.851 374.899 116.446 373.304Z" fill="#0F0F0F"/>
<path fill-rule="evenodd" clip-rule="evenodd" d="M152 374.5C152 388.031 141.031 399 127.5 399C113.969 399 103 388.031 103 374.5C103 360.969 113.969 350 127.5 350C141.031 350 152 360.969 152 374.5ZM111.093 374.5C111.093 383.561 118.439 390.907 127.5 390.907C136.561 390.907 143.907 383.561 143.907 374.5C143.907 365.439 136.561 358.093 127.5 358.093C118.439 358.093 111.093 365.439 111.093 374.5Z" fill="#028E7F"/>
<path d="M102.982 79.6786L9.62023e-07 65.6068V10.8571L102.982 23.3447L206 10.8571L205.607 65.6068L102.982 79.6786Z" fill="#028E7F"/>
<path d="M102.982 148.5L9.62023e-07 134.428V79.6786L102.982 92.1661L206 79.6786L205.607 134.428L102.982 148.5Z" fill="#028E7F"/>
<path d="M102.982 217.321L9.62023e-07 203.25V148.5L102.982 160.988L206 148.5L205.607 203.25L102.982 217.321Z" fill="#DCF8D6"/>
<path d="M102.982 286.143L9.62023e-07 272.071V217.321L102.982 229.809L206 217.321L205.607 272.071L102.982 286.143Z" fill="#028E7F"/>
<path d="M75.9767 55V52.795L81.6467 47.44C82.0947 47.034 82.4237 46.67 82.6337 46.348C82.8437 46.026 82.9837 45.732 83.0537 45.466C83.1377 45.2 83.1797 44.955 83.1797 44.731C83.1797 44.143 82.9767 43.695 82.5707 43.387C82.1787 43.065 81.5977 42.904 80.8277 42.904C80.2117 42.904 79.6377 43.023 79.1057 43.261C78.5877 43.499 78.1467 43.87 77.7827 44.374L75.3047 42.778C75.8647 41.938 76.6487 41.273 77.6567 40.783C78.6647 40.293 79.8267 40.048 81.1427 40.048C82.2347 40.048 83.1867 40.23 83.9987 40.594C84.8247 40.944 85.4617 41.441 85.9097 42.085C86.3717 42.729 86.6027 43.499 86.6027 44.395C86.6027 44.871 86.5397 45.347 86.4137 45.823C86.3017 46.285 86.0637 46.775 85.6997 47.293C85.3497 47.811 84.8317 48.392 84.1457 49.036L79.4417 53.467L78.7907 52.228H87.0857V55H75.9767ZM93.4874 55.252C92.4654 55.252 91.4504 55.119 90.4424 54.853C89.4484 54.573 88.5944 54.181 87.8804 53.677L89.2244 51.073C89.7844 51.479 90.4284 51.801 91.1564 52.039C91.8984 52.277 92.6474 52.396 93.4034 52.396C94.2574 52.396 94.9294 52.228 95.4194 51.892C95.9094 51.556 96.1544 51.087 96.1544 50.485C96.1544 50.107 96.0564 49.771 95.8604 49.477C95.6644 49.183 95.3144 48.959 94.8104 48.805C94.3204 48.651 93.6274 48.574 92.7314 48.574H88.9724L89.7284 40.3H98.6954V43.03H90.9464L92.7104 41.476L92.1854 47.377L90.4214 45.823H93.5294C94.9854 45.823 96.1544 46.026 97.0364 46.432C97.9324 46.824 98.5834 47.363 98.9894 48.049C99.3954 48.735 99.5984 49.512 99.5984 50.38C99.5984 51.248 99.3814 52.053 98.9474 52.795C98.5134 53.523 97.8414 54.118 96.9314 54.58C96.0354 55.028 94.8874 55.252 93.4874 55.252ZM107.279 55.252C106.075 55.252 104.997 54.958 104.045 54.37C103.093 53.768 102.344 52.9 101.798 51.766C101.252 50.632 100.979 49.26 100.979 47.65C100.979 46.04 101.252 44.668 101.798 43.534C102.344 42.4 103.093 41.539 104.045 40.951C104.997 40.349 106.075 40.048 107.279 40.048C108.497 40.048 109.575 40.349 110.513 40.951C111.465 41.539 112.214 42.4 112.76 43.534C113.306 44.668 113.579 46.04 113.579 47.65C113.579 49.26 113.306 50.632 112.76 51.766C112.214 52.9 111.465 53.768 110.513 54.37C109.575 54.958 108.497 55.252 107.279 55.252ZM107.279 52.375C107.853 52.375 108.35 52.214 108.77 51.892C109.204 51.57 109.54 51.059 109.778 50.359C110.03 49.659 110.156 48.756 110.156 47.65C110.156 46.544 110.03 45.641 109.778 44.941C109.54 44.241 109.204 43.73 108.77 43.408C108.35 43.086 107.853 42.925 107.279 42.925C106.719 42.925 106.222 43.086 105.788 43.408C105.368 43.73 105.032 44.241 104.78 44.941C104.542 45.641 104.423 46.544 104.423 47.65C104.423 48.756 104.542 49.659 104.78 50.359C105.032 51.059 105.368 51.57 105.788 51.892C106.222 52.214 106.719 52.375 107.279 52.375ZM117.08 55V40.3H123.443C125.403 40.3 126.957 40.713 128.105 41.539C129.253 42.365 129.827 43.604 129.827 45.256C129.827 46.894 129.253 48.126 128.105 48.952C126.957 49.778 125.403 50.191 123.443 50.191H118.97L120.503 48.679V55H117.08ZM120.503 49.036L118.97 47.524H123.422C124.36 47.524 125.088 47.335 125.606 46.957C126.124 46.565 126.383 46.005 126.383 45.277C126.383 44.563 126.124 44.017 125.606 43.639C125.088 43.261 124.36 43.072 123.422 43.072H118.97L120.503 41.455V49.036ZM115.043 53.11V51.367H125.039V53.11H115.043Z" fill="white"/>
<path d="M80.6676 124.252C79.6456 124.252 78.6306 124.119 77.6226 123.853C76.6286 123.573 75.7746 123.181 75.0606 122.677L76.4046 120.073C76.9646 120.479 77.6086 120.801 78.3366 121.039C79.0786 121.277 79.8276 121.396 80.5836 121.396C81.4376 121.396 82.1096 121.228 82.5996 120.892C83.0896 120.556 83.3346 120.087 83.3346 119.485C83.3346 119.107 83.2366 118.771 83.0406 118.477C82.8446 118.183 82.4946 117.959 81.9906 117.805C81.5006 117.651 80.8076 117.574 79.9116 117.574H76.1526L76.9086 109.3H85.8756V112.03H78.1266L79.8906 110.476L79.3656 116.377L77.6016 114.823H80.7096C82.1656 114.823 83.3346 115.026 84.2166 115.432C85.1126 115.824 85.7636 116.363 86.1696 117.049C86.5756 117.735 86.7786 118.512 86.7786 119.38C86.7786 120.248 86.5616 121.053 86.1276 121.795C85.6936 122.523 85.0216 123.118 84.1116 123.58C83.2156 124.028 82.0676 124.252 80.6676 124.252ZM94.4588 124.252C93.2548 124.252 92.1768 123.958 91.2248 123.37C90.2728 122.768 89.5238 121.9 88.9778 120.766C88.4318 119.632 88.1588 118.26 88.1588 116.65C88.1588 115.04 88.4318 113.668 88.9778 112.534C89.5238 111.4 90.2728 110.539 91.2248 109.951C92.1768 109.349 93.2548 109.048 94.4588 109.048C95.6768 109.048 96.7548 109.349 97.6928 109.951C98.6448 110.539 99.3938 111.4 99.9398 112.534C100.486 113.668 100.759 115.04 100.759 116.65C100.759 118.26 100.486 119.632 99.9398 120.766C99.3938 121.9 98.6448 122.768 97.6928 123.37C96.7548 123.958 95.6768 124.252 94.4588 124.252ZM94.4588 121.375C95.0328 121.375 95.5298 121.214 95.9498 120.892C96.3838 120.57 96.7198 120.059 96.9578 119.359C97.2098 118.659 97.3358 117.756 97.3358 116.65C97.3358 115.544 97.2098 114.641 96.9578 113.941C96.7198 113.241 96.3838 112.73 95.9498 112.408C95.5298 112.086 95.0328 111.925 94.4588 111.925C93.8988 111.925 93.4018 112.086 92.9678 112.408C92.5478 112.73 92.2118 113.241 91.9598 113.941C91.7218 114.641 91.6028 115.544 91.6028 116.65C91.6028 117.756 91.7218 118.659 91.9598 119.359C92.2118 120.059 92.5478 120.57 92.9678 120.892C93.4018 121.214 93.8988 121.375 94.4588 121.375ZM108.712 124.252C107.508 124.252 106.43 123.958 105.478 123.37C104.526 122.768 103.777 121.9 103.231 120.766C102.685 119.632 102.412 118.26 102.412 116.65C102.412 115.04 102.685 113.668 103.231 112.534C103.777 111.4 104.526 110.539 105.478 109.951C106.43 109.349 107.508 109.048 108.712 109.048C109.93 109.048 111.008 109.349 111.946 109.951C112.898 110.539 113.647 111.4 114.193 112.534C114.739 113.668 115.012 115.04 115.012 116.65C115.012 118.26 114.739 119.632 114.193 120.766C113.647 121.9 112.898 122.768 111.946 123.37C111.008 123.958 109.93 124.252 108.712 124.252ZM108.712 121.375C109.286 121.375 109.783 121.214 110.203 120.892C110.637 120.57 110.973 120.059 111.211 119.359C111.463 118.659 111.589 117.756 111.589 116.65C111.589 115.544 111.463 114.641 111.211 113.941C110.973 113.241 110.637 112.73 110.203 112.408C109.783 112.086 109.286 111.925 108.712 111.925C108.152 111.925 107.655 112.086 107.221 112.408C106.801 112.73 106.465 113.241 106.213 113.941C105.975 114.641 105.856 115.544 105.856 116.65C105.856 117.756 105.975 118.659 106.213 119.359C106.465 120.059 106.801 120.57 107.221 120.892C107.655 121.214 108.152 121.375 108.712 121.375ZM118.513 124V109.3H124.876C126.836 109.3 128.39 109.713 129.538 110.539C130.686 111.365 131.26 112.604 131.26 114.256C131.26 115.894 130.686 117.126 129.538 117.952C128.39 118.778 126.836 119.191 124.876 119.191H120.403L121.936 117.679V124H118.513ZM121.936 118.036L120.403 116.524H124.855C125.793 116.524 126.521 116.335 127.039 115.957C127.557 115.565 127.816 115.005 127.816 114.277C127.816 113.563 127.557 113.017 127.039 112.639C126.521 112.261 125.793 112.072 124.855 112.072H120.403L121.936 110.455V118.036ZM116.476 122.11V120.367H126.472V122.11H116.476Z" fill="white"/>
<path d="M69.4703 193V179.56L70.9403 181.03H66.5303V178.3H72.8723V193H69.4703ZM81.7259 193.252C80.5219 193.252 79.4439 192.958 78.4919 192.37C77.5399 191.768 76.7909 190.9 76.2449 189.766C75.6989 188.632 75.4259 187.26 75.4259 185.65C75.4259 184.04 75.6989 182.668 76.2449 181.534C76.7909 180.4 77.5399 179.539 78.4919 178.951C79.4439 178.349 80.5219 178.048 81.7259 178.048C82.9439 178.048 84.0219 178.349 84.9599 178.951C85.9119 179.539 86.6609 180.4 87.2069 181.534C87.7529 182.668 88.0259 184.04 88.0259 185.65C88.0259 187.26 87.7529 188.632 87.2069 189.766C86.6609 190.9 85.9119 191.768 84.9599 192.37C84.0219 192.958 82.9439 193.252 81.7259 193.252ZM81.7259 190.375C82.2999 190.375 82.7969 190.214 83.2169 189.892C83.6509 189.57 83.9869 189.059 84.2249 188.359C84.4769 187.659 84.6029 186.756 84.6029 185.65C84.6029 184.544 84.4769 183.641 84.2249 182.941C83.9869 182.241 83.6509 181.73 83.2169 181.408C82.7969 181.086 82.2999 180.925 81.7259 180.925C81.1659 180.925 80.6689 181.086 80.2349 181.408C79.8149 181.73 79.4789 182.241 79.2269 182.941C78.9889 183.641 78.8699 184.544 78.8699 185.65C78.8699 186.756 78.9889 187.659 79.2269 188.359C79.4789 189.059 79.8149 189.57 80.2349 189.892C80.6689 190.214 81.1659 190.375 81.7259 190.375ZM95.9789 193.252C94.7749 193.252 93.6969 192.958 92.7449 192.37C91.7929 191.768 91.0439 190.9 90.4979 189.766C89.9519 188.632 89.6789 187.26 89.6789 185.65C89.6789 184.04 89.9519 182.668 90.4979 181.534C91.0439 180.4 91.7929 179.539 92.7449 178.951C93.6969 178.349 94.7749 178.048 95.9789 178.048C97.1969 178.048 98.2749 178.349 99.2129 178.951C100.165 179.539 100.914 180.4 101.46 181.534C102.006 182.668 102.279 184.04 102.279 185.65C102.279 187.26 102.006 188.632 101.46 189.766C100.914 190.9 100.165 191.768 99.2129 192.37C98.2749 192.958 97.1969 193.252 95.9789 193.252ZM95.9789 190.375C96.5529 190.375 97.0499 190.214 97.4699 189.892C97.9039 189.57 98.2399 189.059 98.4779 188.359C98.7299 187.659 98.8559 186.756 98.8559 185.65C98.8559 184.544 98.7299 183.641 98.4779 182.941C98.2399 182.241 97.9039 181.73 97.4699 181.408C97.0499 181.086 96.5529 180.925 95.9789 180.925C95.4189 180.925 94.9219 181.086 94.4879 181.408C94.0679 181.73 93.7319 182.241 93.4799 182.941C93.2419 183.641 93.1229 184.544 93.1229 185.65C93.1229 186.756 93.2419 187.659 93.4799 188.359C93.7319 189.059 94.0679 189.57 94.4879 189.892C94.9219 190.214 95.4189 190.375 95.9789 190.375ZM110.232 193.252C109.028 193.252 107.95 192.958 106.998 192.37C106.046 191.768 105.297 190.9 104.751 189.766C104.205 188.632 103.932 187.26 103.932 185.65C103.932 184.04 104.205 182.668 104.751 181.534C105.297 180.4 106.046 179.539 106.998 178.951C107.95 178.349 109.028 178.048 110.232 178.048C111.45 178.048 112.528 178.349 113.466 178.951C114.418 179.539 115.167 180.4 115.713 181.534C116.259 182.668 116.532 184.04 116.532 185.65C116.532 187.26 116.259 188.632 115.713 189.766C115.167 190.9 114.418 191.768 113.466 192.37C112.528 192.958 111.45 193.252 110.232 193.252ZM110.232 190.375C110.806 190.375 111.303 190.214 111.723 189.892C112.157 189.57 112.493 189.059 112.731 188.359C112.983 187.659 113.109 186.756 113.109 185.65C113.109 184.544 112.983 183.641 112.731 182.941C112.493 182.241 112.157 181.73 111.723 181.408C111.303 181.086 110.806 180.925 110.232 180.925C109.672 180.925 109.175 181.086 108.741 181.408C108.321 181.73 107.985 182.241 107.733 182.941C107.495 183.641 107.376 184.544 107.376 185.65C107.376 186.756 107.495 187.659 107.733 188.359C107.985 189.059 108.321 189.57 108.741 189.892C109.175 190.214 109.672 190.375 110.232 190.375ZM125.98 193V178.3H132.343C134.303 178.3 135.857 178.713 137.005 179.539C138.153 180.365 138.727 181.604 138.727 183.256C138.727 184.894 138.153 186.126 137.005 186.952C135.857 187.778 134.303 188.191 132.343 188.191H127.87L129.403 186.679V193H125.98ZM129.403 187.036L127.87 185.524H132.322C133.26 185.524 133.988 185.335 134.506 184.957C135.024 184.565 135.283 184.005 135.283 183.277C135.283 182.563 135.024 182.017 134.506 181.639C133.988 181.261 133.26 181.072 132.322 181.072H127.87L129.403 179.455V187.036ZM123.943 191.11V189.367H133.939V191.11H123.943Z" fill="#212529"/>
<path d="M64.9948 262V259.795L70.6648 254.44C71.1128 254.034 71.4418 253.67 71.6518 253.348C71.8618 253.026 72.0018 252.732 72.0718 252.466C72.1558 252.2 72.1978 251.955 72.1978 251.731C72.1978 251.143 71.9948 250.695 71.5888 250.387C71.1968 250.065 70.6158 249.904 69.8458 249.904C69.2298 249.904 68.6558 250.023 68.1238 250.261C67.6058 250.499 67.1648 250.87 66.8008 251.374L64.3228 249.778C64.8828 248.938 65.6668 248.273 66.6748 247.783C67.6828 247.293 68.8448 247.048 70.1608 247.048C71.2528 247.048 72.2048 247.23 73.0168 247.594C73.8428 247.944 74.4798 248.441 74.9278 249.085C75.3898 249.729 75.6208 250.499 75.6208 251.395C75.6208 251.871 75.5578 252.347 75.4318 252.823C75.3198 253.285 75.0818 253.775 74.7178 254.293C74.3678 254.811 73.8498 255.392 73.1638 256.036L68.4598 260.467L67.8088 259.228H76.1038V262H64.9948ZM83.8075 262.252C82.6035 262.252 81.5255 261.958 80.5735 261.37C79.6215 260.768 78.8725 259.9 78.3265 258.766C77.7805 257.632 77.5075 256.26 77.5075 254.65C77.5075 253.04 77.7805 251.668 78.3265 250.534C78.8725 249.4 79.6215 248.539 80.5735 247.951C81.5255 247.349 82.6035 247.048 83.8075 247.048C85.0255 247.048 86.1035 247.349 87.0415 247.951C87.9935 248.539 88.7425 249.4 89.2885 250.534C89.8345 251.668 90.1075 253.04 90.1075 254.65C90.1075 256.26 89.8345 257.632 89.2885 258.766C88.7425 259.9 87.9935 260.768 87.0415 261.37C86.1035 261.958 85.0255 262.252 83.8075 262.252ZM83.8075 259.375C84.3815 259.375 84.8785 259.214 85.2985 258.892C85.7325 258.57 86.0685 258.059 86.3065 257.359C86.5585 256.659 86.6845 255.756 86.6845 254.65C86.6845 253.544 86.5585 252.641 86.3065 251.941C86.0685 251.241 85.7325 250.73 85.2985 250.408C84.8785 250.086 84.3815 249.925 83.8075 249.925C83.2475 249.925 82.7505 250.086 82.3165 250.408C81.8965 250.73 81.5605 251.241 81.3085 251.941C81.0705 252.641 80.9515 253.544 80.9515 254.65C80.9515 255.756 81.0705 256.659 81.3085 257.359C81.5605 258.059 81.8965 258.57 82.3165 258.892C82.7505 259.214 83.2475 259.375 83.8075 259.375ZM98.0604 262.252C96.8564 262.252 95.7784 261.958 94.8264 261.37C93.8744 260.768 93.1254 259.9 92.5794 258.766C92.0334 257.632 91.7604 256.26 91.7604 254.65C91.7604 253.04 92.0334 251.668 92.5794 250.534C93.1254 249.4 93.8744 248.539 94.8264 247.951C95.7784 247.349 96.8564 247.048 98.0604 247.048C99.2784 247.048 100.356 247.349 101.294 247.951C102.246 248.539 102.995 249.4 103.541 250.534C104.087 251.668 104.36 253.04 104.36 254.65C104.36 256.26 104.087 257.632 103.541 258.766C102.995 259.9 102.246 260.768 101.294 261.37C100.356 261.958 99.2784 262.252 98.0604 262.252ZM98.0604 259.375C98.6344 259.375 99.1314 259.214 99.5514 258.892C99.9854 258.57 100.321 258.059 100.559 257.359C100.811 256.659 100.937 255.756 100.937 254.65C100.937 253.544 100.811 252.641 100.559 251.941C100.321 251.241 99.9854 250.73 99.5514 250.408C99.1314 250.086 98.6344 249.925 98.0604 249.925C97.5004 249.925 97.0034 250.086 96.5694 250.408C96.1494 250.73 95.8134 251.241 95.5614 251.941C95.3234 252.641 95.2044 253.544 95.2044 254.65C95.2044 255.756 95.3234 256.659 95.5614 257.359C95.8134 258.059 96.1494 258.57 96.5694 258.892C97.0034 259.214 97.5004 259.375 98.0604 259.375ZM112.313 262.252C111.109 262.252 110.031 261.958 109.079 261.37C108.127 260.768 107.378 259.9 106.832 258.766C106.286 257.632 106.013 256.26 106.013 254.65C106.013 253.04 106.286 251.668 106.832 250.534C107.378 249.4 108.127 248.539 109.079 247.951C110.031 247.349 111.109 247.048 112.313 247.048C113.531 247.048 114.609 247.349 115.547 247.951C116.499 248.539 117.248 249.4 117.794 250.534C118.34 251.668 118.613 253.04 118.613 254.65C118.613 256.26 118.34 257.632 117.794 258.766C117.248 259.9 116.499 260.768 115.547 261.37C114.609 261.958 113.531 262.252 112.313 262.252ZM112.313 259.375C112.887 259.375 113.384 259.214 113.804 258.892C114.238 258.57 114.574 258.059 114.812 257.359C115.064 256.659 115.19 255.756 115.19 254.65C115.19 253.544 115.064 252.641 114.812 251.941C114.574 251.241 114.238 250.73 113.804 250.408C113.384 250.086 112.887 249.925 112.313 249.925C111.753 249.925 111.256 250.086 110.822 250.408C110.402 250.73 110.066 251.241 109.814 251.941C109.576 252.641 109.457 253.544 109.457 254.65C109.457 255.756 109.576 256.659 109.814 257.359C110.066 258.059 110.402 258.57 110.822 258.892C111.256 259.214 111.753 259.375 112.313 259.375ZM128.062 262V247.3H134.425C136.385 247.3 137.939 247.713 139.087 248.539C140.235 249.365 140.809 250.604 140.809 252.256C140.809 253.894 140.235 255.126 139.087 255.952C137.939 256.778 136.385 257.191 134.425 257.191H129.952L131.485 255.679V262H128.062ZM131.485 256.036L129.952 254.524H134.404C135.342 254.524 136.07 254.335 136.588 253.957C137.106 253.565 137.365 253.005 137.365 252.277C137.365 251.563 137.106 251.017 136.588 250.639C136.07 250.261 135.342 250.072 134.404 250.072H129.952L131.485 248.455V256.036ZM126.025 260.11V258.367H136.021V260.11H126.025Z" fill="white"/>
</svg>
