<svg width="801" height="123" viewBox="0 0 801 123" fill="none" xmlns="http://www.w3.org/2000/svg">
<path d="M194.964 61.4382L157.359 81.3639H11.0469L44.4184 61.4382L11.0469 41.5056L157.359 41.5817L194.964 61.4382Z" fill="#028E7F"/>
<path d="M75.9767 69V66.795L81.6467 61.44C82.0947 61.034 82.4237 60.67 82.6337 60.348C82.8437 60.026 82.9837 59.732 83.0537 59.466C83.1377 59.2 83.1797 58.955 83.1797 58.731C83.1797 58.143 82.9767 57.695 82.5707 57.387C82.1787 57.065 81.5977 56.904 80.8277 56.904C80.2117 56.904 79.6377 57.023 79.1057 57.261C78.5877 57.499 78.1467 57.87 77.7827 58.374L75.3047 56.778C75.8647 55.938 76.6487 55.273 77.6567 54.783C78.6647 54.293 79.8267 54.048 81.1427 54.048C82.2347 54.048 83.1867 54.23 83.9987 54.594C84.8247 54.944 85.4617 55.441 85.9097 56.085C86.3717 56.729 86.6027 57.499 86.6027 58.395C86.6027 58.871 86.5397 59.347 86.4137 59.823C86.3017 60.285 86.0637 60.775 85.6997 61.293C85.3497 61.811 84.8317 62.392 84.1457 63.036L79.4417 67.467L78.7907 66.228H87.0857V69H75.9767ZM93.4874 69.252C92.4654 69.252 91.4504 69.119 90.4424 68.853C89.4484 68.573 88.5944 68.181 87.8804 67.677L89.2244 65.073C89.7844 65.479 90.4284 65.801 91.1564 66.039C91.8984 66.277 92.6474 66.396 93.4034 66.396C94.2574 66.396 94.9294 66.228 95.4194 65.892C95.9094 65.556 96.1544 65.087 96.1544 64.485C96.1544 64.107 96.0564 63.771 95.8604 63.477C95.6644 63.183 95.3144 62.959 94.8104 62.805C94.3204 62.651 93.6274 62.574 92.7314 62.574H88.9724L89.7284 54.3H98.6954V57.03H90.9464L92.7104 55.476L92.1854 61.377L90.4214 59.823H93.5294C94.9854 59.823 96.1544 60.026 97.0364 60.432C97.9324 60.824 98.5834 61.363 98.9894 62.049C99.3954 62.735 99.5984 63.512 99.5984 64.38C99.5984 65.248 99.3814 66.053 98.9474 66.795C98.5134 67.523 97.8414 68.118 96.9314 68.58C96.0354 69.028 94.8874 69.252 93.4874 69.252ZM107.279 69.252C106.075 69.252 104.997 68.958 104.045 68.37C103.093 67.768 102.344 66.9 101.798 65.766C101.252 64.632 100.979 63.26 100.979 61.65C100.979 60.04 101.252 58.668 101.798 57.534C102.344 56.4 103.093 55.539 104.045 54.951C104.997 54.349 106.075 54.048 107.279 54.048C108.497 54.048 109.575 54.349 110.513 54.951C111.465 55.539 112.214 56.4 112.76 57.534C113.306 58.668 113.579 60.04 113.579 61.65C113.579 63.26 113.306 64.632 112.76 65.766C112.214 66.9 111.465 67.768 110.513 68.37C109.575 68.958 108.497 69.252 107.279 69.252ZM107.279 66.375C107.853 66.375 108.35 66.214 108.77 65.892C109.204 65.57 109.54 65.059 109.778 64.359C110.03 63.659 110.156 62.756 110.156 61.65C110.156 60.544 110.03 59.641 109.778 58.941C109.54 58.241 109.204 57.73 108.77 57.408C108.35 57.086 107.853 56.925 107.279 56.925C106.719 56.925 106.222 57.086 105.788 57.408C105.368 57.73 105.032 58.241 104.78 58.941C104.542 59.641 104.423 60.544 104.423 61.65C104.423 62.756 104.542 63.659 104.78 64.359C105.032 65.059 105.368 65.57 105.788 65.892C106.222 66.214 106.719 66.375 107.279 66.375ZM117.08 69V54.3H123.443C125.403 54.3 126.957 54.713 128.105 55.539C129.253 56.365 129.827 57.604 129.827 59.256C129.827 60.894 129.253 62.126 128.105 62.952C126.957 63.778 125.403 64.191 123.443 64.191H118.97L120.503 62.679V69H117.08ZM120.503 63.036L118.97 61.524H123.422C124.36 61.524 125.088 61.335 125.606 60.957C126.124 60.565 126.383 60.005 126.383 59.277C126.383 58.563 126.124 58.017 125.606 57.639C125.088 57.261 124.36 57.072 123.422 57.072H118.97L120.503 55.455V63.036ZM115.043 67.11V65.367H125.039V67.11H115.043Z" fill="white"/>
<path d="M360.964 61.4382L323.359 81.3639H177.047L210.418 61.4382L177.047 41.5056L323.359 41.5817L360.964 61.4382Z" fill="#028E7F"/>
<path d="M246.168 69.252C245.146 69.252 244.131 69.119 243.123 68.853C242.129 68.573 241.275 68.181 240.561 67.677L241.905 65.073C242.465 65.479 243.109 65.801 243.837 66.039C244.579 66.277 245.328 66.396 246.084 66.396C246.938 66.396 247.61 66.228 248.1 65.892C248.59 65.556 248.835 65.087 248.835 64.485C248.835 64.107 248.737 63.771 248.541 63.477C248.345 63.183 247.995 62.959 247.491 62.805C247.001 62.651 246.308 62.574 245.412 62.574H241.653L242.409 54.3H251.376V57.03H243.627L245.391 55.476L244.866 61.377L243.102 59.823H246.21C247.666 59.823 248.835 60.026 249.717 60.432C250.613 60.824 251.264 61.363 251.67 62.049C252.076 62.735 252.279 63.512 252.279 64.38C252.279 65.248 252.062 66.053 251.628 66.795C251.194 67.523 250.522 68.118 249.612 68.58C248.716 69.028 247.568 69.252 246.168 69.252ZM259.959 69.252C258.755 69.252 257.677 68.958 256.725 68.37C255.773 67.768 255.024 66.9 254.478 65.766C253.932 64.632 253.659 63.26 253.659 61.65C253.659 60.04 253.932 58.668 254.478 57.534C255.024 56.4 255.773 55.539 256.725 54.951C257.677 54.349 258.755 54.048 259.959 54.048C261.177 54.048 262.255 54.349 263.193 54.951C264.145 55.539 264.894 56.4 265.44 57.534C265.986 58.668 266.259 60.04 266.259 61.65C266.259 63.26 265.986 64.632 265.44 65.766C264.894 66.9 264.145 67.768 263.193 68.37C262.255 68.958 261.177 69.252 259.959 69.252ZM259.959 66.375C260.533 66.375 261.03 66.214 261.45 65.892C261.884 65.57 262.22 65.059 262.458 64.359C262.71 63.659 262.836 62.756 262.836 61.65C262.836 60.544 262.71 59.641 262.458 58.941C262.22 58.241 261.884 57.73 261.45 57.408C261.03 57.086 260.533 56.925 259.959 56.925C259.399 56.925 258.902 57.086 258.468 57.408C258.048 57.73 257.712 58.241 257.46 58.941C257.222 59.641 257.103 60.544 257.103 61.65C257.103 62.756 257.222 63.659 257.46 64.359C257.712 65.059 258.048 65.57 258.468 65.892C258.902 66.214 259.399 66.375 259.959 66.375ZM274.212 69.252C273.008 69.252 271.93 68.958 270.978 68.37C270.026 67.768 269.277 66.9 268.731 65.766C268.185 64.632 267.912 63.26 267.912 61.65C267.912 60.04 268.185 58.668 268.731 57.534C269.277 56.4 270.026 55.539 270.978 54.951C271.93 54.349 273.008 54.048 274.212 54.048C275.43 54.048 276.508 54.349 277.446 54.951C278.398 55.539 279.147 56.4 279.693 57.534C280.239 58.668 280.512 60.04 280.512 61.65C280.512 63.26 280.239 64.632 279.693 65.766C279.147 66.9 278.398 67.768 277.446 68.37C276.508 68.958 275.43 69.252 274.212 69.252ZM274.212 66.375C274.786 66.375 275.283 66.214 275.703 65.892C276.137 65.57 276.473 65.059 276.711 64.359C276.963 63.659 277.089 62.756 277.089 61.65C277.089 60.544 276.963 59.641 276.711 58.941C276.473 58.241 276.137 57.73 275.703 57.408C275.283 57.086 274.786 56.925 274.212 56.925C273.652 56.925 273.155 57.086 272.721 57.408C272.301 57.73 271.965 58.241 271.713 58.941C271.475 59.641 271.356 60.544 271.356 61.65C271.356 62.756 271.475 63.659 271.713 64.359C271.965 65.059 272.301 65.57 272.721 65.892C273.155 66.214 273.652 66.375 274.212 66.375ZM284.013 69V54.3H290.376C292.336 54.3 293.89 54.713 295.038 55.539C296.186 56.365 296.76 57.604 296.76 59.256C296.76 60.894 296.186 62.126 295.038 62.952C293.89 63.778 292.336 64.191 290.376 64.191H285.903L287.436 62.679V69H284.013ZM287.436 63.036L285.903 61.524H290.355C291.293 61.524 292.021 61.335 292.539 60.957C293.057 60.565 293.316 60.005 293.316 59.277C293.316 58.563 293.057 58.017 292.539 57.639C292.021 57.261 291.293 57.072 290.355 57.072H285.903L287.436 55.455V63.036ZM281.976 67.11V65.367H291.972V67.11H281.976Z" fill="white"/>
<path d="M526.964 61.4382L489.359 81.3639H343.047L376.418 61.4382L343.047 41.5056L489.359 41.5817L526.964 61.4382Z" fill="#DCF8D6"/>
<path d="M404.444 69V55.56L405.914 57.03H401.504V54.3H407.846V69H404.444ZM416.7 69.252C415.496 69.252 414.418 68.958 413.466 68.37C412.514 67.768 411.765 66.9 411.219 65.766C410.673 64.632 410.4 63.26 410.4 61.65C410.4 60.04 410.673 58.668 411.219 57.534C411.765 56.4 412.514 55.539 413.466 54.951C414.418 54.349 415.496 54.048 416.7 54.048C417.918 54.048 418.996 54.349 419.934 54.951C420.886 55.539 421.635 56.4 422.181 57.534C422.727 58.668 423 60.04 423 61.65C423 63.26 422.727 64.632 422.181 65.766C421.635 66.9 420.886 67.768 419.934 68.37C418.996 68.958 417.918 69.252 416.7 69.252ZM416.7 66.375C417.274 66.375 417.771 66.214 418.191 65.892C418.625 65.57 418.961 65.059 419.199 64.359C419.451 63.659 419.577 62.756 419.577 61.65C419.577 60.544 419.451 59.641 419.199 58.941C418.961 58.241 418.625 57.73 418.191 57.408C417.771 57.086 417.274 56.925 416.7 56.925C416.14 56.925 415.643 57.086 415.209 57.408C414.789 57.73 414.453 58.241 414.201 58.941C413.963 59.641 413.844 60.544 413.844 61.65C413.844 62.756 413.963 63.659 414.201 64.359C414.453 65.059 414.789 65.57 415.209 65.892C415.643 66.214 416.14 66.375 416.7 66.375ZM430.952 69.252C429.748 69.252 428.67 68.958 427.718 68.37C426.766 67.768 426.017 66.9 425.471 65.766C424.925 64.632 424.652 63.26 424.652 61.65C424.652 60.04 424.925 58.668 425.471 57.534C426.017 56.4 426.766 55.539 427.718 54.951C428.67 54.349 429.748 54.048 430.952 54.048C432.17 54.048 433.248 54.349 434.186 54.951C435.138 55.539 435.887 56.4 436.433 57.534C436.979 58.668 437.252 60.04 437.252 61.65C437.252 63.26 436.979 64.632 436.433 65.766C435.887 66.9 435.138 67.768 434.186 68.37C433.248 68.958 432.17 69.252 430.952 69.252ZM430.952 66.375C431.526 66.375 432.023 66.214 432.443 65.892C432.877 65.57 433.213 65.059 433.451 64.359C433.703 63.659 433.829 62.756 433.829 61.65C433.829 60.544 433.703 59.641 433.451 58.941C433.213 58.241 432.877 57.73 432.443 57.408C432.023 57.086 431.526 56.925 430.952 56.925C430.392 56.925 429.895 57.086 429.461 57.408C429.041 57.73 428.705 58.241 428.453 58.941C428.215 59.641 428.096 60.544 428.096 61.65C428.096 62.756 428.215 63.659 428.453 64.359C428.705 65.059 429.041 65.57 429.461 65.892C429.895 66.214 430.392 66.375 430.952 66.375ZM445.205 69.252C444.001 69.252 442.923 68.958 441.971 68.37C441.019 67.768 440.27 66.9 439.724 65.766C439.178 64.632 438.905 63.26 438.905 61.65C438.905 60.04 439.178 58.668 439.724 57.534C440.27 56.4 441.019 55.539 441.971 54.951C442.923 54.349 444.001 54.048 445.205 54.048C446.423 54.048 447.501 54.349 448.439 54.951C449.391 55.539 450.14 56.4 450.686 57.534C451.232 58.668 451.505 60.04 451.505 61.65C451.505 63.26 451.232 64.632 450.686 65.766C450.14 66.9 449.391 67.768 448.439 68.37C447.501 68.958 446.423 69.252 445.205 69.252ZM445.205 66.375C445.779 66.375 446.276 66.214 446.696 65.892C447.13 65.57 447.466 65.059 447.704 64.359C447.956 63.659 448.082 62.756 448.082 61.65C448.082 60.544 447.956 59.641 447.704 58.941C447.466 58.241 447.13 57.73 446.696 57.408C446.276 57.086 445.779 56.925 445.205 56.925C444.645 56.925 444.148 57.086 443.714 57.408C443.294 57.73 442.958 58.241 442.706 58.941C442.468 59.641 442.349 60.544 442.349 61.65C442.349 62.756 442.468 63.659 442.706 64.359C442.958 65.059 443.294 65.57 443.714 65.892C444.148 66.214 444.645 66.375 445.205 66.375ZM455.006 69V54.3H461.369C463.329 54.3 464.883 54.713 466.031 55.539C467.179 56.365 467.753 57.604 467.753 59.256C467.753 60.894 467.179 62.126 466.031 62.952C464.883 63.778 463.329 64.191 461.369 64.191H456.896L458.429 62.679V69H455.006ZM458.429 63.036L456.896 61.524H461.348C462.286 61.524 463.014 61.335 463.532 60.957C464.05 60.565 464.309 60.005 464.309 59.277C464.309 58.563 464.05 58.017 463.532 57.639C463.014 57.261 462.286 57.072 461.348 57.072H456.896L458.429 55.455V63.036ZM452.969 67.11V65.367H462.965V67.11H452.969Z" fill="#212529"/>
<path d="M692.964 61.4382L655.359 81.3639H509.047L542.418 61.4382L509.047 41.5056L655.359 41.5817L692.964 61.4382Z" fill="#028E7F"/>
<path d="M565.968 69V66.795L571.638 61.44C572.086 61.034 572.415 60.67 572.625 60.348C572.835 60.026 572.975 59.732 573.045 59.466C573.129 59.2 573.171 58.955 573.171 58.731C573.171 58.143 572.968 57.695 572.562 57.387C572.17 57.065 571.589 56.904 570.819 56.904C570.203 56.904 569.629 57.023 569.097 57.261C568.579 57.499 568.138 57.87 567.774 58.374L565.296 56.778C565.856 55.938 566.64 55.273 567.648 54.783C568.656 54.293 569.818 54.048 571.134 54.048C572.226 54.048 573.178 54.23 573.99 54.594C574.816 54.944 575.453 55.441 575.901 56.085C576.363 56.729 576.594 57.499 576.594 58.395C576.594 58.871 576.531 59.347 576.405 59.823C576.293 60.285 576.055 60.775 575.691 61.293C575.341 61.811 574.823 62.392 574.137 63.036L569.433 67.467L568.782 66.228H577.077V69H565.968ZM584.781 69.252C583.577 69.252 582.499 68.958 581.547 68.37C580.595 67.768 579.846 66.9 579.3 65.766C578.754 64.632 578.481 63.26 578.481 61.65C578.481 60.04 578.754 58.668 579.3 57.534C579.846 56.4 580.595 55.539 581.547 54.951C582.499 54.349 583.577 54.048 584.781 54.048C585.999 54.048 587.077 54.349 588.015 54.951C588.967 55.539 589.716 56.4 590.262 57.534C590.808 58.668 591.081 60.04 591.081 61.65C591.081 63.26 590.808 64.632 590.262 65.766C589.716 66.9 588.967 67.768 588.015 68.37C587.077 68.958 585.999 69.252 584.781 69.252ZM584.781 66.375C585.355 66.375 585.852 66.214 586.272 65.892C586.706 65.57 587.042 65.059 587.28 64.359C587.532 63.659 587.658 62.756 587.658 61.65C587.658 60.544 587.532 59.641 587.28 58.941C587.042 58.241 586.706 57.73 586.272 57.408C585.852 57.086 585.355 56.925 584.781 56.925C584.221 56.925 583.724 57.086 583.29 57.408C582.87 57.73 582.534 58.241 582.282 58.941C582.044 59.641 581.925 60.544 581.925 61.65C581.925 62.756 582.044 63.659 582.282 64.359C582.534 65.059 582.87 65.57 583.29 65.892C583.724 66.214 584.221 66.375 584.781 66.375ZM599.034 69.252C597.83 69.252 596.752 68.958 595.8 68.37C594.848 67.768 594.099 66.9 593.553 65.766C593.007 64.632 592.734 63.26 592.734 61.65C592.734 60.04 593.007 58.668 593.553 57.534C594.099 56.4 594.848 55.539 595.8 54.951C596.752 54.349 597.83 54.048 599.034 54.048C600.252 54.048 601.33 54.349 602.268 54.951C603.22 55.539 603.969 56.4 604.515 57.534C605.061 58.668 605.334 60.04 605.334 61.65C605.334 63.26 605.061 64.632 604.515 65.766C603.969 66.9 603.22 67.768 602.268 68.37C601.33 68.958 600.252 69.252 599.034 69.252ZM599.034 66.375C599.608 66.375 600.105 66.214 600.525 65.892C600.959 65.57 601.295 65.059 601.533 64.359C601.785 63.659 601.911 62.756 601.911 61.65C601.911 60.544 601.785 59.641 601.533 58.941C601.295 58.241 600.959 57.73 600.525 57.408C600.105 57.086 599.608 56.925 599.034 56.925C598.474 56.925 597.977 57.086 597.543 57.408C597.123 57.73 596.787 58.241 596.535 58.941C596.297 59.641 596.178 60.544 596.178 61.65C596.178 62.756 596.297 63.659 596.535 64.359C596.787 65.059 597.123 65.57 597.543 65.892C597.977 66.214 598.474 66.375 599.034 66.375ZM613.287 69.252C612.083 69.252 611.005 68.958 610.053 68.37C609.101 67.768 608.352 66.9 607.806 65.766C607.26 64.632 606.987 63.26 606.987 61.65C606.987 60.04 607.26 58.668 607.806 57.534C608.352 56.4 609.101 55.539 610.053 54.951C611.005 54.349 612.083 54.048 613.287 54.048C614.505 54.048 615.583 54.349 616.521 54.951C617.473 55.539 618.222 56.4 618.768 57.534C619.314 58.668 619.587 60.04 619.587 61.65C619.587 63.26 619.314 64.632 618.768 65.766C618.222 66.9 617.473 67.768 616.521 68.37C615.583 68.958 614.505 69.252 613.287 69.252ZM613.287 66.375C613.861 66.375 614.358 66.214 614.778 65.892C615.212 65.57 615.548 65.059 615.786 64.359C616.038 63.659 616.164 62.756 616.164 61.65C616.164 60.544 616.038 59.641 615.786 58.941C615.548 58.241 615.212 57.73 614.778 57.408C614.358 57.086 613.861 56.925 613.287 56.925C612.727 56.925 612.23 57.086 611.796 57.408C611.376 57.73 611.04 58.241 610.788 58.941C610.55 59.641 610.431 60.544 610.431 61.65C610.431 62.756 610.55 63.659 610.788 64.359C611.04 65.059 611.376 65.57 611.796 65.892C612.23 66.214 612.727 66.375 613.287 66.375ZM623.088 69V54.3H629.451C631.411 54.3 632.965 54.713 634.113 55.539C635.261 56.365 635.835 57.604 635.835 59.256C635.835 60.894 635.261 62.126 634.113 62.952C632.965 63.778 631.411 64.191 629.451 64.191H624.978L626.511 62.679V69H623.088ZM626.511 63.036L624.978 61.524H629.43C630.368 61.524 631.096 61.335 631.614 60.957C632.132 60.565 632.391 60.005 632.391 59.277C632.391 58.563 632.132 58.017 631.614 57.639C631.096 57.261 630.368 57.072 629.43 57.072H624.978L626.511 55.455V63.036ZM621.051 67.11V65.367H631.047V67.11H621.051Z" fill="white"/>
<path fill-rule="evenodd" clip-rule="evenodd" d="M731.581 9.08331C729.326 9.08331 727.497 10.9115 727.497 13.1666V17.25H723.414C716.649 17.25 711.164 22.7345 711.164 29.5V86.6666C711.164 93.4323 716.649 98.9166 723.414 98.9166H756.493C754.101 96.5724 752.119 93.8108 750.665 90.75H723.414C721.159 90.75 719.331 88.9219 719.331 86.6666V49.9166H784.664V51.1004C787.614 51.9783 790.364 53.3197 792.831 55.04V29.5C792.831 22.7345 787.346 17.25 780.581 17.25H776.497V13.1666C776.497 10.9115 774.669 9.08331 772.414 9.08331C770.159 9.08331 768.331 10.9115 768.331 13.1666V17.25H735.664V13.1666C735.664 10.9115 733.836 9.08331 731.581 9.08331ZM768.331 29.5V25.4166H735.664V29.5C735.664 31.7551 733.836 33.5833 731.581 33.5833C729.326 33.5833 727.497 31.7551 727.497 29.5V25.4166H723.414C721.159 25.4166 719.331 27.2448 719.331 29.5V41.75H784.664V29.5C784.664 27.2448 782.836 25.4166 780.581 25.4166H776.497V29.5C776.497 31.7551 774.669 33.5833 772.414 33.5833C770.159 33.5833 768.331 31.7551 768.331 29.5Z" fill="#028E7F"/>
<path d="M765.446 77.304C767.04 75.7094 769.626 75.7094 771.221 77.304L773.839 79.9218L781.593 72.1672C783.188 70.5726 785.773 70.5726 787.368 72.1672C788.963 73.7621 788.963 76.3473 787.368 77.9422L776.995 88.3147C776.642 88.6675 776.241 88.9423 775.813 89.1387C774.249 90.0534 772.207 89.8402 770.866 88.4989L765.446 83.0786C763.851 81.4841 763.851 78.8985 765.446 77.304Z" fill="#0F0F0F"/>
<path fill-rule="evenodd" clip-rule="evenodd" d="M801 78.5C801 92.0309 790.031 103 776.5 103C762.969 103 752 92.0309 752 78.5C752 64.9691 762.969 54 776.5 54C790.031 54 801 64.9691 801 78.5ZM760.093 78.5C760.093 87.5613 767.439 94.9072 776.5 94.9072C785.561 94.9072 792.907 87.5613 792.907 78.5C792.907 69.4387 785.561 62.0928 776.5 62.0928C767.439 62.0928 760.093 69.4387 760.093 78.5Z" fill="#028E7F"/>
</svg>
