<svg width="135" height="25" viewBox="0 0 135 25" fill="none" xmlns="http://www.w3.org/2000/svg">
<g clip-path="url(#clip0_407_2739)">
<path d="M28.4286 16.9421C28.4286 17.1731 28.4286 17.3863 28.3975 17.6217C28.3724 17.9529 28.3189 18.2814 28.2376 18.6034C27.1315 23.2319 21.2726 24.9376 14.2143 24.9376C7.156 24.9376 1.29705 23.2319 0.191004 18.6034C0.109718 18.2814 0.0562178 17.9529 0.0310938 17.6217C0 17.3863 0 17.1731 0 16.9421C0 11.0565 6.36533 3.61621 14.2143 3.61621C22.0632 3.61621 28.4286 11.0565 28.4286 16.9421Z" fill="#DCF8D6"/>
<path d="M20.4331 10.7232C23.377 10.7232 25.7635 8.33673 25.7635 5.39286C25.7635 2.44898 23.377 0.0625 20.4331 0.0625C17.4893 0.0625 15.1028 2.44898 15.1028 5.39286C15.1028 8.33673 17.4893 10.7232 20.4331 10.7232Z" fill="#DCF8D6"/>
<path d="M20.433 8.0579C21.9049 8.0579 23.0982 6.86466 23.0982 5.39272C23.0982 3.92078 21.9049 2.72754 20.433 2.72754C18.9611 2.72754 17.7678 3.92078 17.7678 5.39272C17.7678 6.86466 18.9611 8.0579 20.433 8.0579Z" fill="#044448"/>
<path d="M7.99564 10.7232C10.9395 10.7232 13.326 8.33673 13.326 5.39286C13.326 2.44898 10.9395 0.0625 7.99564 0.0625C5.05177 0.0625 2.66528 2.44898 2.66528 5.39286C2.66528 8.33673 5.05177 10.7232 7.99564 10.7232Z" fill="#DCF8D6"/>
<path d="M7.9955 8.0579C9.46744 8.0579 10.6607 6.86466 10.6607 5.39272C10.6607 3.92078 9.46744 2.72754 7.9955 2.72754C6.52356 2.72754 5.33032 3.92078 5.33032 5.39272C5.33032 6.86466 6.52356 8.0579 7.9955 8.0579Z" fill="#044448"/>
<path d="M11.9932 15.1652C12.7292 15.1652 13.3258 14.5686 13.3258 13.8326C13.3258 13.0966 12.7292 12.5 11.9932 12.5C11.2573 12.5 10.6606 13.0966 10.6606 13.8326C10.6606 14.5686 11.2573 15.1652 11.9932 15.1652Z" fill="#044448"/>
<path d="M16.4354 15.1652C17.1713 15.1652 17.768 14.5686 17.768 13.8326C17.768 13.0966 17.1713 12.5 16.4354 12.5C15.6994 12.5 15.1028 13.0966 15.1028 13.8326C15.1028 14.5686 15.6994 15.1652 16.4354 15.1652Z" fill="#044448"/>
<path d="M14.2142 20.0513C9.37848 20.1052 4.57306 19.2819 0.0310059 17.6216C0.0561299 17.9528 0.10963 18.2812 0.190917 18.6033C4.69318 20.1944 9.43924 20.9852 14.2142 20.9397C18.9892 20.9852 23.7352 20.1944 28.2375 18.6033C28.3188 18.2812 28.3723 17.9528 28.3974 17.6216C23.8553 19.2819 19.0499 20.1052 14.2142 20.0513Z" fill="#028E7F"/>
</g>
<path d="M43.5735 8.03V11.915H50.3775V14.645H43.5735V20H40.1715V5.3H51.2805V8.03H43.5735ZM53.1475 8.702H56.4235V20H53.1475V8.702ZM54.7855 7.127C54.1835 7.127 53.6935 6.952 53.3155 6.602C52.9375 6.252 52.7485 5.818 52.7485 5.3C52.7485 4.782 52.9375 4.348 53.3155 3.998C53.6935 3.648 54.1835 3.473 54.7855 3.473C55.3875 3.473 55.8775 3.641 56.2555 3.977C56.6335 4.313 56.8225 4.733 56.8225 5.237C56.8225 5.783 56.6335 6.238 56.2555 6.602C55.8775 6.952 55.3875 7.127 54.7855 7.127ZM66.3309 8.534C67.7309 8.534 68.8579 8.954 69.7119 9.794C70.5799 10.634 71.0139 11.88 71.0139 13.532V20H67.7379V14.036C67.7379 13.14 67.5419 12.475 67.1499 12.041C66.7579 11.593 66.1909 11.369 65.4489 11.369C64.6229 11.369 63.9649 11.628 63.4749 12.146C62.9849 12.65 62.7399 13.406 62.7399 14.414V20H59.4639V8.702H62.5929V10.025C63.0269 9.549 63.5659 9.185 64.2099 8.933C64.8539 8.667 65.5609 8.534 66.3309 8.534Z" fill="#212529"/>
<path d="M77.6164 8.03V11.915H84.4204V14.645H77.6164V20H74.2144V5.3H85.3234V8.03H77.6164ZM90.3195 10.193C90.7115 9.647 91.2365 9.234 91.8945 8.954C92.5665 8.674 93.3365 8.534 94.2045 8.534V11.558C93.8405 11.53 93.5955 11.516 93.4695 11.516C92.5315 11.516 91.7965 11.782 91.2645 12.314C90.7325 12.832 90.4665 13.616 90.4665 14.666V20H87.1905V8.702H90.3195V10.193ZM107.117 14.393C107.117 14.435 107.096 14.729 107.054 15.275H98.5068C98.6608 15.975 99.0248 16.528 99.5988 16.934C100.173 17.34 100.887 17.543 101.741 17.543C102.329 17.543 102.847 17.459 103.295 17.291C103.757 17.109 104.184 16.829 104.576 16.451L106.319 18.341C105.255 19.559 103.701 20.168 101.657 20.168C100.383 20.168 99.2558 19.923 98.2758 19.433C97.2958 18.929 96.5398 18.236 96.0078 17.354C95.4758 16.472 95.2098 15.471 95.2098 14.351C95.2098 13.245 95.4688 12.251 95.9868 11.369C96.5188 10.473 97.2398 9.78 98.1498 9.29C99.0738 8.786 100.103 8.534 101.237 8.534C102.343 8.534 103.344 8.772 104.24 9.248C105.136 9.724 105.836 10.41 106.34 11.306C106.858 12.188 107.117 13.217 107.117 14.393ZM101.258 11.012C100.516 11.012 99.8928 11.222 99.3888 11.642C98.8848 12.062 98.5768 12.636 98.4648 13.364H104.03C103.918 12.65 103.61 12.083 103.106 11.663C102.602 11.229 101.986 11.012 101.258 11.012ZM113.099 20.168C112.161 20.168 111.244 20.056 110.348 19.832C109.452 19.594 108.738 19.3 108.206 18.95L109.298 16.598C109.802 16.92 110.411 17.186 111.125 17.396C111.839 17.592 112.539 17.69 113.225 17.69C114.611 17.69 115.304 17.347 115.304 16.661C115.304 16.339 115.115 16.108 114.737 15.968C114.359 15.828 113.778 15.709 112.994 15.611C112.07 15.471 111.307 15.31 110.705 15.128C110.103 14.946 109.578 14.624 109.13 14.162C108.696 13.7 108.479 13.042 108.479 12.188C108.479 11.474 108.682 10.844 109.088 10.298C109.508 9.738 110.11 9.304 110.894 8.996C111.692 8.688 112.63 8.534 113.708 8.534C114.506 8.534 115.297 8.625 116.081 8.807C116.879 8.975 117.537 9.213 118.055 9.521L116.963 11.852C115.969 11.292 114.884 11.012 113.708 11.012C113.008 11.012 112.483 11.11 112.133 11.306C111.783 11.502 111.608 11.754 111.608 12.062C111.608 12.412 111.797 12.657 112.175 12.797C112.553 12.937 113.155 13.07 113.981 13.196C114.905 13.35 115.661 13.518 116.249 13.7C116.837 13.868 117.348 14.183 117.782 14.645C118.216 15.107 118.433 15.751 118.433 16.577C118.433 17.277 118.223 17.9 117.803 18.446C117.383 18.992 116.767 19.419 115.955 19.727C115.157 20.021 114.205 20.168 113.099 20.168ZM127.321 8.534C128.721 8.534 129.848 8.954 130.702 9.794C131.57 10.634 132.004 11.88 132.004 13.532V20H128.728V14.036C128.728 13.14 128.532 12.475 128.14 12.041C127.748 11.593 127.181 11.369 126.439 11.369C125.613 11.369 124.955 11.628 124.465 12.146C123.975 12.65 123.73 13.406 123.73 14.414V20H120.454V4.418H123.73V9.878C124.164 9.444 124.689 9.115 125.305 8.891C125.921 8.653 126.593 8.534 127.321 8.534Z" fill="#DCF8D6"/>
<defs>
<clipPath id="clip0_407_2739">
<rect width="28.4286" height="24.875" fill="white" transform="translate(0 0.0625)"/>
</clipPath>
</defs>
</svg>
