<svg width="135" height="28" viewBox="0 0 135 28" fill="none" xmlns="http://www.w3.org/2000/svg">
<g clip-path="url(#clip0_640_1135)">
<path d="M28.4286 18.4235C28.4286 18.6545 28.4286 18.8677 28.3975 19.1032C28.3724 19.4344 28.3189 19.7628 28.2376 20.0848C27.1315 24.7134 21.2726 26.4191 14.2143 26.4191C7.156 26.4191 1.29705 24.7134 0.191004 20.0848C0.109718 19.7628 0.0562178 19.4344 0.0310938 19.1032C0 18.8677 0 18.6545 0 18.4235C0 12.5379 6.36533 5.09766 14.2143 5.09766C22.0632 5.09766 28.4286 12.5379 28.4286 18.4235Z" fill="#028E7F"/>
<path d="M20.4329 12.2056C23.3768 12.2056 25.7633 9.81915 25.7633 6.87528C25.7633 3.9314 23.3768 1.54492 20.4329 1.54492C17.489 1.54492 15.1025 3.9314 15.1025 6.87528C15.1025 9.81915 17.489 12.2056 20.4329 12.2056Z" fill="#028E7F"/>
<path d="M20.4328 9.54129C21.9047 9.54129 23.0979 8.34805 23.0979 6.87612C23.0979 5.40418 21.9047 4.21094 20.4328 4.21094C18.9608 4.21094 17.7676 5.40418 17.7676 6.87612C17.7676 8.34805 18.9608 9.54129 20.4328 9.54129Z" fill="#DCF8D6"/>
<path d="M7.9954 12.2056C10.9393 12.2056 13.3258 9.81915 13.3258 6.87528C13.3258 3.9314 10.9393 1.54492 7.9954 1.54492C5.05152 1.54492 2.66504 3.9314 2.66504 6.87528C2.66504 9.81915 5.05152 12.2056 7.9954 12.2056Z" fill="#028E7F"/>
<path d="M7.99526 9.54129C9.46719 9.54129 10.6604 8.34805 10.6604 6.87612C10.6604 5.40418 9.46719 4.21094 7.99526 4.21094C6.52332 4.21094 5.33008 5.40418 5.33008 6.87612C5.33008 8.34805 6.52332 9.54129 7.99526 9.54129Z" fill="#DCF8D6"/>
<path d="M11.9937 16.6476C12.7297 16.6476 13.3263 16.051 13.3263 15.315C13.3263 14.579 12.7297 13.9824 11.9937 13.9824C11.2578 13.9824 10.6611 14.579 10.6611 15.315C10.6611 16.051 11.2578 16.6476 11.9937 16.6476Z" fill="#044448"/>
<path d="M16.4351 16.6476C17.1711 16.6476 17.7677 16.051 17.7677 15.315C17.7677 14.579 17.1711 13.9824 16.4351 13.9824C15.6992 13.9824 15.1025 14.579 15.1025 15.315C15.1025 16.051 15.6992 16.6476 16.4351 16.6476Z" fill="#044448"/>
<path d="M14.2144 21.5333C9.37873 21.5871 4.5733 20.7639 0.03125 19.1035C0.056374 19.4347 0.109874 19.7631 0.191161 20.0852C4.69343 21.6764 9.43949 22.4671 14.2144 22.4217C18.9894 22.4671 23.7355 21.6764 28.2377 20.0852C28.319 19.7631 28.3725 19.4347 28.3976 19.1035C23.8556 20.7639 19.0502 21.5871 14.2144 21.5333Z" fill="#044448"/>
</g>
<path d="M43.3217 13.3974H50.3777V16.1274H43.3217V13.3974ZM43.5737 21.4824H40.1717V6.78242H51.2807V9.51242H43.5737V21.4824ZM53.3528 21.4824V10.1844H56.6288V21.4824H53.3528ZM54.9908 8.60942C54.3888 8.60942 53.8988 8.43442 53.5208 8.08442C53.1428 7.73442 52.9538 7.30042 52.9538 6.78242C52.9538 6.26442 53.1428 5.83042 53.5208 5.48042C53.8988 5.13042 54.3888 4.95542 54.9908 4.95542C55.5928 4.95542 56.0828 5.12342 56.4608 5.45942C56.8388 5.78142 57.0278 6.20142 57.0278 6.71942C57.0278 7.26542 56.8388 7.72042 56.4608 8.08442C56.0968 8.43442 55.6068 8.60942 54.9908 8.60942ZM66.5362 10.0164C67.4322 10.0164 68.2302 10.1984 68.9302 10.5624C69.6442 10.9124 70.2042 11.4584 70.6102 12.2004C71.0162 12.9284 71.2192 13.8664 71.2192 15.0144V21.4824H67.9432V15.5184C67.9432 14.6084 67.7402 13.9364 67.3342 13.5024C66.9422 13.0684 66.3822 12.8514 65.6542 12.8514C65.1362 12.8514 64.6672 12.9634 64.2472 13.1874C63.8412 13.3974 63.5192 13.7264 63.2812 14.1744C63.0572 14.6224 62.9452 15.1964 62.9452 15.8964V21.4824H59.6692V10.1844H62.7982V13.3134L62.2102 12.3684C62.6162 11.6124 63.1972 11.0314 63.9532 10.6254C64.7092 10.2194 65.5702 10.0164 66.5362 10.0164Z" fill="#044448"/>
<path d="M77.5698 13.3974H84.6258V16.1274H77.5698V13.3974ZM77.8218 21.4824H74.4198V6.78242H85.5288V9.51242H77.8218V21.4824ZM87.3958 21.4824V10.1844H90.5248V13.3764L90.0838 12.4524C90.4198 11.6544 90.9588 11.0524 91.7008 10.6464C92.4428 10.2264 93.3458 10.0164 94.4098 10.0164V13.0404C94.2698 13.0264 94.1438 13.0194 94.0318 13.0194C93.9198 13.0054 93.8008 12.9984 93.6748 12.9984C92.7788 12.9984 92.0508 13.2574 91.4908 13.7754C90.9448 14.2794 90.6718 15.0704 90.6718 16.1484V21.4824H87.3958ZM101.883 21.6504C100.595 21.6504 99.4607 21.3984 98.4807 20.8944C97.5147 20.3904 96.7657 19.7044 96.2337 18.8364C95.7017 17.9544 95.4357 16.9534 95.4357 15.8334C95.4357 14.6994 95.6947 13.6984 96.2127 12.8304C96.7447 11.9484 97.4657 11.2624 98.3757 10.7724C99.2857 10.2684 100.315 10.0164 101.463 10.0164C102.569 10.0164 103.563 10.2544 104.445 10.7304C105.341 11.1924 106.048 11.8644 106.566 12.7464C107.084 13.6144 107.343 14.6574 107.343 15.8754C107.343 16.0014 107.336 16.1484 107.322 16.3164C107.308 16.4704 107.294 16.6174 107.28 16.7574H98.1027V14.8464H105.558L104.298 15.4134C104.298 14.8254 104.179 14.3144 103.941 13.8804C103.703 13.4464 103.374 13.1104 102.954 12.8724C102.534 12.6204 102.044 12.4944 101.484 12.4944C100.924 12.4944 100.427 12.6204 99.9927 12.8724C99.5727 13.1104 99.2437 13.4534 99.0057 13.9014C98.7677 14.3354 98.6487 14.8534 98.6487 15.4554V15.9594C98.6487 16.5754 98.7817 17.1214 99.0477 17.5974C99.3277 18.0594 99.7127 18.4164 100.203 18.6684C100.707 18.9064 101.295 19.0254 101.967 19.0254C102.569 19.0254 103.094 18.9344 103.542 18.7524C104.004 18.5704 104.424 18.2974 104.802 17.9334L106.545 19.8234C106.027 20.4114 105.376 20.8664 104.592 21.1884C103.808 21.4964 102.905 21.6504 101.883 21.6504ZM113.325 21.6504C112.359 21.6504 111.428 21.5384 110.532 21.3144C109.65 21.0764 108.95 20.7824 108.432 20.4324L109.524 18.0804C110.042 18.4024 110.651 18.6684 111.351 18.8784C112.065 19.0744 112.765 19.1724 113.451 19.1724C114.207 19.1724 114.739 19.0814 115.047 18.8994C115.369 18.7174 115.53 18.4654 115.53 18.1434C115.53 17.8774 115.404 17.6814 115.152 17.5554C114.914 17.4154 114.592 17.3104 114.186 17.2404C113.78 17.1704 113.332 17.1004 112.842 17.0304C112.366 16.9604 111.883 16.8694 111.393 16.7574C110.903 16.6314 110.455 16.4494 110.049 16.2114C109.643 15.9734 109.314 15.6514 109.062 15.2454C108.824 14.8394 108.705 14.3144 108.705 13.6704C108.705 12.9564 108.908 12.3264 109.314 11.7804C109.734 11.2344 110.336 10.8074 111.12 10.4994C111.904 10.1774 112.842 10.0164 113.934 10.0164C114.704 10.0164 115.488 10.1004 116.286 10.2684C117.084 10.4364 117.749 10.6814 118.281 11.0034L117.189 13.3344C116.643 13.0124 116.09 12.7954 115.53 12.6834C114.984 12.5574 114.452 12.4944 113.934 12.4944C113.206 12.4944 112.674 12.5924 112.338 12.7884C112.002 12.9844 111.834 13.2364 111.834 13.5444C111.834 13.8244 111.953 14.0344 112.191 14.1744C112.443 14.3144 112.772 14.4264 113.178 14.5104C113.584 14.5944 114.025 14.6714 114.501 14.7414C114.991 14.7974 115.481 14.8884 115.971 15.0144C116.461 15.1404 116.902 15.3224 117.294 15.5604C117.7 15.7844 118.029 16.0994 118.281 16.5054C118.533 16.8974 118.659 17.4154 118.659 18.0594C118.659 18.7594 118.449 19.3824 118.029 19.9284C117.609 20.4604 117 20.8804 116.202 21.1884C115.418 21.4964 114.459 21.6504 113.325 21.6504ZM127.547 10.0164C128.443 10.0164 129.241 10.1984 129.941 10.5624C130.655 10.9124 131.215 11.4584 131.621 12.2004C132.027 12.9284 132.23 13.8664 132.23 15.0144V21.4824H128.954V15.5184C128.954 14.6084 128.751 13.9364 128.345 13.5024C127.953 13.0684 127.393 12.8514 126.665 12.8514C126.147 12.8514 125.678 12.9634 125.258 13.1874C124.852 13.3974 124.53 13.7264 124.292 14.1744C124.068 14.6224 123.956 15.1964 123.956 15.8964V21.4824H120.68V5.90042H123.956V13.3134L123.221 12.3684C123.627 11.6124 124.208 11.0314 124.964 10.6254C125.72 10.2194 126.581 10.0164 127.547 10.0164Z" fill="#028E7F"/>
<defs>
<clipPath id="clip0_640_1135">
<rect width="28.4286" height="24.875" fill="white" transform="translate(0 1.54492)"/>
</clipPath>
</defs>
</svg>
