<svg width="138" height="40" viewBox="0 0 138 40" fill="none" xmlns="http://www.w3.org/2000/svg">
<path fill-rule="evenodd" clip-rule="evenodd" d="M11.0135 1.09745C10.1205 1.68065 9.78487 2.62076 10.1596 3.49098C10.6975 4.74224 12.2552 4.92527 22.3703 4.92527C33.4382 4.92527 34.0702 5.01845 36.2534 6.96771C39.1646 9.56507 39.2737 13.4037 36.5014 15.7082C34.6799 17.2232 33.2453 17.4046 23.0993 17.4046C14.1363 17.4046 11.4917 17.6683 10.5763 18.6525C9.65064 19.6483 9.65064 20.1525 10.5763 21.1484C11.4889 22.1301 14.1093 22.3963 22.8514 22.3963C33.4093 22.3963 34.0805 22.4986 36.2534 24.4387C39.1898 27.0586 39.2448 30.6684 36.3849 33.0669C34.4151 34.7175 33.2443 34.8756 22.9819 34.8756C14.1233 34.8756 11.4908 35.1401 10.5763 36.1235C9.65064 37.1194 9.65064 37.6235 10.5763 38.6194C12.4211 40.6036 33.2788 40.3931 37.552 38.3473C43.7874 35.3631 46.0843 26.6168 41.7533 22.3464C40.1434 20.7582 40.1602 20.5776 42.2204 17.3064C46.4544 10.5826 42.8263 2.69147 34.5904 0.712256C29.8894 -0.417537 12.9096 -0.139664 11.0135 1.09745ZM6.34137 10.6217C0.284014 13.947 -1.8796 21.0311 1.81373 25.4462C5.7513 30.1534 7.35466 30.636 19.4321 30.7524C34.7507 30.9013 33.881 31.0286 33.881 28.6359V26.5561H21.8884C11.1673 26.5561 9.63479 26.373 7.43949 24.8314C4.48259 22.7565 4.11717 18.5435 6.65179 15.7498C8.21973 14.0218 9.01768 13.9162 19.9355 13.9961C32.1322 14.0842 34.279 13.6283 33.7281 11.0651C33.4224 9.64411 32.2879 9.48104 21.2853 9.28304C10.814 9.09419 8.79489 9.27555 6.34137 10.6217Z" fill="url(#paint0_linear_128_1939)"/>
<path d="M68.022 14.9498C67.2768 15.7027 66.4037 16.2912 65.4029 16.7154C64.4127 17.1395 63.348 17.3516 62.2088 17.3516C61.0802 17.3516 60.0155 17.1395 59.0147 16.7154C58.0245 16.2806 57.1568 15.6974 56.4115 14.9657C55.6662 14.2234 55.0753 13.3592 54.6388 12.373C54.2129 11.3762 54 10.3105 54 9.17581C54 8.05177 54.2129 6.99666 54.6388 6.01047C55.0753 5.01368 55.6662 4.14414 56.4115 3.40184C57.1568 2.65955 58.0245 2.07632 59.0147 1.65216C60.0155 1.21739 61.0802 1 62.2088 1C63.348 1 64.4127 1.21739 65.4029 1.65216C66.4037 2.07632 67.2768 2.65955 68.022 3.40184L66.0417 5.35831C65.5519 4.87052 64.977 4.48877 64.3169 4.21306C63.6674 3.92675 62.9647 3.78359 62.2088 3.78359C61.4635 3.78359 60.7608 3.92675 60.1007 4.21306C59.4406 4.48877 58.8657 4.87052 58.3759 5.35831C57.8861 5.84611 57.4975 6.41873 57.2101 7.07619C56.9332 7.73365 56.7948 8.43352 56.7948 9.17581C56.7948 9.91811 56.9332 10.618 57.2101 11.2754C57.4975 11.9329 57.8861 12.5055 58.3759 12.9933C58.8657 13.4811 59.4406 13.8682 60.1007 14.1545C60.7608 14.4302 61.4635 14.568 62.2088 14.568C62.9647 14.568 63.6674 14.4302 64.3169 14.1545C64.977 13.8682 65.5519 13.4811 66.0417 12.9933L68.022 14.9498Z" fill="#CD2759"/>
<path d="M72.2094 6.51947C72.8163 5.8408 73.5403 5.30529 74.3814 4.91294C75.2225 4.50998 76.1381 4.3085 77.1283 4.3085V7.09209C76.6066 7.09209 76.0583 7.19283 75.4834 7.39431C74.9084 7.58519 74.3761 7.85029 73.8863 8.18963C73.4072 8.52896 73.0079 8.92662 72.6885 9.3826C72.3691 9.83857 72.2094 10.3211 72.2094 10.8301V17.1289H69.3986V4.563H72.2094V6.51947Z" fill="#CD2759"/>
<path d="M79.804 12.2139C79.9424 12.5638 80.1234 12.882 80.347 13.1683C80.5812 13.4546 80.8474 13.7038 81.1455 13.9159C81.4543 14.1174 81.7896 14.2764 82.1516 14.3931C82.5136 14.5097 82.8916 14.568 83.2855 14.568C83.9776 14.568 84.6004 14.4037 85.1541 14.0749C85.7184 13.7356 86.1709 13.2902 86.5116 12.7388L88.9071 14.1863C88.6197 14.6635 88.2736 15.0982 87.8691 15.4906C87.4751 15.8723 87.0386 16.2011 86.5595 16.4768C86.0804 16.7525 85.564 16.9699 85.0103 17.1289C84.4567 17.2774 83.8818 17.3516 83.2855 17.3516C82.3805 17.3516 81.5288 17.182 80.7303 16.8426C79.9317 16.4927 79.2344 16.0261 78.6381 15.4429C78.0526 14.849 77.5841 14.1545 77.2327 13.3592C76.892 12.5638 76.7217 11.7155 76.7217 10.8142C76.7217 9.9128 76.892 9.06977 77.2327 8.28506C77.5841 7.48975 78.0526 6.79518 78.6381 6.20134C79.2344 5.60751 79.9317 5.14093 80.7303 4.80159C81.5288 4.45166 82.3805 4.27669 83.2855 4.27669C84.1905 4.27669 85.0423 4.45166 85.8408 4.80159C86.6393 5.14093 87.3314 5.60751 87.917 6.20134C88.5132 6.79518 88.9817 7.48975 89.3224 8.28506C89.6737 9.06977 89.8494 9.9128 89.8494 10.8142C89.8494 11.3232 89.7962 11.7897 89.6897 12.2139H79.804ZM86.7671 9.43031C86.6287 9.08038 86.4424 8.76225 86.2081 8.47594C85.9739 8.18963 85.7077 7.94573 85.4096 7.74425C85.1115 7.53217 84.7814 7.3678 84.4194 7.25116C84.0574 7.13451 83.6795 7.07619 83.2855 7.07619C82.8916 7.07619 82.5136 7.13451 82.1516 7.25116C81.7896 7.3678 81.4543 7.53217 81.1455 7.74425C80.8474 7.94573 80.5812 8.18963 80.347 8.47594C80.1234 8.76225 79.9424 9.08038 79.804 9.43031H86.7671Z" fill="#CD2759"/>
<path d="M104.062 1.22269V17.1448H101.251V10.8301C101.251 10.3105 101.15 9.82267 100.947 9.36669C100.756 8.91071 100.49 8.51305 100.149 8.17372C99.8081 7.83439 99.4089 7.56928 98.951 7.37841C98.4932 7.17693 98.0035 7.07619 97.4818 7.07619C96.9601 7.07619 96.4703 7.17693 96.0125 7.37841C95.5547 7.56928 95.1554 7.83439 94.8147 8.17372C94.474 8.51305 94.2025 8.91071 94.0002 9.36669C93.8086 9.82267 93.7127 10.3105 93.7127 10.8301C93.7127 11.3497 93.8086 11.8375 94.0002 12.2934C94.2025 12.7494 94.474 13.1471 94.8147 13.4864C95.1554 13.8257 95.5547 14.0961 96.0125 14.2976C96.4703 14.4885 96.9601 14.5839 97.4818 14.5839C97.8863 14.5839 98.2696 14.5256 98.6316 14.409C98.9936 14.2923 99.329 14.128 99.6378 13.9159L100.899 16.4291C100.388 16.7366 99.8454 16.9699 99.2704 17.1289C98.7062 17.2986 98.1099 17.3834 97.4818 17.3834C96.5768 17.3834 95.725 17.2138 94.9265 16.8744C94.128 16.5245 93.4306 16.0526 92.8344 15.4588C92.2381 14.8649 91.7643 14.1704 91.413 13.3751C91.0723 12.5798 90.9019 11.7314 90.9019 10.8301C90.9019 9.92871 91.0723 9.08038 91.413 8.28506C91.7643 7.48975 92.2381 6.79518 92.8344 6.20134C93.4306 5.60751 94.128 5.14093 94.9265 4.80159C95.725 4.45166 96.5768 4.27669 97.4818 4.27669C98.1845 4.27669 98.8499 4.38273 99.4781 4.59481C100.117 4.8069 100.708 5.09851 101.251 5.46966V1.22269H104.062Z" fill="#CD2759"/>
<path d="M108.932 1.22269H106.121V3.7995H108.932V1.22269ZM106.121 17.1289V4.51528H108.932V17.1289H106.121Z" fill="#CD2759"/>
<path d="M118.918 14.3453V17.1448H116.379C115.665 17.1448 114.994 17.0123 114.366 16.7472C113.738 16.4715 113.184 16.1003 112.705 15.6338C112.237 15.1566 111.864 14.6051 111.587 13.9795C111.321 13.3539 111.188 12.6805 111.188 11.9594V3.11553H113.983V5.61281H117.225V8.41231H113.983V11.9594C113.983 12.2881 114.047 12.601 114.175 12.8979C114.302 13.1842 114.473 13.4334 114.686 13.6455C114.909 13.8576 115.165 14.0272 115.452 14.1545C115.74 14.2817 116.048 14.3453 116.379 14.3453H118.918Z" fill="#CD2759"/>
<path d="M65.0356 30.013C65.3976 30.2144 65.7223 30.4583 66.0098 30.7447C66.3079 31.031 66.5634 31.3491 66.7763 31.699C66.9893 32.049 67.1543 32.4307 67.2714 32.8443C67.3885 33.2472 67.4471 33.6661 67.4471 34.1009C67.4471 34.7477 67.3247 35.3575 67.0798 35.9301C66.8349 36.4921 66.4995 36.9852 66.0736 37.4094C65.6478 37.8335 65.1474 38.1676 64.5724 38.4115C64.0081 38.6554 63.4013 38.7773 62.7518 38.7773H54.2236V22.8711H61.0589C61.7084 22.8711 62.3153 22.993 62.8796 23.2369C63.4545 23.4808 63.9549 23.8148 64.3808 24.239C64.8067 24.6632 65.142 25.1616 65.3869 25.7342C65.6318 26.2962 65.7542 26.9006 65.7542 27.5475C65.7542 28.0035 65.6904 28.4382 65.5626 28.8518C65.4348 29.2654 65.2592 29.6524 65.0356 30.013ZM62.7518 35.9778C63.0073 35.9778 63.2469 35.9301 63.4705 35.8347C63.7047 35.7286 63.907 35.5908 64.0773 35.4211C64.2477 35.2514 64.3808 35.0552 64.4766 34.8326C64.5831 34.5993 64.6363 34.3554 64.6363 34.1009C64.6363 33.8464 64.5831 33.6078 64.4766 33.3851C64.3808 33.1518 64.2477 32.9503 64.0773 32.7807C63.907 32.611 63.7047 32.4784 63.4705 32.383C63.2469 32.277 63.0073 32.2239 62.7518 32.2239H57.3219L58.7272 29.4244H61.0589C61.3145 29.4244 61.554 29.3767 61.7776 29.2813C62.0118 29.1752 62.2141 29.0374 62.3845 28.8677C62.5548 28.698 62.6879 28.5019 62.7837 28.2792C62.8902 28.0459 62.9434 27.802 62.9434 27.5475C62.9434 27.293 62.8902 27.0544 62.7837 26.8317C62.6879 26.5984 62.5548 26.3969 62.3845 26.2273C62.2141 26.0576 62.0118 25.9251 61.7776 25.8296C61.554 25.7236 61.3145 25.6706 61.0589 25.6706H57.0344V35.9778H62.7518Z" fill="#CD2759"/>
<path d="M75.0857 39C74.1807 39 73.329 38.8303 72.5304 38.491C71.7319 38.1411 71.0345 37.6745 70.4383 37.0913C69.8527 36.4974 69.3843 35.8028 69.0329 35.0075C68.6922 34.2122 68.5219 33.3639 68.5219 32.4625C68.5219 31.5612 68.6922 30.7181 69.0329 29.9334C69.3843 29.1381 69.8527 28.4435 70.4383 27.8497C71.0345 27.2559 71.7319 26.7893 72.5304 26.45C73.329 26.1 74.1807 25.9251 75.0857 25.9251C75.9907 25.9251 76.8425 26.1 77.641 26.45C78.4395 26.7893 79.1316 27.2559 79.7171 27.8497C80.3134 28.4435 80.7818 29.1381 81.1225 29.9334C81.4739 30.7181 81.6496 31.5612 81.6496 32.4625C81.6496 33.3639 81.4739 34.2122 81.1225 35.0075C80.7818 35.8028 80.3134 36.4974 79.7171 37.0913C79.1316 37.6745 78.4395 38.1411 77.641 38.491C76.8425 38.8303 75.9907 39 75.0857 39ZM75.0857 28.7246C74.564 28.7246 74.0743 28.8253 73.6164 29.0268C73.1693 29.2177 72.7753 29.4828 72.4346 29.8221C72.0939 30.1614 71.8224 30.5591 71.6201 31.0151C71.4285 31.471 71.3327 31.9535 71.3327 32.4625C71.3327 32.9821 71.4285 33.4699 71.6201 33.9259C71.8224 34.3819 72.0939 34.7795 72.4346 35.1189C72.7753 35.4582 73.1693 35.7286 73.6164 35.9301C74.0743 36.121 74.564 36.2164 75.0857 36.2164C75.6074 36.2164 76.0919 36.121 76.539 35.9301C76.9968 35.7286 77.3961 35.4582 77.7368 35.1189C78.0775 34.7795 78.3437 34.3819 78.5353 33.9259C78.7376 33.4699 78.8388 32.9821 78.8388 32.4625C78.8388 31.9535 78.7376 31.471 78.5353 31.0151C78.3437 30.5591 78.0775 30.1614 77.7368 29.8221C77.3961 29.4828 76.9968 29.2177 76.539 29.0268C76.0919 28.8253 75.6074 28.7246 75.0857 28.7246Z" fill="#CD2759"/>
<path d="M89.2782 39C88.3732 39 87.5214 38.8303 86.7229 38.491C85.9244 38.1411 85.227 37.6745 84.6308 37.0913C84.0452 36.4974 83.5767 35.8028 83.2254 35.0075C82.8847 34.2122 82.7143 33.3639 82.7143 32.4625C82.7143 31.5612 82.8847 30.7181 83.2254 29.9334C83.5767 29.1381 84.0452 28.4435 84.6308 27.8497C85.227 27.2559 85.9244 26.7893 86.7229 26.45C87.5214 26.1 88.3732 25.9251 89.2782 25.9251C90.1832 25.9251 91.0349 26.1 91.8335 26.45C92.632 26.7893 93.324 27.2559 93.9096 27.8497C94.5059 28.4435 94.9743 29.1381 95.315 29.9334C95.6664 30.7181 95.842 31.5612 95.842 32.4625C95.842 33.3639 95.6664 34.2122 95.315 35.0075C94.9743 35.8028 94.5059 36.4974 93.9096 37.0913C93.324 37.6745 92.632 38.1411 91.8335 38.491C91.0349 38.8303 90.1832 39 89.2782 39ZM89.2782 28.7246C88.7565 28.7246 88.2667 28.8253 87.8089 29.0268C87.3617 29.2177 86.9678 29.4828 86.6271 29.8221C86.2864 30.1614 86.0149 30.5591 85.8126 31.0151C85.621 31.471 85.5251 31.9535 85.5251 32.4625C85.5251 32.9821 85.621 33.4699 85.8126 33.9259C86.0149 34.3819 86.2864 34.7795 86.6271 35.1189C86.9678 35.4582 87.3617 35.7286 87.8089 35.9301C88.2667 36.121 88.7565 36.2164 89.2782 36.2164C89.7999 36.2164 90.2843 36.121 90.7315 35.9301C91.1893 35.7286 91.5886 35.4582 91.9293 35.1189C92.27 34.7795 92.5362 34.3819 92.7278 33.9259C92.9301 33.4699 93.0312 32.9821 93.0312 32.4625C93.0312 31.9535 92.9301 31.471 92.7278 31.0151C92.5362 30.5591 92.27 30.1614 91.9293 29.8221C91.5886 29.4828 91.1893 29.2177 90.7315 29.0268C90.2843 28.8253 89.7999 28.7246 89.2782 28.7246Z" fill="#CD2759"/>
<path d="M102.282 38.9841C101.91 38.9947 101.516 38.9576 101.101 38.8728C100.685 38.7879 100.26 38.6448 99.823 38.4433C99.3972 38.2418 98.9606 37.9767 98.5135 37.648C98.0663 37.3086 97.6298 36.8845 97.2039 36.3755L99.1523 34.419L100.142 35.4052C100.643 35.8294 101.138 36.0945 101.628 36.2005C102.128 36.3065 102.575 36.3172 102.969 36.2323C103.374 36.1475 103.699 35.999 103.943 35.7869C104.199 35.5749 104.327 35.3628 104.327 35.1507C104.327 34.9916 104.3 34.8485 104.247 34.7212C104.204 34.594 104.098 34.4773 103.927 34.3713C103.757 34.2546 103.512 34.1486 103.193 34.0532C102.873 33.9577 102.437 33.8623 101.883 33.7668C101.585 33.7138 101.26 33.6555 100.909 33.5919C100.568 33.5176 100.222 33.4222 99.871 33.3056C99.5303 33.1783 99.1949 33.0246 98.8648 32.8443C98.5454 32.6534 98.2579 32.4201 98.0024 32.1444C97.7469 31.8581 97.5446 31.5188 97.3955 31.1264C97.2465 30.7234 97.172 30.2516 97.172 29.7107C97.172 29.0215 97.3742 28.4117 97.7788 27.8815C98.1941 27.3407 98.7424 26.8847 99.4238 26.5136C99.8603 26.2697 100.377 26.1 100.973 26.0046C101.569 25.8985 102.203 25.9092 102.873 26.0364C103.555 26.153 104.252 26.4022 104.966 26.784C105.69 27.1551 106.392 27.696 107.074 28.4064L105.253 30.4902L104.215 29.5835C103.693 29.1593 103.177 28.8889 102.666 28.7723C102.165 28.6556 101.713 28.6344 101.308 28.7087C100.904 28.7723 100.574 28.9048 100.318 29.1063C100.073 29.3078 99.9508 29.5093 99.9508 29.7107C99.9508 29.891 99.9721 30.0448 100.015 30.172C100.068 30.2993 100.174 30.4159 100.334 30.522C100.504 30.6174 100.749 30.7075 101.069 30.7924C101.388 30.8666 101.819 30.9514 102.362 31.0469C102.81 31.1317 103.305 31.2377 103.848 31.365C104.401 31.4922 104.918 31.699 105.397 31.9853C105.876 32.2717 106.28 32.6693 106.61 33.1783C106.941 33.6767 107.106 34.3342 107.106 35.1507C107.106 35.893 106.882 36.5663 106.435 37.1708C105.998 37.7646 105.386 38.2206 104.598 38.5387C103.906 38.8356 103.134 38.9841 102.282 38.9841Z" fill="#CD2759"/>
<path d="M115.986 35.9937V38.7932H113.446C112.733 38.7932 112.062 38.6607 111.434 38.3956C110.806 38.1199 110.252 37.7487 109.773 37.2821C109.305 36.8049 108.932 36.2535 108.655 35.6279C108.389 35.0022 108.256 34.3289 108.256 33.6078V24.7639H111.051V27.2612H114.293V30.0607H111.051V33.6078C111.051 33.9365 111.115 34.2493 111.243 34.5463C111.37 34.8326 111.541 35.0818 111.754 35.2938C111.977 35.5059 112.233 35.6756 112.52 35.8028C112.808 35.9301 113.116 35.9937 113.446 35.9937H115.986Z" fill="#CD2759"/>
<path d="M119.013 33.8623C119.151 34.2122 119.332 34.5303 119.556 34.8167C119.79 35.103 120.056 35.3522 120.354 35.5642C120.663 35.7657 120.998 35.9248 121.36 36.0414C121.722 36.1581 122.1 36.2164 122.494 36.2164C123.186 36.2164 123.809 36.052 124.363 35.7233C124.927 35.384 125.38 34.9386 125.72 34.3872L128.116 35.8347C127.828 36.3118 127.482 36.7466 127.078 37.139C126.684 37.5207 126.247 37.8494 125.768 38.1252C125.289 38.4009 124.773 38.6183 124.219 38.7773C123.665 38.9258 123.09 39 122.494 39C121.589 39 120.737 38.8303 119.939 38.491C119.14 38.1411 118.443 37.6745 117.847 37.0913C117.261 36.4974 116.793 35.8028 116.441 35.0075C116.101 34.2122 115.93 33.3639 115.93 32.4625C115.93 31.5612 116.101 30.7181 116.441 29.9334C116.793 29.1381 117.261 28.4435 117.847 27.8497C118.443 27.2559 119.14 26.7893 119.939 26.45C120.737 26.1 121.589 25.9251 122.494 25.9251C123.399 25.9251 124.251 26.1 125.049 26.45C125.848 26.7893 126.54 27.2559 127.126 27.8497C127.722 28.4435 128.19 29.1381 128.531 29.9334C128.882 30.7181 129.058 31.5612 129.058 32.4625C129.058 32.9715 129.005 33.4381 128.898 33.8623H119.013ZM125.976 31.0787C125.837 30.7287 125.651 30.4106 125.417 30.1243C125.183 29.838 124.916 29.5941 124.618 29.3926C124.32 29.1805 123.99 29.0162 123.628 28.8995C123.266 28.7829 122.888 28.7246 122.494 28.7246C122.1 28.7246 121.722 28.7829 121.36 28.8995C120.998 29.0162 120.663 29.1805 120.354 29.3926C120.056 29.5941 119.79 29.838 119.556 30.1243C119.332 30.4106 119.151 30.7287 119.013 31.0787H125.976Z" fill="#CD2759"/>
<path d="M133.081 28.1678C133.688 27.4892 134.412 26.9537 135.253 26.5613C136.094 26.1583 137.01 25.9569 138 25.9569V28.7405C137.478 28.7405 136.93 28.8412 136.355 29.0427C135.78 29.2336 135.248 29.4987 134.758 29.838C134.279 30.1773 133.88 30.575 133.56 31.031C133.241 31.4869 133.081 31.9694 133.081 32.4784V38.7773H130.27V26.2114H133.081V28.1678Z" fill="#CD2759"/>
<defs>
<linearGradient id="paint0_linear_128_1939" x1="22" y1="0" x2="22" y2="40" gradientUnits="userSpaceOnUse">
<stop stop-color="#FCAC75"/>
<stop offset="1" stop-color="#EC6F73"/>
</linearGradient>
</defs>
</svg>
