<svg width="38" height="38" viewBox="0 0 38 38" fill="none" xmlns="http://www.w3.org/2000/svg">
<path d="M18.9855 3.16602C10.2455 3.16602 3.16797 10.2593 3.16797 18.9993C3.16797 27.7393 10.2455 34.8327 18.9855 34.8327C27.7413 34.8327 34.8346 27.7393 34.8346 18.9993C34.8346 10.2593 27.7413 3.16602 18.9855 3.16602ZM19.0013 31.666C12.003 31.666 6.33464 25.9977 6.33464 18.9993C6.33464 12.001 12.003 6.33268 19.0013 6.33268C25.9996 6.33268 31.668 12.001 31.668 18.9993C31.668 25.9977 25.9996 31.666 19.0013 31.666Z" fill="#028E7F"/>
<path d="M19.793 11.084H17.418V20.584L25.7305 25.5715L26.918 23.624L19.793 19.3965V11.084Z" fill="#028E7F"/>
</svg>
