<svg width="41" height="41" viewBox="0 0 41 41" fill="none" xmlns="http://www.w3.org/2000/svg">
<path d="M22.1854 3.33667C17.5785 3.33667 13.8438 7.07137 13.8438 11.6783C13.8438 12.5997 14.5907 13.3467 15.5121 13.3467C16.4335 13.3467 17.1804 12.5997 17.1804 11.6783C17.1804 8.91416 19.4212 6.67334 22.1854 6.67334H28.8588C31.623 6.67334 33.8638 8.91416 33.8638 11.6783V28.3617C33.8638 31.1259 31.623 33.3667 28.8588 33.3667H22.1854C19.4212 33.3667 17.1804 31.1259 17.1804 28.3617C17.1804 27.4402 16.4335 26.6933 15.5121 26.6933C14.5907 26.6933 13.8438 27.4402 13.8438 28.3617C13.8438 32.9686 17.5785 36.7033 22.1854 36.7033H28.8588C33.4657 36.7033 37.2004 32.9686 37.2004 28.3617V11.6783C37.2004 7.07137 33.4657 3.33667 28.8588 3.33667H22.1854Z" fill="white"/>
<path d="M5.50427 18.3517C4.58288 18.3517 3.83594 19.0986 3.83594 20.02C3.83594 20.9414 4.58288 21.6883 5.50427 21.6883H19.3216C19.1731 21.8715 19.0308 22.0492 18.8961 22.2189C18.4866 22.7355 18.1399 23.1892 17.895 23.5143C17.7725 23.6771 17.6751 23.8079 17.608 23.899L17.5303 24.0046L17.5094 24.0332L17.5021 24.0432C17.5019 24.0433 17.5013 24.0443 18.8509 25.025L17.5021 24.0432C16.9605 24.7886 17.1249 25.8331 17.8703 26.3747C18.6157 26.9162 19.6589 26.7511 20.2006 26.0058L20.2053 25.9993L20.2223 25.9759L20.292 25.8812C20.3536 25.7978 20.4447 25.6751 20.5605 25.5213C20.7924 25.2135 21.1219 24.7824 21.5106 24.2919C22.2969 23.3004 23.2925 22.1086 24.2014 21.1997L25.3811 20.02L24.2014 18.8403C23.2925 17.9314 22.2969 16.7396 21.5106 15.748C21.1219 15.2576 20.7924 14.8265 20.5605 14.5187C20.4447 14.3649 20.3536 14.2423 20.292 14.1588L20.2223 14.0641L20.2053 14.0407L20.2015 14.0354C19.6597 13.29 18.6157 13.1237 17.8703 13.6653C17.1249 14.2069 16.9596 15.2502 17.5013 15.9956L18.8509 15.015C17.5013 15.9956 17.5011 15.9955 17.5013 15.9956L17.5038 15.9991L17.5094 16.0069L17.5303 16.0354L17.608 16.141C17.6751 16.232 17.7725 16.3629 17.895 16.5257C18.1399 16.8508 18.4866 17.3044 18.8961 17.8211C19.0308 17.9908 19.1731 18.1685 19.3216 18.3517H5.50427Z" fill="white"/>
</svg>
