<svg width="48" height="48" viewBox="0 0 48 48" fill="none" xmlns="http://www.w3.org/2000/svg">
<g id="File / File_Blank">
<path id="Vector" d="M26 6.00174C25.809 6 25.5946 6 25.3494 6H16.4004C14.1602 6 13.0392 6 12.1836 6.43597C11.4309 6.81947 10.8195 7.43095 10.436 8.18359C10 9.03924 10 10.1602 10 12.4004V35.6004C10 37.8406 10 38.9601 10.436 39.8158C10.8195 40.5684 11.4309 41.181 12.1836 41.5645C13.0384 42 14.158 42 16.3939 42L31.6062 42C33.842 42 34.96 42 35.8148 41.5645C36.5674 41.181 37.181 40.5684 37.5645 39.8158C38 38.961 38 37.843 38 35.6072V18.6514C38 18.4059 37.9999 18.1912 37.9981 18M26 6.00174C26.5713 6.00694 26.9327 6.02769 27.2777 6.11052C27.6858 6.20851 28.0757 6.37053 28.4336 6.58984C28.8371 6.83713 29.1836 7.18364 29.875 7.875L36.126 14.126C36.8178 14.8178 37.1617 15.1627 37.4091 15.5664C37.6284 15.9243 37.7907 16.3145 37.8887 16.7227C37.9715 17.0675 37.9927 17.429 37.9981 18M26 6.00174V11.6C26 13.8402 26 14.9595 26.436 15.8152C26.8195 16.5678 27.4309 17.181 28.1836 17.5645C29.0384 18 30.158 18 32.3938 18H37.9981M37.9981 18H38.0004" stroke="#CD2759" stroke-width="2" stroke-linecap="round" stroke-linejoin="round"/>
</g>
</svg>
