<svg width="101" height="100" viewBox="0 0 101 100" fill="none" xmlns="http://www.w3.org/2000/svg">
<path d="M39.5625 18.75H48.9375C49.8 18.75 50.5 18.05 50.5 17.1875V12.5C50.5 9.05312 47.6969 6.25 44.25 6.25C40.8031 6.25 38 9.05312 38 12.5V17.1875C38 18.05 38.7 18.75 39.5625 18.75ZM41.125 12.5C41.125 10.7781 42.5281 9.375 44.25 9.375C45.9719 9.375 47.375 10.7781 47.375 12.5V15.625H41.125V12.5Z" fill="#0B1719"/>
<path d="M86.1687 19.9406L72.9094 6.68124C70.55 4.31874 66.4313 4.31874 64.0719 6.68124C62.8906 7.85936 62.2406 9.42811 62.2406 11.1C62.2406 12.7687 62.8906 14.3375 64.0719 15.5187L65.1781 16.625C65.7875 17.2344 65.7875 18.225 65.2062 18.8094L58.8938 24.8156C57.8219 25.8375 57.3062 27.2656 57.4781 28.7281C57.6594 30.225 58.5188 31.5219 59.8375 32.2812C70.7438 38.5719 76.7562 50.6969 75.25 63.2531C73.5312 77.4437 62.0469 88.85 47.8156 90.425C38.7719 91.4344 30.1125 88.6656 23.4062 82.6594C16.7937 76.7344 13 68.2437 13 59.3719C13 43.35 24.9969 29.9906 40.9062 28.3C41.3844 28.25 41.8187 28.3937 42.1687 28.7062C42.5031 29.0062 42.6875 29.4219 42.6875 29.8687V56.4156C42.6875 59 44.7906 61.1031 47.375 61.1031H58.3125C59.175 61.1031 59.875 60.4031 59.875 59.5406C59.875 58.6781 59.175 57.9781 58.3125 57.9781H47.375C46.5125 57.9781 45.8125 57.2781 45.8125 56.4156V29.8687C45.8125 28.5437 45.2437 27.2719 44.2562 26.3812C43.2562 25.4844 41.8969 25.0531 40.575 25.1906C23.075 27.0531 9.875 41.7469 9.875 59.3719C9.875 69.1344 14.0469 78.4719 21.325 84.9875C27.7125 90.7062 35.7188 93.75 44.1938 93.75C45.5063 93.75 46.8312 93.6781 48.1625 93.5312C63.6813 91.8156 76.2188 79.4719 78.2906 64.0531L78.3156 64.0562C78.3344 63.9187 78.3375 63.7844 78.3531 63.6469C78.3656 63.5344 78.3938 63.4219 78.4062 63.3094L78.3844 63.3062C79.9 49.6187 73.3063 36.4406 61.4031 29.575C60.9438 29.3094 60.6437 28.8656 60.5844 28.3562C60.55 28.075 60.5687 27.5375 61.05 27.0781L67.3875 21.0437C68.2719 20.1594 68.7594 18.9812 68.7594 17.7281C68.7594 16.4781 68.2719 15.3 67.3875 14.4125L66.2812 13.3094C65.6906 12.7187 65.3656 11.9344 65.3656 11.1C65.3656 10.2656 65.6906 9.48124 66.2812 8.89061C67.4625 7.70936 69.5188 7.70936 70.7 8.89061L83.9594 22.15C84.55 22.7406 84.875 23.525 84.875 24.3594C84.875 25.1937 84.55 25.9781 83.9594 26.5687C82.7406 27.7875 80.7594 27.7875 79.5406 26.5687L78.4344 25.4625C76.6062 23.6344 73.6312 23.6375 71.8031 25.4625L69.7062 27.5625C69.0969 28.1719 69.0969 29.1625 69.7062 29.7719C70.3156 30.3812 71.3063 30.3812 71.9156 29.7719L74.0125 27.675C74.6219 27.0656 75.6125 27.0625 76.225 27.675L77.3313 28.7812C79.7656 31.2187 83.7344 31.2187 86.1687 28.7812C87.35 27.5969 88 26.0281 88 24.3594C88 22.6875 87.35 21.1187 86.1687 19.9406Z" fill="#0B1719"/>
<path d="M39.5625 18.75H48.9375C49.8 18.75 50.5 18.05 50.5 17.1875V12.5C50.5 9.05312 47.6969 6.25 44.25 6.25C40.8031 6.25 38 9.05312 38 12.5V17.1875C38 18.05 38.7 18.75 39.5625 18.75ZM41.125 12.5C41.125 10.7781 42.5281 9.375 44.25 9.375C45.9719 9.375 47.375 10.7781 47.375 12.5V15.625H41.125V12.5Z" fill="#0B1719"/>
<path d="M86.1687 19.9406L72.9094 6.68124C70.55 4.31874 66.4313 4.31874 64.0719 6.68124C62.8906 7.85936 62.2406 9.42811 62.2406 11.1C62.2406 12.7687 62.8906 14.3375 64.0719 15.5187L65.1781 16.625C65.7875 17.2344 65.7875 18.225 65.2062 18.8094L58.8938 24.8156C57.8219 25.8375 57.3062 27.2656 57.4781 28.7281C57.6594 30.225 58.5188 31.5219 59.8375 32.2812C70.7438 38.5719 76.7562 50.6969 75.25 63.2531C73.5312 77.4437 62.0469 88.85 47.8156 90.425C38.7719 91.4344 30.1125 88.6656 23.4062 82.6594C16.7937 76.7344 13 68.2437 13 59.3719C13 43.35 24.9969 29.9906 40.9062 28.3C41.3844 28.25 41.8187 28.3937 42.1687 28.7062C42.5031 29.0062 42.6875 29.4219 42.6875 29.8687V56.4156C42.6875 59 44.7906 61.1031 47.375 61.1031H58.3125C59.175 61.1031 59.875 60.4031 59.875 59.5406C59.875 58.6781 59.175 57.9781 58.3125 57.9781H47.375C46.5125 57.9781 45.8125 57.2781 45.8125 56.4156V29.8687C45.8125 28.5437 45.2437 27.2719 44.2562 26.3812C43.2562 25.4844 41.8969 25.0531 40.575 25.1906C23.075 27.0531 9.875 41.7469 9.875 59.3719C9.875 69.1344 14.0469 78.4719 21.325 84.9875C27.7125 90.7062 35.7188 93.75 44.1938 93.75C45.5063 93.75 46.8312 93.6781 48.1625 93.5312C63.6813 91.8156 76.2188 79.4719 78.2906 64.0531L78.3156 64.0562C78.3344 63.9187 78.3375 63.7844 78.3531 63.6469C78.3656 63.5344 78.3938 63.4219 78.4062 63.3094L78.3844 63.3062C79.9 49.6187 73.3063 36.4406 61.4031 29.575C60.9438 29.3094 60.6437 28.8656 60.5844 28.3562C60.55 28.075 60.5687 27.5375 61.05 27.0781L67.3875 21.0437C68.2719 20.1594 68.7594 18.9812 68.7594 17.7281C68.7594 16.4781 68.2719 15.3 67.3875 14.4125L66.2812 13.3094C65.6906 12.7187 65.3656 11.9344 65.3656 11.1C65.3656 10.2656 65.6906 9.48124 66.2812 8.89061C67.4625 7.70936 69.5188 7.70936 70.7 8.89061L83.9594 22.15C84.55 22.7406 84.875 23.525 84.875 24.3594C84.875 25.1937 84.55 25.9781 83.9594 26.5687C82.7406 27.7875 80.7594 27.7875 79.5406 26.5687L78.4344 25.4625C76.6062 23.6344 73.6312 23.6375 71.8031 25.4625L69.7062 27.5625C69.0969 28.1719 69.0969 29.1625 69.7062 29.7719C70.3156 30.3812 71.3063 30.3812 71.9156 29.7719L74.0125 27.675C74.6219 27.0656 75.6125 27.0625 76.225 27.675L77.3313 28.7812C79.7656 31.2187 83.7344 31.2187 86.1687 28.7812C87.35 27.5969 88 26.0281 88 24.3594C88 22.6875 87.35 21.1187 86.1687 19.9406Z" fill="#0B1719"/>
</svg>
