<svg width="101" height="102" viewBox="0 0 101 102" fill="none" xmlns="http://www.w3.org/2000/svg">
<g clip-path="url(#clip0_125_7013)">
<path d="M94.47 67.9852L91.633 64.0789L88.2425 63.1998L86.9055 65.6929L84.9569 65.588L84.384 57.4976L86.7524 52.4456L88.7106 51.4422L86.7909 46.1421L88.147 42.8945L89.6562 43.802L92.6931 49.8383L94.3647 51.0417L100.22 52.4833L95.5301 44.4705L92.7126 44.7568L90.764 43.0375L90.7734 38.6156L88.5098 32.9324L85.6158 31.1843L84.4698 29.0354L86.0742 26.8099L83.2854 25.0719L82.7695 27.8129L79.083 31.6905L77.8318 35.473L78.3189 37.4409L74.9377 40.9553L74.0019 43.5246L71.8623 43.706L69.1594 46.0943L69.589 48.0614L67.106 51.4523L65.3101 49.5038L63.2567 51.2041L58.3092 52.2452L58.2296 52.3971L57.6504 48.7012L55.7975 48.8353L49.9519 51.3944L48.6816 53.7349L46.2464 53.935L44.9761 55.4162L42.6453 55.645L41.1556 53.8204L37.5545 57.5453L30.9359 54.0624L21.9003 52.0249L20.3818 52.7797L22.1582 49.0357L22.1466 48.9941L23.2471 51.6908L26.1031 51.624L25.3483 45.5594L23.1613 45.3873L17.7935 49.4269L17.3351 50.9174L13.1518 51.8629L11.2798 51.213L7.94638 53.4863L8.47158 55.7025L5.39613 62.3976L6.80974 67.2309L3.08478 68.3861L0.773438 68.6348L1.10751 72.8752L4.04001 77.9947L4.72759 80.8888L7.02922 76.7338L8.24239 76.3997L10.2865 76.8771L10.3723 72.7699L12.5116 71.6527L17.8859 72.6507L22.9297 77.9108L25.9213 75.3489L33.6676 76.82L35.3485 80.0097L37.5262 79.6566L40.4392 84.8616L44.3075 85.6066L47.383 87.9281L51.6522 85.8075L57.1248 86.6574L58.2137 83.2572L61.3944 83.7537L63.1328 84.9956L67.0197 84.1363L70.1624 84.2027L72.8078 81.4614L76.3036 80.8888L76.9434 79.2363L77.1632 74.3362L80.2674 72.9801L84.1451 75.387L87.3351 74.4224L88.6819 75.3489L90.5729 72.3403L91.9007 74.2791L93.171 79.2934L94.7943 78.6629L95.6637 76.3329L94.47 67.9852Z" fill="black"/>
</g>
<defs>
<clipPath id="clip0_125_7013">
<rect width="101" height="101" fill="white" transform="translate(0 0.5)"/>
</clipPath>
</defs>
</svg>
