<svg width="91" height="90" viewBox="0 0 91 90" fill="none" xmlns="http://www.w3.org/2000/svg">
<path d="M45.4984 74.5291C61.8072 74.5291 75.0281 61.3082 75.0281 44.9995C75.0281 28.6907 61.8072 15.4698 45.4984 15.4698C29.1896 15.4698 15.9688 28.6907 15.9688 44.9995C15.9688 61.3082 29.1896 74.5291 45.4984 74.5291Z" fill="#F5F5F5"/>
<path d="M45.5 0C44.1678 0 43.0878 1.07999 43.0878 2.41221C43.0878 3.74443 44.6622 3.46111 45.9944 3.46111C56.8722 3.46111 66.0726 6.92222 73.6833 14.8333L66.7611 21.2611C61.0335 16.332 53.1359 12.8862 45.5 12.8862C37.6506 12.8862 30.4609 15.7629 24.9274 20.5159L17.5213 13.1101C17.5083 13.0971 17.4939 13.086 17.4805 13.0733C17.4681 13.0602 17.4575 13.0465 17.4448 13.0336C16.5032 12.0917 14.9754 12.0917 14.0336 13.0336C5.6287 21.4386 1 32.6136 1 44.5C1 69.0374 20.9626 89 45.5 89C57.3864 89 68.5613 84.3713 76.9664 75.9664C85.3713 67.5614 90 56.3864 90 44.5C90 19.9626 70.0374 0 45.5 0ZM65.2778 24.7222C66.2192 25.6649 66.9233 26.5126 67.8659 25.5708C68.8086 24.629 67.9991 25.4269 68.0587 25.3511C68.0638 25.3461 68.0693 25.3419 68.0744 25.3368L75.6611 17.3056C81.3686 23.7466 85.4945 33.8903 86.0444 43.0167H82.4161C81.0838 43.0167 80.0038 43.1678 80.0038 44.5C80.0038 45.8322 80.7567 46.4778 82.0889 46.4778L86.0444 46.9122C85.5148 55.8025 82.0671 65.5276 76.1556 72.1889L69.2333 65.7611C73.9865 60.2276 77.1132 52.3497 77.1132 44.5002C77.1132 43.168 76.0333 42.088 74.701 42.088C73.3688 42.088 73.6833 43.168 73.6833 44.5002C73.6833 59.2717 60.2716 72.1889 45.4997 72.1889C30.7277 72.1889 17.5213 59.2719 17.5213 44.5002C17.5213 37.1168 20.8743 29.5727 25.7222 24.7222C30.5735 19.8684 38.1112 16.3167 45.4997 16.3167C52.6619 16.3167 60.2166 19.6548 65.2778 24.7222ZM45.5 78.7718C44.1678 78.7718 43.5222 79.8518 43.5222 81.184V85.0444C34.3959 84.4943 23.9622 79.874 17.5213 74.1667L24.2389 68.2333C29.7724 72.9865 37.6504 76.1139 45.5 76.1139C53.3496 76.1139 60.7332 72.9863 66.2667 68.2333L73.1889 75.1556C66.528 81.0673 55.8736 84.5151 46.9833 85.0444V81.184C46.9835 79.8516 46.8322 78.7718 45.5 78.7718ZM4.46111 46.4778H14.0336C14.557 53.384 17.9994 60.7999 22.2611 65.7611L15.3389 72.1889C9.63159 65.748 5.01128 55.6041 4.46111 46.4778ZM15.3389 16.3167L22.2611 23.2389C17.9994 28.2003 14.5572 35.1818 14.0336 42.088H4.46111C4.99077 33.1979 9.42717 22.9779 15.3389 16.3167Z" fill="#212529"/>
<path d="M48.8666 47.5745C54.2558 47.5745 58.626 43.1262 58.4979 37.7085C58.3735 32.449 53.9469 28.3067 48.686 28.3067H38.7276C38.1552 28.3067 37.6914 28.7705 37.6914 29.3429V30.7106V42.7668H32.5518C31.9794 42.7668 31.5156 43.2305 31.5156 43.803V46.5381C31.5156 47.1106 31.9794 47.5743 32.5518 47.5743H37.6914V50.3655H32.5518C31.9794 50.3655 31.5156 50.8293 31.5156 51.4017V54.1369C31.5156 54.7093 31.9794 55.173 32.5518 55.173H37.6914V59.6404C37.6914 60.2221 38.1628 60.6933 38.7443 60.6933H41.4459C42.0275 60.6933 42.4988 60.2221 42.4988 59.6404V55.1734H50.8796C51.452 55.1734 51.9157 54.7095 51.9157 54.1372V51.402C51.9157 50.8296 51.452 50.3658 50.8796 50.3658H42.4988V47.5747L48.8666 47.5745ZM53.6926 37.9406C53.6926 40.6017 51.5274 42.7668 48.8665 42.7668H42.4988V33.1143H48.8665C51.5276 33.1144 53.6926 35.2793 53.6926 37.9406Z" fill="#212529"/>
</svg>
