<svg width="101" height="101" viewBox="0 0 101 101" fill="none" xmlns="http://www.w3.org/2000/svg">
<g clip-path="url(#clip0_125_6992)">
<path d="M48.5037 24.5L39.0057 18.5C39.0057 18.5 35.0674 17.802 33.5057 18C32.2805 18.1553 29.0001 19.5 29.0001 19.5C29.0001 19.5 14.2014 25.6835 17.0008 32C18.4725 35.3206 20.1622 32.7421 23.0072 35C25.8274 37.2382 32.0037 42.5 32.0037 42.5M48.5037 24.5L63.0001 10C63.0001 10 66.1528 7.21181 67 7.00002C67.9472 6.76323 72.5 6.5 72.5 6.5L88.0037 7.00002C88.0037 7.00002 89.2975 7.4864 90.0037 8.00002C90.7099 8.51363 91.5037 9.50002 91.5037 9.50002L92.5037 29.5C92.5037 29.5 92.233 30.4267 92.0037 31C91.6794 31.8108 91.0037 33 91.0037 33L74.5037 50.5M48.5037 24.5L32.0037 42.5M74.5037 50.5L79.5037 58.5C79.5037 58.5 80.9708 61.509 81.0057 63.5C81.044 65.6828 79.5037 69 79.5037 69C79.5037 69 72.1523 84.9831 66.5072 81.5C64.1105 80.0213 65.6865 77.758 64.0037 75.5C61.3583 71.9504 56.5037 67 56.5037 67M74.5037 50.5L56.5037 67M56.5037 67C56.5037 67 54.6896 67.5661 53.5037 67.5C51.5836 67.393 50.3629 66.8605 49.0037 65.5C45.5072 62 41.5072 58 41.5072 58M41.5072 58L48.5037 50.5M41.5072 58C41.5072 58 36.0072 52.5 32.0037 48.5C31.027 47.5241 31.4271 46.3786 31.5037 45C31.5589 44.0059 32.0037 42.5 32.0037 42.5" stroke="black" stroke-width="3" stroke-linecap="round"/>
<path d="M21.5022 53.5C21.5022 53.5 17 58 14.0022 61C14.0022 61 10.1911 62.327 8.50222 61C6.35269 59.3111 8.50222 54 8.50222 54M61.9986 29.5C62.1367 25.4959 65.4946 22.3619 69.4986 22.5C73.3623 22.6332 76.3654 25.6363 76.4986 29.5C76.6367 33.5041 73.5027 36.8619 69.4986 37C65.359 37.1427 61.8559 33.6397 61.9986 29.5Z" stroke="black" stroke-width="3" stroke-linecap="round"/>
<path d="M29.5 57.5L20 67" stroke="black" stroke-width="3" stroke-linecap="round"/>
<path d="M28 71L20 79" stroke="black" stroke-width="3" stroke-linecap="round"/>
<path d="M42 69L32.5 78.5" stroke="black" stroke-width="3" stroke-linecap="round"/>
<path d="M45.4997 77.5L37.9997 85C37.9997 85 36.6294 89.7727 38.4997 91.5C40.3646 93.2222 44.9997 91.5 44.9997 91.5" stroke="black" stroke-width="3" stroke-linecap="round"/>
</g>
<defs>
<clipPath id="clip0_125_6992">
<rect width="101" height="101" fill="white"/>
</clipPath>
</defs>
</svg>
