<svg width="101" height="101" viewBox="0 0 101 101" fill="none" xmlns="http://www.w3.org/2000/svg">
<path d="M75.2578 13.5629V45.2428" stroke="black" stroke-width="3" stroke-linecap="round" stroke-linejoin="round"/>
<path d="M87.9377 32.5711L75.2657 45.2432L62.5938 32.5711" stroke="black" stroke-width="3" stroke-linecap="round" stroke-linejoin="round"/>
<path d="M45.8752 17.7211H27.7384C23.5374 17.7211 19.5087 19.3902 16.5381 22.3607C13.5675 25.3313 11.8984 29.36 11.8984 33.5611V73.1612C11.8984 77.362 13.5675 81.3909 16.5381 84.3613C19.5087 87.332 23.5374 89.0012 27.7384 89.0012H75.2584C79.4596 89.0012 83.4885 87.332 86.4589 84.3613C89.4297 81.3909 91.0984 77.362 91.0984 73.1612V57.0436" stroke="black" stroke-width="3" stroke-linecap="round" stroke-linejoin="round"/>
<path d="M11.8984 41.4811H25.2439C28.3946 41.4811 31.4162 42.7326 33.6441 44.9605C35.872 47.1884 37.1239 50.2102 37.1239 53.3612C37.1239 56.5118 35.872 59.5337 33.6441 61.7615C31.4162 63.9894 28.3946 65.2412 25.2439 65.2412H11.8984" stroke="black" stroke-width="3" stroke-linecap="round" stroke-linejoin="round"/>
</svg>
