<svg width="101" height="101" viewBox="0 0 101 101" fill="none" xmlns="http://www.w3.org/2000/svg">
<path d="M35.5001 77C22.2672 71.8774 14.964 61.1898 15.0001 47C15.0451 29.327 29.33 15.3255 47.0001 15C60.762 14.7465 69.5 21 77.0001 33.5M77.0001 33.5C77.0001 33.5 78.5357 32.1608 79 31C81 26 80 20.5 80 20.5M77.0001 33.5C77.0001 33.5 75.2708 34.6823 74 35C68 36.5 64 35 64 35M35 47H47.0001V32" stroke="black" stroke-width="3" stroke-linecap="round" stroke-linejoin="round"/>
<path d="M46.9968 65C46.8712 61.8239 49.3217 59.1505 52.4968 59C55.5435 58.8556 57.7939 61.032 58.4968 64C59.3968 67.8001 52.4968 72 52.4968 72C52.4968 72 50.0143 73.5149 48.9968 75C48.0539 76.3763 47.4968 79 47.4968 79H57.9968" stroke="black" stroke-width="3" stroke-linecap="round"/>
<path d="M67.5 59V65.5C67.5 65.5 68.2413 68.0545 69.5 69C70.6366 69.8537 70.4974 70 73 70C75.5026 70 79 70 79 70V59V79" stroke="black" stroke-width="3" stroke-linecap="round"/>
</svg>
