<svg width="95" height="96" viewBox="0 0 95 96" fill="none" xmlns="http://www.w3.org/2000/svg">
<path d="M24 28.2083V32.1667M24 67.7917V48" stroke="#212529" stroke-width="3" stroke-linecap="round"/>
<path d="M43.5859 48C43.5859 41.4414 48.8464 36.125 55.3359 36.125C61.8255 36.125 67.0859 41.4414 67.0859 48C67.0859 54.5586 61.8255 59.875 55.3359 59.875C48.8464 59.875 43.5859 54.5586 43.5859 48Z" stroke="#212529" stroke-width="3"/>
<path d="M49.4609 37.7137C51.1894 36.7033 53.1959 36.125 55.3359 36.125C61.8255 36.125 67.0859 41.4414 67.0859 48C67.0859 54.5586 61.8255 59.875 55.3359 59.875C48.8464 59.875 43.5859 54.5586 43.5859 48C43.5859 45.8372 44.1582 43.8093 45.1577 42.0625" stroke="#212529" stroke-width="3" stroke-linecap="round"/>
<path d="M65.125 38.1042L71 32.1667" stroke="#212529" stroke-width="3" stroke-linecap="round"/>
<path d="M39.6641 63.8333L45.5391 57.8958" stroke="#212529" stroke-width="3" stroke-linecap="round"/>
<path d="M45.5391 38.1042L39.6641 32.1667" stroke="#212529" stroke-width="3" stroke-linecap="round"/>
<path d="M71 63.8333L65.125 57.8958" stroke="#212529" stroke-width="3" stroke-linecap="round"/>
<path d="M86.6693 48C86.6693 66.6596 86.6693 75.9898 80.9333 81.7863C75.1977 87.5833 65.9658 87.5833 47.5026 87.5833C29.0392 87.5833 19.8076 87.5833 14.0718 81.7863C8.33594 75.9898 8.33594 66.6596 8.33594 48C8.33594 29.3402 8.33594 20.0103 14.0718 14.2135C19.8076 8.41666 29.0392 8.41666 47.5026 8.41666C65.9658 8.41666 75.1977 8.41666 80.9333 14.2135C84.7474 18.0679 86.0254 23.4843 86.4535 32.1667" stroke="#212529" stroke-width="3" stroke-linecap="round"/>
</svg>
