<svg width="12" height="12" viewBox="0 0 12 12" fill="none" xmlns="http://www.w3.org/2000/svg">
<path d="M10.9688 11.6074C9.66667 11.6074 8.38021 11.3236 7.10938 10.7559C5.83854 10.1882 4.68229 9.38346 3.64062 8.3418C2.59896 7.30013 1.79427 6.14388 1.22656 4.87305C0.658854 3.60221 0.375 2.31576 0.375 1.01367C0.375 0.826172 0.4375 0.669922 0.5625 0.544922C0.6875 0.419922 0.84375 0.357422 1.03125 0.357422H3.5625C3.70833 0.357422 3.83854 0.406901 3.95312 0.505859C4.06771 0.604818 4.13542 0.722005 4.15625 0.857422L4.5625 3.04492C4.58333 3.21159 4.57812 3.35221 4.54688 3.4668C4.51562 3.58138 4.45833 3.68034 4.375 3.76367L2.85938 5.29492C3.06771 5.68034 3.3151 6.05273 3.60156 6.41211C3.88802 6.77148 4.20312 7.11784 4.54688 7.45117C4.86979 7.77409 5.20833 8.07357 5.5625 8.34961C5.91667 8.62565 6.29167 8.87825 6.6875 9.10742L8.15625 7.63867C8.25 7.54492 8.3724 7.47461 8.52344 7.42773C8.67448 7.38086 8.82292 7.36784 8.96875 7.38867L11.125 7.82617C11.2708 7.86784 11.3906 7.94336 11.4844 8.05273C11.5781 8.16211 11.625 8.28451 11.625 8.41992V10.9512C11.625 11.1387 11.5625 11.2949 11.4375 11.4199C11.3125 11.5449 11.1563 11.6074 10.9688 11.6074ZM2.26562 4.10742L3.29688 3.07617L3.03125 1.60742H1.64062C1.69271 2.03451 1.76562 2.45638 1.85938 2.87305C1.95312 3.28971 2.08854 3.70117 2.26562 4.10742ZM7.85938 9.70117C8.26563 9.87825 8.67969 10.0189 9.10156 10.123C9.52344 10.2272 9.94792 10.2949 10.375 10.3262V8.95117L8.90625 8.6543L7.85938 9.70117Z" fill="white"/>
</svg>
