<svg width="13" height="13" viewBox="0 0 13 13" fill="none" xmlns="http://www.w3.org/2000/svg">
<path d="M11.8 12.9824C10.4111 12.9824 9.03889 12.6796 7.68333 12.0741C6.32778 11.4685 5.09444 10.6102 3.98333 9.49909C2.87222 8.38798 2.01389 7.15464 1.40833 5.79909C0.802778 4.44353 0.5 3.07131 0.5 1.68242C0.5 1.48242 0.566667 1.31576 0.7 1.18242C0.833333 1.04909 1 0.982422 1.2 0.982422H3.9C4.05556 0.982422 4.19444 1.0352 4.31667 1.14076C4.43889 1.24631 4.51111 1.37131 4.53333 1.51576L4.96667 3.84909C4.98889 4.02687 4.98333 4.17687 4.95 4.29909C4.91667 4.42131 4.85556 4.52687 4.76667 4.61576L3.15 6.24909C3.37222 6.6602 3.63611 7.05742 3.94167 7.44076C4.24722 7.82409 4.58333 8.19353 4.95 8.54909C5.29444 8.89353 5.65556 9.21298 6.03333 9.50742C6.41111 9.80187 6.81111 10.0713 7.23333 10.3158L8.8 8.74909C8.9 8.64909 9.03056 8.57409 9.19167 8.52409C9.35278 8.47409 9.51111 8.4602 9.66667 8.48242L11.9667 8.94909C12.1222 8.99353 12.25 9.07409 12.35 9.19076C12.45 9.30742 12.5 9.43798 12.5 9.58242V12.2824C12.5 12.4824 12.4333 12.6491 12.3 12.7824C12.1667 12.9158 12 12.9824 11.8 12.9824ZM2.51667 4.98242L3.61667 3.88242L3.33333 2.31576H1.85C1.90556 2.77131 1.98333 3.22131 2.08333 3.66576C2.18333 4.1102 2.32778 4.54909 2.51667 4.98242ZM8.48333 10.9491C8.91667 11.138 9.35833 11.288 9.80833 11.3991C10.2583 11.5102 10.7111 11.5824 11.1667 11.6158V10.1491L9.6 9.83242L8.48333 10.9491Z" fill="#212529"/>
</svg>
