<svg width="38" height="38" viewBox="0 0 38 38" fill="none" xmlns="http://www.w3.org/2000/svg">
<path d="M11.9942 28.1147L18.7431 21.3658L25.4921 28.1147L28.1167 25.4901L21.3677 18.7412L28.1167 11.9923L25.4921 9.36766L18.7431 16.1166L11.9942 9.36766L9.36962 11.9923L16.1186 18.7412L9.36962 25.4901L11.9942 28.1147ZM18.7431 37.4882C16.1498 37.4882 13.7127 36.9961 11.4318 36.0119C9.1509 35.0277 7.16684 33.692 5.4796 32.0047C3.79237 30.3175 2.45664 28.3334 1.47242 26.0525C0.488204 23.7716 -0.00390625 21.3345 -0.00390625 18.7412C-0.00390625 16.1478 0.488204 13.7107 1.47242 11.4298C2.45664 9.14895 3.79237 7.16489 5.4796 5.47765C7.16684 3.79042 9.1509 2.45469 11.4318 1.47047C13.7127 0.486251 16.1498 -0.00585938 18.7431 -0.00585938C21.3365 -0.00585938 23.7736 0.486251 26.0545 1.47047C28.3354 2.45469 30.3194 3.79042 32.0067 5.47765C33.6939 7.16489 35.0296 9.14895 36.0139 11.4298C36.9981 13.7107 37.4902 16.1478 37.4902 18.7412C37.4902 21.3345 36.9981 23.7716 36.0139 26.0525C35.0296 28.3334 33.6939 30.3175 32.0067 32.0047C30.3194 33.692 28.3354 35.0277 26.0545 36.0119C23.7736 36.9961 21.3365 37.4882 18.7431 37.4882ZM18.7431 33.7388C22.93 33.7388 26.4763 32.2859 29.3821 29.3801C32.2879 26.4743 33.7408 22.928 33.7408 18.7412C33.7408 14.5543 32.2879 11.008 29.3821 8.10224C26.4763 5.19645 22.93 3.74355 18.7431 3.74355C14.5563 3.74355 11.01 5.19645 8.10419 8.10224C5.1984 11.008 3.7455 14.5543 3.7455 18.7412C3.7455 22.928 5.1984 26.4743 8.10419 29.3801C11.01 32.2859 14.5563 33.7388 18.7431 33.7388Z" fill="#9EDC15"/>
</svg>
