<svg width="11" height="14" viewBox="0 0 11 14" fill="none" xmlns="http://www.w3.org/2000/svg">
<path d="M4.80033 10.9831L8.56699 7.21641L7.60033 6.24974L4.78366 9.06641L3.38366 7.66641L2.43366 8.61641L4.80033 10.9831ZM1.50033 13.6497C1.13366 13.6497 0.81977 13.5192 0.558659 13.2581C0.297548 12.997 0.166992 12.6831 0.166992 12.3164V1.64974C0.166992 1.28307 0.297548 0.969184 0.558659 0.708073C0.81977 0.446962 1.13366 0.316406 1.50033 0.316406H6.83366L10.8337 4.31641V12.3164C10.8337 12.6831 10.7031 12.997 10.442 13.2581C10.1809 13.5192 9.86699 13.6497 9.50033 13.6497H1.50033ZM6.16699 4.98307V1.64974H1.50033V12.3164H9.50033V4.98307H6.16699Z" fill="#212529"/>
</svg>
