<svg width="38" height="38" viewBox="0 0 38 38" fill="none" xmlns="http://www.w3.org/2000/svg">
<path d="M8.54922 3.80078C7.79335 3.80078 7.06844 4.10105 6.53396 4.63553C5.99949 5.17001 5.69922 5.89491 5.69922 6.65078V31.3508C5.69922 32.1066 5.99949 32.8316 6.53396 33.366C7.06844 33.9005 7.79335 34.2008 8.54922 34.2008H21.8492C22.6051 34.2008 23.33 33.9005 23.8645 33.366C24.399 32.8316 24.6992 32.1066 24.6992 31.3508V28.5008C24.6992 28.2488 24.5991 28.0072 24.421 27.829C24.2428 27.6509 24.0012 27.5508 23.7492 27.5508C22.9645 27.5508 22.4629 27.357 22.1228 27.1024C21.7751 26.8421 21.511 26.4526 21.3172 25.9187C20.9106 24.8015 20.8992 23.3214 20.8992 21.8508C20.8992 21.7258 20.8745 21.6021 20.8266 21.4867C20.7787 21.3712 20.7084 21.2664 20.6199 21.1782L20.0765 20.6329L17.7718 18.3282C16.8845 17.4409 16.6242 16.8462 16.5748 16.5137C16.5368 16.2477 16.6166 16.0691 16.8066 15.8867C17.2132 15.4972 17.5039 15.2331 17.8326 15.1533C18.0283 15.1039 18.4748 15.0697 19.2766 15.8715L24.9766 21.5715C25.1548 21.7499 25.3965 21.8502 25.6485 21.8504C25.7734 21.8504 25.897 21.826 26.0123 21.7783C26.1277 21.7306 26.2325 21.6606 26.3209 21.5724C26.4092 21.4842 26.4793 21.3795 26.5271 21.2642C26.575 21.1489 26.5997 21.0253 26.5997 20.9005C26.5998 20.7757 26.5753 20.6521 26.5276 20.5367C26.48 20.4213 26.41 20.3165 26.3218 20.2282L24.6992 18.6075V12.7441L29.5632 17.6081C29.8282 17.8727 30.0384 18.1869 30.1818 18.5328C30.3253 18.8787 30.3991 19.2495 30.3992 19.624V33.2508C30.3992 33.5027 30.4993 33.7444 30.6775 33.9225C30.8556 34.1007 31.0973 34.2008 31.3492 34.2008C31.6012 34.2008 31.8428 34.1007 32.021 33.9225C32.1991 33.7444 32.2992 33.5027 32.2992 33.2508V19.624C32.299 18.3648 31.7987 17.1572 30.9084 16.2667L24.6992 10.0575V6.65078C24.6992 5.89491 24.399 5.17001 23.8645 4.63553C23.33 4.10105 22.6051 3.80078 21.8492 3.80078H8.54922ZM22.7992 10.4508V16.7075L20.6218 14.5282C19.5217 13.43 18.4292 13.0519 17.3823 13.3065C17.1767 13.3572 16.9772 13.4305 16.7876 13.525C15.9383 13.279 15.0434 13.2338 14.1737 13.3932C13.3039 13.5525 12.4831 13.9119 11.7762 14.4431C11.0692 14.9742 10.4955 15.6624 10.1003 16.4535C9.70516 17.2445 9.49936 18.1166 9.49922 19.0008C9.49914 20.1027 9.81845 21.181 10.4185 22.1052C11.0185 23.0294 11.8736 23.7598 12.8802 24.2081C13.8868 24.6564 15.0017 24.8034 16.0901 24.6311C17.1784 24.4589 18.1935 23.975 19.0125 23.2378C19.0448 24.336 19.155 25.5368 19.5312 26.5685C19.8124 27.3418 20.2608 28.0809 20.9828 28.6205L20.9942 28.6319C20.4157 28.8138 19.9102 29.1756 19.5514 29.6646C19.1926 30.1536 18.9992 30.7443 18.9992 31.3508V32.3008H11.3992V31.3508C11.3992 30.5949 11.099 29.87 10.5645 29.3355C10.03 28.801 9.30509 28.5008 8.54922 28.5008H7.59922V9.50078H8.54922C9.30509 9.50078 10.03 9.20051 10.5645 8.66604C11.099 8.13156 11.3992 7.40665 11.3992 6.65078V5.70078H18.9992V6.65078C18.9992 7.40665 19.2995 8.13156 19.834 8.66604C20.3684 9.20051 21.0934 9.50078 21.8492 9.50078H22.7992V10.4508ZM22.7992 31.3508V31.3679C22.7947 31.6169 22.6927 31.8541 22.515 32.0286C22.3373 32.2031 22.0982 32.3008 21.8492 32.3008H20.8992V31.3508C20.8992 31.0988 20.9993 30.8572 21.1775 30.679C21.3556 30.5009 21.5973 30.4008 21.8492 30.4008H22.7992V31.3508ZM11.3992 19.0008C11.3992 18.0344 11.7674 17.1043 12.4289 16.3998C13.0903 15.6953 13.9954 15.2693 14.9598 15.2084C14.7242 15.6454 14.6045 16.1774 14.6957 16.7911C14.8306 17.7069 15.4139 18.6588 16.4266 19.6715L18.1499 21.3948C17.6552 22.0044 16.9838 22.4459 16.228 22.6584C15.4722 22.871 14.6691 22.8442 13.9291 22.5818C13.1892 22.3194 12.5486 21.8342 12.0956 21.193C11.6426 20.5517 11.3993 19.7859 11.3992 19.0008ZM9.49922 5.70078V6.65078C9.49922 6.90274 9.39913 7.14437 9.22097 7.32253C9.04281 7.50069 8.80117 7.60078 8.54922 7.60078H7.59922V6.65078C7.59922 6.39883 7.69931 6.15719 7.87747 5.97903C8.05563 5.80087 8.29726 5.70078 8.54922 5.70078H9.49922ZM7.59922 30.4008H8.54922C8.80117 30.4008 9.04281 30.5009 9.22097 30.679C9.39913 30.8572 9.49922 31.0988 9.49922 31.3508V32.3008H8.54922C8.29726 32.3008 8.05563 32.2007 7.87747 32.0225C7.69931 31.8444 7.59922 31.6027 7.59922 31.3508V30.4008ZM22.7992 7.60078H21.8492C21.5973 7.60078 21.3556 7.50069 21.1775 7.32253C20.9993 7.14437 20.8992 6.90274 20.8992 6.65078V5.70078H21.8492C22.1012 5.70078 22.3428 5.80087 22.521 5.97903C22.6991 6.15719 22.7992 6.39883 22.7992 6.65078V7.60078Z" fill="#028E7F"/>
</svg>
