<svg width="17" height="16" viewBox="0 0 17 16" fill="none" xmlns="http://www.w3.org/2000/svg">
<path d="M6.91667 4.39909C6.59167 4.72409 6.59167 5.24075 6.91667 5.56575L8.5 7.14909H0.833336C0.374996 7.14909 0 7.52409 0 7.98242C0 8.44075 0.374996 8.81575 0.833336 8.81575H8.5L6.91667 10.3991C6.59167 10.7241 6.59167 11.2407 6.91667 11.5657C7.24167 11.8907 7.75834 11.8907 8.08334 11.5657L11.075 8.57409C11.4 8.24909 11.4 7.72409 11.075 7.39909L8.08334 4.39909C7.75834 4.07409 7.24167 4.07409 6.91667 4.39909ZM15 13.8157H9.16667C8.70834 13.8157 8.33334 14.1907 8.33334 14.6491C8.33334 15.1074 8.70834 15.4824 9.16667 15.4824H15C15.9167 15.4824 16.6667 14.7324 16.6667 13.8157V2.14909C16.6667 1.23242 15.9167 0.482422 15 0.482422H9.16667C8.70834 0.482422 8.33334 0.857422 8.33334 1.31575C8.33334 1.77409 8.70834 2.14909 9.16667 2.14909H15V13.8157Z" fill="white"/>
</svg>
