<svg width="39" height="25" viewBox="0 0 39 25" fill="none" xmlns="http://www.w3.org/2000/svg">
<path d="M12 25C18.6274 25 24 19.4036 24 12.5C24 5.59644 18.6274 0 12 0C5.37258 0 0 5.59644 0 12.5C0 19.4036 5.37258 25 12 25Z" fill="#F01524"/>
<path fill-rule="evenodd" clip-rule="evenodd" d="M19.5009 22.375C19.6748 22.2578 19.8318 22.1234 20 22H19C19.1701 22.1234 19.3271 22.2578 19.5009 22.375Z" fill="#376BD1"/>
<path fill-rule="evenodd" clip-rule="evenodd" d="M27.0007 0C23.213 0 19.8408 1.83281 17.6402 4.6875H21.3604C21.7369 5.17656 22.0654 5.70469 22.37 6.25H16.6291H16.6171C16.3381 6.75156 16.0891 7.27031 15.8791 7.8125H15.8926H23.1065C23.3045 8.31875 23.4755 8.8375 23.609 9.375H15.393C15.267 9.88437 15.1665 10.4047 15.1035 10.9375H23.9016C23.9631 11.45 24.0006 11.9703 24.0006 12.5H15C15 13.0297 15.042 13.55 15.1035 14.0625H23.9016C23.8371 14.5953 23.735 15.1156 23.609 15.625H15.393C15.525 16.1594 15.684 16.6828 15.8806 17.1875H15.8941H23.108C22.8965 17.7281 22.6505 18.25 22.3715 18.75H16.6306H16.6186C16.9231 19.2984 17.2621 19.8219 17.6402 20.3125H21.3604C20.9224 20.8797 20.4258 21.3953 19.9008 21.875H19.0983H19.0803C21.1939 23.8141 23.9616 25 26.9993 25C33.6267 25 39 19.4031 39 12.5C39 5.59687 33.6282 0 27.0007 0Z" fill="#FEB415"/>
<path d="M12 25C18.6274 25 24 19.4036 24 12.5C24 5.59644 18.6274 0 12 0C5.37258 0 0 5.59644 0 12.5C0 19.4036 5.37258 25 12 25Z" fill="#F01524"/>
<path fill-rule="evenodd" clip-rule="evenodd" d="M27.0007 0C23.213 0 19.8408 1.83281 17.6402 4.6875H21.3604C21.7369 5.17656 22.0654 5.70469 22.37 6.25H16.6291H16.6171C16.3381 6.75156 16.0891 7.27031 15.8791 7.8125H15.8926H23.1065C23.3045 8.31875 23.4755 8.8375 23.609 9.375H15.393C15.267 9.88437 15.1665 10.4047 15.1035 10.9375H23.9016C23.9631 11.45 24.0006 11.9703 24.0006 12.5H15C15 13.0297 15.042 13.55 15.1035 14.0625H23.9016C23.8371 14.5953 23.735 15.1156 23.609 15.625H15.393C15.525 16.1594 15.684 16.6828 15.8806 17.1875H15.8941H23.108C22.8965 17.7281 22.6505 18.25 22.3715 18.75H16.6306H16.6186C16.9231 19.2984 17.2621 19.8219 17.6402 20.3125H21.3604C20.9224 20.8797 20.4258 21.3953 19.9008 21.875H19.0983H19.0803C21.1939 23.8141 23.9616 25 26.9993 25C33.6267 25 39 19.4031 39 12.5C39 5.59687 33.6282 0 27.0007 0Z" fill="#FEB415"/>
</svg>
