<svg width="15" height="14" viewBox="0 0 15 14" fill="none" xmlns="http://www.w3.org/2000/svg">
<path d="M5.54967 8.48307L7.49967 7.29974L9.44967 8.48307L8.93301 6.26641L10.6663 4.76641L8.38301 4.58307L7.49967 2.48307L6.61634 4.58307L4.33301 4.76641L6.06634 6.26641L5.54967 8.48307ZM0.833008 13.6497V1.64974C0.833008 1.28307 0.963563 0.969184 1.22467 0.708073C1.48579 0.446962 1.79967 0.316406 2.16634 0.316406H12.833C13.1997 0.316406 13.5136 0.446962 13.7747 0.708073C14.0358 0.969184 14.1663 1.28307 14.1663 1.64974V9.64974C14.1663 10.0164 14.0358 10.3303 13.7747 10.5914C13.5136 10.8525 13.1997 10.9831 12.833 10.9831H3.49967L0.833008 13.6497ZM2.93301 9.64974H12.833V1.64974H2.16634V10.3997L2.93301 9.64974Z" fill="#212529"/>
</svg>
