<svg width="38" height="38" viewBox="0 0 38 38" fill="none" xmlns="http://www.w3.org/2000/svg">
<g clip-path="url(#clip0_313_5662)">
<path d="M0.517989 19.0493C0.109504 19.1998 -0.101047 19.6525 0.047756 20.0626L0.54493 21.4305L4.33047 17.6449L0.517989 19.0493ZM4.10092 31.2089L6.38084 37.4787C6.41615 37.5766 6.4706 37.6665 6.54099 37.7431C6.61139 37.8198 6.69634 37.8817 6.79089 37.9252C6.89552 37.9739 7.00951 37.9993 7.12493 37.9996C7.21837 37.9996 7.31018 37.9838 7.39887 37.9505L9.91472 37.0228L4.10092 31.2089ZM37.9514 25.8558L35.3422 18.682L29.0804 24.9439L32.1836 23.8007C32.5905 23.6455 33.0496 23.8577 33.2 24.2694C33.352 24.6794 33.1415 25.1354 32.7314 25.2859L28.789 26.7393C28.7013 26.7718 28.6086 26.7884 28.5151 26.7884C28.1936 26.7884 27.8896 26.5904 27.7725 26.2706C27.771 26.2659 27.7725 26.2611 27.771 26.2564L21.1355 32.8919L37.4812 26.8691C37.8912 26.7187 38.1018 26.2659 37.9514 25.8558ZM37.7677 12.8983L25.1015 0.232043C24.7928 -0.0766965 24.2908 -0.0766965 23.9821 0.232043L0.232925 23.9812C-0.0758139 24.2899 -0.0758139 24.7919 0.232925 25.1006L12.8992 37.7669C12.9722 37.8408 13.0593 37.8994 13.1552 37.9394C13.2512 37.9793 13.3542 37.9998 13.4581 37.9996C13.6608 37.9996 13.8634 37.922 14.0186 37.7684L37.7677 14.0192C37.916 13.8704 37.9993 13.6689 37.9993 13.4588C37.9993 13.2487 37.916 13.0471 37.7677 12.8983ZM9.26874 21.9357L6.10216 25.1022C5.95317 25.2502 5.75169 25.3332 5.54168 25.3332C5.33167 25.3332 5.13019 25.2502 4.9812 25.1022C4.67246 24.7934 4.67246 24.2915 4.9812 23.9828L8.14778 20.8162C8.45652 20.5074 8.95844 20.5074 9.26718 20.8162C9.57592 21.125 9.57748 21.6253 9.26874 21.9357ZM22.9403 22.941C22.3798 23.5015 21.6183 23.7707 20.7712 23.7707C19.3716 23.7707 17.7361 23.0376 16.3681 21.668C15.3675 20.6674 14.6645 19.4704 14.3906 18.2988C14.0866 16.9926 14.3368 15.8559 15.0952 15.0959C15.8536 14.3359 16.9903 14.0857 18.2981 14.3914C19.4697 14.6653 20.6667 15.3666 21.6673 16.3689C23.8665 18.5664 24.427 21.4543 22.9403 22.941ZM33.0179 14.0192L29.8513 17.1858C29.7023 17.3338 29.5009 17.4169 29.2908 17.4169C29.0808 17.4169 28.8794 17.3338 28.7304 17.1858C28.4216 16.8771 28.4216 16.3752 28.7304 16.0664L31.8969 12.8998C32.2057 12.5911 32.7076 12.5911 33.0163 12.8998C33.3251 13.2086 33.3266 13.709 33.0179 14.0192Z" fill="white"/>
</g>
<defs>
<clipPath id="clip0_313_5662">
<rect width="38" height="38" fill="white"/>
</clipPath>
</defs>
</svg>
