<svg width="38" height="36" viewBox="0 0 38 36" fill="none" xmlns="http://www.w3.org/2000/svg">
<path d="M34.8333 0.583496H3.16669C1.42099 0.583496 0 2.00375 0 3.75019V25.9169C0 27.6633 1.42099 29.0836 3.16669 29.0836H14.2536C14.2203 30.3466 13.9791 32.367 13.0733 33.321C12.7409 33.6704 12.3605 33.8336 11.875 33.8336C11.771 33.8335 11.668 33.8539 11.572 33.8937C11.4759 33.9335 11.3886 33.9918 11.315 34.0653C11.2415 34.1388 11.1832 34.2261 11.1434 34.3222C11.1037 34.4183 11.0832 34.5213 11.0833 34.6253C11.0832 34.7292 11.1037 34.8322 11.1434 34.9283C11.1832 35.0244 11.2415 35.1117 11.315 35.1852C11.3886 35.2588 11.4759 35.3171 11.572 35.3568C11.668 35.3966 11.771 35.417 11.875 35.417H26.125C26.229 35.417 26.332 35.3966 26.428 35.3568C26.5241 35.3171 26.6114 35.2588 26.685 35.1852C26.7585 35.1117 26.8168 35.0244 26.8566 34.9283C26.8963 34.8322 26.9168 34.7292 26.9167 34.6253C26.9168 34.5213 26.8963 34.4183 26.8566 34.3222C26.8168 34.2261 26.7585 34.1388 26.685 34.0653C26.6114 33.9918 26.5241 33.9335 26.428 33.8937C26.332 33.8539 26.229 33.8335 26.125 33.8336C25.6395 33.8336 25.2591 33.6712 24.9282 33.3218C24.0247 32.3725 23.7819 30.3492 23.7474 29.0836H34.8334C36.5791 29.0836 38.0001 27.6634 38.0001 25.9169V3.75019C38 2.00375 36.579 0.583496 34.8333 0.583496ZM19 27.5048C18.1248 27.5048 17.412 26.792 17.412 25.9168C17.412 25.0416 18.1248 24.3288 19 24.3288C19.8752 24.3288 20.588 25.0416 20.588 25.9168C20.588 26.792 19.8752 27.5048 19 27.5048ZM3.16669 22.7502V3.75019H34.8334L34.8347 22.7502H3.16669Z" fill="white"/>
</svg>
