<svg width="41" height="41" viewBox="0 0 41 41" fill="none" xmlns="http://www.w3.org/2000/svg">
<g clip-path="url(#clip0_81_7735)">
<path d="M30.3026 0H16.68H15.6244L14.8785 0.745848L4.56604 11.0589L3.82019 11.8048V12.8599V34.1218C3.82019 37.9143 6.90544 41.0001 10.6986 41.0001H30.3026C34.0945 41.0001 37.1798 37.9143 37.1798 34.1218V6.87839C37.1798 3.08525 34.0945 0 30.3026 0ZM34.6335 34.1217C34.6335 36.5142 32.6945 38.4532 30.3026 38.4532H10.6986C8.30553 38.4532 6.36651 36.5142 6.36651 34.1217V12.8598H13.0703C15.0631 12.8598 16.68 11.244 16.68 9.25071V2.5468H30.3026C32.6945 2.5468 34.6335 4.48582 34.6335 6.87839V34.1217Z" fill="black"/>
<path d="M13.7692 20.2422H11.4846C11.0496 20.2422 10.7891 20.5251 10.7891 20.9489V26.855C10.7891 27.3665 11.1257 27.7037 11.5931 27.7037C12.0505 27.7037 12.387 27.3666 12.387 26.855V25.0607C12.387 25.0171 12.4094 24.9953 12.453 24.9953H13.7692C15.3783 24.9953 16.3467 24.0163 16.3467 22.624C16.3468 21.21 15.3896 20.2422 13.7692 20.2422ZM13.6708 23.6137H12.453C12.4094 23.6137 12.387 23.5919 12.387 23.5489V21.6886C12.387 21.645 12.4094 21.6233 12.453 21.6233H13.6708C14.3451 21.6233 14.7476 22.0258 14.7476 22.6241C14.7477 23.2223 14.3451 23.6137 13.6708 23.6137Z" fill="black"/>
<path d="M20.0348 20.2422H18.2836C17.8486 20.2422 17.5881 20.5251 17.5881 20.9489V26.9422C17.5881 27.3666 17.8486 27.6383 18.2836 27.6383H20.0348C21.6115 27.6383 22.5911 27.1379 22.9825 25.9307C23.1234 25.5063 23.2005 24.9953 23.2005 23.9402C23.2005 22.8852 23.1233 22.3741 22.9825 21.9498C22.591 20.7426 21.6115 20.2422 20.0348 20.2422ZM21.4494 25.3761C21.2637 25.9631 20.7315 26.2136 19.9911 26.2136H19.252C19.2084 26.2136 19.186 26.1918 19.186 26.1483V21.7323C19.186 21.6886 19.2084 21.6669 19.252 21.6669H19.9911C20.7315 21.6669 21.2637 21.9173 21.4494 22.5045C21.5254 22.755 21.5791 23.1899 21.5791 23.9403C21.5791 24.6906 21.5254 25.1256 21.4494 25.3761Z" fill="black"/>
<path d="M28.9216 20.2422H25.3331C24.8981 20.2422 24.6364 20.5251 24.6364 20.9489V26.855C24.6364 27.3665 24.9742 27.7037 25.4416 27.7037C25.8978 27.7037 26.2355 27.3666 26.2355 26.855V24.7448C26.2355 24.7017 26.2567 24.68 26.3004 24.68H28.3893C28.8567 24.68 29.1284 24.3971 29.1284 23.9945C29.1284 23.5919 28.8567 23.3096 28.3893 23.3096H26.3004C26.2567 23.3096 26.2355 23.2878 26.2355 23.2442V21.6886C26.2355 21.645 26.2567 21.6233 26.3004 21.6233H28.9216C29.3677 21.6233 29.6619 21.3297 29.6619 20.9384C29.6618 20.5357 29.3677 20.2422 28.9216 20.2422Z" fill="black"/>
</g>
<defs>
<clipPath id="clip0_81_7735">
<rect width="41" height="41" fill="white"/>
</clipPath>
</defs>
</svg>
