<svg width="32" height="32" viewBox="0 0 32 32" fill="none" xmlns="http://www.w3.org/2000/svg">
<path d="M23.918 21.0977C23.918 22.6493 22.6513 23.916 21.0996 23.916C19.548 23.916 18.2971 22.6493 18.2971 21.0977C18.2971 19.546 19.548 18.2952 21.0996 18.2952C22.6513 18.2952 23.918 19.546 23.918 21.0977ZM10.9821 13.7827C12.5338 13.7827 13.7846 12.5318 13.7846 10.9802C13.7846 9.41268 12.5338 8.16185 10.9821 8.16185C9.41464 8.16185 8.1638 9.41268 8.1638 10.9802C8.1638 12.5318 9.41464 13.7827 10.9821 13.7827ZM8.08464 21.5885L10.4596 23.9635L23.9655 10.4577L21.5905 8.08268L8.08464 21.5885ZM31.8346 15.9993C31.8346 24.7077 24.7096 31.8327 16.0013 31.8327C7.29297 31.8327 0.167969 24.7077 0.167969 15.9993C0.167969 7.29102 7.29297 0.166016 16.0013 0.166016C24.7096 0.166016 31.8346 7.29102 31.8346 15.9993ZM28.668 15.9993C28.668 9.01685 22.9838 3.33268 16.0013 3.33268C9.0188 3.33268 3.33464 9.01685 3.33464 15.9993C3.33464 22.9818 9.0188 28.666 16.0013 28.666C22.9838 28.666 28.668 22.9818 28.668 15.9993Z" fill="#028E7F"/>
</svg>
