<svg width="42" height="36" viewBox="0 0 42 36" fill="none" xmlns="http://www.w3.org/2000/svg">
<path d="M20.6308 1.00051C20.453 1.00684 20.2818 1.06946 20.1419 1.17934L0.821925 16.2993C0.735067 16.3674 0.66247 16.4519 0.608279 16.5481C0.554089 16.6442 0.519367 16.7501 0.506097 16.8596C0.492827 16.9692 0.501268 17.0803 0.530939 17.1865C0.56061 17.2928 0.610929 17.3922 0.679022 17.4791C0.747115 17.5659 0.831649 17.6385 0.927795 17.6927C1.02394 17.7468 1.12982 17.7815 1.23937 17.7948C1.34893 17.808 1.46002 17.7995 1.5663 17.7698C1.67259 17.7401 1.77198 17.6898 1.8588 17.6217L3.02036 16.7128V38.8005C3.02038 39.0233 3.10889 39.2369 3.26642 39.3945C3.42394 39.552 3.63759 39.6405 3.86036 39.6405H37.4604C37.6831 39.6405 37.8968 39.552 38.0543 39.3945C38.2118 39.2369 38.3003 39.0233 38.3004 38.8005V16.7128L39.4619 17.6217C39.5487 17.6898 39.6481 17.7401 39.7544 17.7698C39.8607 17.7995 39.9718 17.808 40.0813 17.7947C40.1909 17.7815 40.2968 17.7468 40.3929 17.6926C40.4891 17.6385 40.5736 17.5659 40.6417 17.4791C40.7098 17.3922 40.7601 17.2928 40.7898 17.1865C40.8194 17.0802 40.8279 16.9692 40.8146 16.8596C40.8013 16.75 40.7666 16.6442 40.7124 16.5481C40.6582 16.4519 40.5857 16.3674 40.4988 16.2993L21.1788 1.17934C21.0229 1.05697 20.8289 0.993626 20.6308 1.00051ZM20.6604 2.90691L36.6204 15.397V37.9605H4.70036V15.397L20.6604 2.90691ZM9.74036 16.1205V16.9605V32.0805H31.5804V16.1205H9.74036ZM11.4204 17.8005H29.9004V18.2156L21.8367 24.1596L21.8301 24.1645C21.2184 24.6316 20.2697 24.6316 19.6579 24.1645L19.6497 24.1563L11.4204 18.2107V17.8005ZM11.4204 20.2844L16.0092 23.5985L11.4204 27.0405V20.2844ZM29.9004 20.3025V27.0405L25.369 23.6428L29.9004 20.3025ZM17.4365 24.6288L18.6391 25.4983C19.8754 26.4424 21.6143 26.4424 22.8506 25.4983L23.9564 24.6829L29.9004 29.1405V30.4005H11.4204V29.1405L17.4365 24.6288Z" fill="white" stroke="white"/>
</svg>
