<svg width="21" height="21" viewBox="0 0 21 21" fill="none" xmlns="http://www.w3.org/2000/svg">
<path d="M10.5 15.9648C11.8833 15.9648 13.0625 15.4773 14.0375 14.5023C15.0125 13.5273 15.5 12.3482 15.5 10.9648C15.5 9.58151 15.0125 8.40234 14.0375 7.42734C13.0625 6.45234 11.8833 5.96484 10.5 5.96484C9.11667 5.96484 7.9375 6.45234 6.9625 7.42734C5.9875 8.40234 5.5 9.58151 5.5 10.9648C5.5 12.3482 5.9875 13.5273 6.9625 14.5023C7.9375 15.4773 9.11667 15.9648 10.5 15.9648ZM10.5 20.9648C9.11667 20.9648 7.81667 20.7023 6.6 20.1773C5.38333 19.6523 4.325 18.9398 3.425 18.0398C2.525 17.1398 1.8125 16.0815 1.2875 14.8648C0.7625 13.6482 0.5 12.3482 0.5 10.9648C0.5 9.58151 0.7625 8.28151 1.2875 7.06484C1.8125 5.84818 2.525 4.78984 3.425 3.88984C4.325 2.98984 5.38333 2.27734 6.6 1.75234C7.81667 1.22734 9.11667 0.964844 10.5 0.964844C11.8833 0.964844 13.1833 1.22734 14.4 1.75234C15.6167 2.27734 16.675 2.98984 17.575 3.88984C18.475 4.78984 19.1875 5.84818 19.7125 7.06484C20.2375 8.28151 20.5 9.58151 20.5 10.9648C20.5 12.3482 20.2375 13.6482 19.7125 14.8648C19.1875 16.0815 18.475 17.1398 17.575 18.0398C16.675 18.9398 15.6167 19.6523 14.4 20.1773C13.1833 20.7023 11.8833 20.9648 10.5 20.9648ZM10.5 18.9648C12.7333 18.9648 14.625 18.1898 16.175 16.6398C17.725 15.0898 18.5 13.1982 18.5 10.9648C18.5 8.73151 17.725 6.83984 16.175 5.28984C14.625 3.73984 12.7333 2.96484 10.5 2.96484C8.26667 2.96484 6.375 3.73984 4.825 5.28984C3.275 6.83984 2.5 8.73151 2.5 10.9648C2.5 13.1982 3.275 15.0898 4.825 16.6398C6.375 18.1898 8.26667 18.9648 10.5 18.9648Z" fill="#028E7F"/>
</svg>
