<svg width="38" height="37" viewBox="0 0 38 37" fill="none" xmlns="http://www.w3.org/2000/svg">
<path d="M18.5245 0.963526C18.6741 0.502871 19.3259 0.50287 19.4755 0.963525L23.6025 13.6652C23.6695 13.8712 23.8615 14.0106 24.0781 14.0106H37.4333C37.9177 14.0106 38.1191 14.6305 37.7272 14.9152L26.9226 22.7652C26.7473 22.8925 26.674 23.1182 26.741 23.3242L30.868 36.0258C31.0176 36.4865 30.4904 36.8695 30.0985 36.5849L19.2939 28.7348C19.1186 28.6075 18.8814 28.6075 18.7061 28.7348L7.90146 36.5848C7.5096 36.8695 6.98236 36.4865 7.13204 36.0258L11.259 23.3242C11.326 23.1182 11.2527 22.8925 11.0774 22.7652L0.272763 14.9152C-0.119094 14.6305 0.082293 14.0106 0.566655 14.0106H13.9219C14.1385 14.0106 14.3305 13.8712 14.3975 13.6652L18.5245 0.963526Z" fill="#777D92"/>
</svg>
