<svg width="26" height="25" viewBox="0 0 26 25" fill="none" xmlns="http://www.w3.org/2000/svg">
<path d="M12.046 1.43422C12.3395 0.500829 13.6605 0.500831 13.954 1.43422L16.1476 8.41059C16.2786 8.82721 16.6648 9.11063 17.1015 9.11063H24.2683C25.229 9.11063 25.637 10.3335 24.8687 10.9103L19.0148 15.3052C18.6758 15.5597 18.5341 16.0004 18.6613 16.4048L20.8838 23.4731C21.1754 24.4002 20.1067 25.1563 19.3295 24.5728L13.6004 20.2716C13.2447 20.0046 12.7553 20.0046 12.3996 20.2716L6.67051 24.5728C5.8933 25.1563 4.82465 24.4002 5.11617 23.4731L7.33872 16.4048C7.46589 16.0004 7.3242 15.5597 6.98515 15.3052L1.13133 10.9103C0.363001 10.3335 0.770954 9.11063 1.73172 9.11063H8.89846C9.33519 9.11063 9.72141 8.82721 9.85241 8.41059L12.046 1.43422Z" fill="#FFDD2D"/>
</svg>
