<svg width="11" height="15" viewBox="0 0 11 15" fill="none" xmlns="http://www.w3.org/2000/svg">
<path d="M0.5 7.38988H1.96998V0.982422H5.7588C6.46273 0.982422 7.10455 1.06277 7.68426 1.22345C8.26397 1.37075 8.76087 1.60509 9.17495 1.92647C9.58903 2.23445 9.91339 2.62948 10.148 3.11155C10.3827 3.59361 10.5 4.16941 10.5 4.83895C10.5 5.50849 10.3758 6.09098 10.1273 6.58644C9.87888 7.0819 9.54072 7.49701 9.11284 7.83178C8.68495 8.15315 8.18116 8.39419 7.60145 8.55487C7.02174 8.71556 6.39372 8.79591 5.71739 8.79591H3.62629V10.8246H6.95963V12.1503H3.62629V14.9824H1.96998V12.1503H0.5V10.8246H1.96998V8.79591H0.5V7.38988ZM5.7588 7.38988C6.71118 7.38988 7.45652 7.18233 7.99482 6.76721C8.54693 6.33871 8.82298 5.69596 8.82298 4.83895C8.82298 3.98194 8.54693 3.35928 7.99482 2.97094C7.45652 2.58261 6.71118 2.38845 5.7588 2.38845H3.62629V7.38988H5.7588Z" fill="#212529"/>
</svg>
