<svg width="38" height="38" viewBox="0 0 38 38" fill="none" xmlns="http://www.w3.org/2000/svg">
<path d="M26.918 24.0977C26.918 25.6493 25.6513 26.916 24.0996 26.916C22.548 26.916 21.2971 25.6493 21.2971 24.0977C21.2971 22.546 22.548 21.2952 24.0996 21.2952C25.6513 21.2952 26.918 22.546 26.918 24.0977ZM13.9821 16.7827C15.5338 16.7827 16.7846 15.5318 16.7846 13.9802C16.7846 12.4127 15.5338 11.1618 13.9821 11.1618C12.4146 11.1618 11.1638 12.4127 11.1638 13.9802C11.1638 15.5318 12.4146 16.7827 13.9821 16.7827ZM11.0846 24.5885L13.4596 26.9635L26.9655 13.4577L24.5905 11.0827L11.0846 24.5885ZM34.8346 18.9993C34.8346 27.7077 27.7096 34.8327 19.0013 34.8327C10.293 34.8327 3.16797 27.7077 3.16797 18.9993C3.16797 10.291 10.293 3.16602 19.0013 3.16602C27.7096 3.16602 34.8346 10.291 34.8346 18.9993ZM31.668 18.9993C31.668 12.0168 25.9838 6.33268 19.0013 6.33268C12.0188 6.33268 6.33464 12.0168 6.33464 18.9993C6.33464 25.9818 12.0188 31.666 19.0013 31.666C25.9838 31.666 31.668 25.9818 31.668 18.9993Z" fill="#028E7F"/>
</svg>
