<svg width="30" height="38" viewBox="0 0 30 38" fill="none" xmlns="http://www.w3.org/2000/svg">
<path d="M20.9861 15.0518C23.5055 12.7548 26.9126 9.64822 27.2232 2.22656H29.4727V0H0.527344V2.22656H2.77684C3.08737 9.64822 6.49446 12.7548 9.01389 15.0518C10.7039 16.5926 11.6602 17.5357 11.6602 19C11.6602 20.4643 10.7039 21.4074 9.01389 22.9482C6.49446 25.2452 3.08737 28.3518 2.77684 35.7734H0.527344V38H29.4727V35.7734H27.2232C26.9126 28.3518 23.5055 25.2452 20.9861 22.9482C19.2961 21.4074 18.3398 20.4643 18.3398 19C18.3398 17.5357 19.2961 16.5926 20.9861 15.0518ZM13.8867 27.345C13.5393 27.4166 13.1994 27.5208 12.8716 27.6564L6.05263 30.4781C7.16621 27.6466 8.95978 26.0106 10.514 24.5936C12.2485 23.0123 13.8867 21.5186 13.8867 19V27.345ZM19.486 24.5936C21.0402 26.0106 22.8337 27.6466 23.9474 30.478L17.1284 27.6563C16.8006 27.5207 16.4607 27.4165 16.1133 27.3449V19C16.1133 21.5186 17.7515 23.0123 19.486 24.5936ZM6.01352 7.42188C5.47521 6.01921 5.10345 4.32562 5.00615 2.22656H24.9938C24.8965 4.32562 24.5248 6.01921 23.9864 7.42188H6.01352Z" fill="white"/>
</svg>
