<svg width="49" height="49" viewBox="0 0 49 49" fill="none" xmlns="http://www.w3.org/2000/svg">
<g id="Interface / Credit_Card_02">
<path id="Vector" d="M23.5 30.5C21.8431 30.5 20.5 29.1569 20.5 27.5C20.5 25.8431 21.8431 24.5 23.5 24.5M6.5 32.1004V16.9004C6.5 14.6602 6.5 13.5392 6.93597 12.6836C7.31947 11.9309 7.93095 11.3195 8.68359 10.936C9.53924 10.5 10.6602 10.5 12.9004 10.5H36.1004C38.3406 10.5 39.4591 10.5 40.3148 10.936C41.0674 11.3195 41.681 11.9309 42.0645 12.6836C42.5 13.5384 42.5 14.658 42.5 16.8938V32.1072C42.5 34.343 42.5 35.461 42.0645 36.3158C41.681 37.0684 41.0674 37.681 40.3148 38.0645C39.46 38.5 38.342 38.5 36.1062 38.5H12.8938C10.658 38.5 9.5384 38.5 8.68359 38.0645C7.93095 37.681 7.31947 37.0684 6.93597 36.3158C6.5 35.4601 6.5 34.3406 6.5 32.1004ZM34.5 27.5C34.5 29.1569 33.1569 30.5 31.5 30.5C29.8431 30.5 28.5 29.1569 28.5 27.5C28.5 25.8431 29.8431 24.5 31.5 24.5C33.1569 24.5 34.5 25.8431 34.5 27.5Z" stroke="#CD2759" stroke-width="2" stroke-linecap="round" stroke-linejoin="round"/>
</g>
</svg>
