<svg width="95" height="16" viewBox="0 0 95 16" fill="none" xmlns="http://www.w3.org/2000/svg">
<path d="M7.02447 2.36392C7.17415 1.90326 7.82585 1.90326 7.97553 2.36392L9.0716 5.73727C9.13854 5.94328 9.33051 6.08276 9.54713 6.08276H13.0941C13.5784 6.08276 13.7798 6.70257 13.388 6.98727L10.5184 9.07212C10.3432 9.19944 10.2699 9.42513 10.3368 9.63114L11.4329 13.0045C11.5825 13.4651 11.0553 13.8482 10.6634 13.5635L7.79389 11.4787C7.61865 11.3513 7.38135 11.3513 7.20611 11.4787L4.33656 13.5635C3.9447 13.8482 3.41746 13.4651 3.56714 13.0045L4.66321 9.63114C4.73015 9.42513 4.65682 9.19944 4.48157 9.07212L1.61203 6.98727C1.22017 6.70257 1.42156 6.08276 1.90592 6.08276H5.45287C5.66949 6.08276 5.86146 5.94328 5.9284 5.73727L7.02447 2.36392Z" fill="#028E7F"/>
<path d="M27.0245 2.36392C27.1741 1.90326 27.8259 1.90326 27.9755 2.36392L29.0716 5.73727C29.1385 5.94328 29.3305 6.08276 29.5471 6.08276H33.0941C33.5784 6.08276 33.7798 6.70257 33.388 6.98727L30.5184 9.07212C30.3432 9.19944 30.2699 9.42513 30.3368 9.63114L31.4329 13.0045C31.5825 13.4651 31.0553 13.8482 30.6634 13.5635L27.7939 11.4787C27.6186 11.3513 27.3814 11.3513 27.2061 11.4787L24.3366 13.5635C23.9447 13.8482 23.4175 13.4651 23.5671 13.0045L24.6632 9.63114C24.7301 9.42513 24.6568 9.19944 24.4816 9.07212L21.612 6.98727C21.2202 6.70257 21.4216 6.08276 21.9059 6.08276H25.4529C25.6695 6.08276 25.8615 5.94328 25.9284 5.73727L27.0245 2.36392Z" fill="#028E7F"/>
<path d="M47.0245 2.36392C47.1741 1.90326 47.8259 1.90326 47.9755 2.36392L49.0716 5.73727C49.1385 5.94328 49.3305 6.08276 49.5471 6.08276H53.0941C53.5784 6.08276 53.7798 6.70257 53.388 6.98727L50.5184 9.07212C50.3432 9.19944 50.2699 9.42513 50.3368 9.63114L51.4329 13.0045C51.5825 13.4651 51.0553 13.8482 50.6634 13.5635L47.7939 11.4787C47.6186 11.3513 47.3814 11.3513 47.2061 11.4787L44.3366 13.5635C43.9447 13.8482 43.4175 13.4651 43.5671 13.0045L44.6632 9.63114C44.7301 9.42513 44.6568 9.19944 44.4816 9.07212L41.612 6.98727C41.2202 6.70257 41.4216 6.08276 41.9059 6.08276H45.4529C45.6695 6.08276 45.8615 5.94328 45.9284 5.73727L47.0245 2.36392Z" fill="#028E7F"/>
<path d="M67.0245 2.36392C67.1741 1.90326 67.8259 1.90326 67.9755 2.36392L69.0716 5.73727C69.1385 5.94328 69.3305 6.08276 69.5471 6.08276H73.0941C73.5784 6.08276 73.7798 6.70257 73.388 6.98727L70.5184 9.07212C70.3432 9.19944 70.2699 9.42513 70.3368 9.63114L71.4329 13.0045C71.5825 13.4651 71.0553 13.8482 70.6634 13.5635L67.7939 11.4787C67.6186 11.3513 67.3814 11.3513 67.2061 11.4787L64.3366 13.5635C63.9447 13.8482 63.4175 13.4651 63.5671 13.0045L64.6632 9.63114C64.7301 9.42513 64.6568 9.19944 64.4816 9.07212L61.612 6.98727C61.2202 6.70257 61.4216 6.08276 61.9059 6.08276H65.4529C65.6695 6.08276 65.8615 5.94328 65.9284 5.73727L67.0245 2.36392Z" fill="#028E7F"/>
<path d="M87.0245 2.36392C87.1741 1.90326 87.8259 1.90326 87.9755 2.36392L89.0716 5.73727C89.1385 5.94328 89.3305 6.08276 89.5471 6.08276H93.0941C93.5784 6.08276 93.7798 6.70257 93.388 6.98727L90.5184 9.07212C90.3432 9.19944 90.2699 9.42513 90.3368 9.63114L91.4329 13.0045C91.5825 13.4651 91.0553 13.8482 90.6634 13.5635L87.7939 11.4787C87.6186 11.3513 87.3814 11.3513 87.2061 11.4787L84.3366 13.5635C83.9447 13.8482 83.4175 13.4651 83.5671 13.0045L84.6632 9.63114C84.7301 9.42513 84.6568 9.19944 84.4816 9.07212L81.612 6.98727C81.2202 6.70257 81.4216 6.08276 81.9059 6.08276H85.4529C85.6695 6.08276 85.8615 5.94328 85.9284 5.73727L87.0245 2.36392Z" fill="#777D92"/>
</svg>
