<svg width="84" height="25" viewBox="0 0 84 25" fill="none" xmlns="http://www.w3.org/2000/svg">
<g id="Group">
<path id="Shape" fill-rule="evenodd" clip-rule="evenodd" d="M29 25H36.3805L41 0H33.6167L29 25Z" fill="#282735"/>
<path id="Shape_2" fill-rule="evenodd" clip-rule="evenodd" d="M55.1028 10.1467C52.6571 9.0263 51.1581 8.27769 51.1742 7.14466C51.1742 6.13809 52.4426 5.0607 55.1832 5.0607C57.4251 5.02782 59.2325 5.45776 61.0507 6.26707L62 1.01669C60.6136 0.526049 58.4415 0 55.7276 0C48.8116 0 43.9391 3.28528 43.8989 7.99191C43.8586 11.4719 47.377 13.4143 50.0318 14.5726C52.7564 15.7587 53.6735 16.5175 53.6601 17.5771C53.644 19.2008 51.4853 19.9418 49.4713 19.9418C46.366 19.9418 44.7999 19.4891 41.9815 18.2853L41 23.7076C42.6358 24.3829 45.658 24.9697 48.7982 25C56.1567 25 60.9327 21.7527 60.9863 16.7248C61.0051 13.9707 59.1414 11.8741 55.1028 10.1467Z" fill="#282735"/>
<path id="Shape_3" fill-rule="evenodd" clip-rule="evenodd" d="M78.3621 0H72.9828C71.316 0 70.0705 0.446708 69.3371 2.07419L59 25H66.3101C66.3101 25 67.5049 21.9174 67.7769 21.2409C68.577 21.2409 75.6764 21.2513 76.6926 21.2513C76.9006 22.1264 77.5406 25 77.5406 25H84L78.3621 0ZM69.7798 16.1259C70.0678 15.4049 72.9082 8.26019 73.4762 6.74504C74.4176 11.058 73.5002 6.87304 75.5591 16.1259H69.7798Z" fill="#282735"/>
<path id="Shape_4" fill-rule="evenodd" clip-rule="evenodd" d="M22.281 0.0156806L16.0698 17.0813L15.4088 13.6133L13.1854 2.11165C12.8014 0.527911 11.6885 0.0548819 10.3106 0H0.080191L0 0.520071C2.48835 1.1682 4.71183 2.10381 6.66315 3.26416L12.3033 25L19.015 24.9922L29 0.0130671H22.281V0.0156806Z" fill="#282735"/>
</g>
</svg>
