<?xml version="1.0" encoding="utf-8"?>
<!-- Generator: Adobe Illustrator 27.6.1, SVG Export Plug-In . SVG Version: 6.00 Build 0)  -->
<svg version="1.1" id="Слой_1" xmlns="http://www.w3.org/2000/svg" xmlns:xlink="http://www.w3.org/1999/xlink" x="0px" y="0px"
	 viewBox="0 0 452 284.1" style="enable-background:new 0 0 452 284.1;" xml:space="preserve">
<style type="text/css">
	.st0{fill-rule:evenodd;clip-rule:evenodd;fill:#F5F5F5;}
</style>
<path class="st0" d="M358.8,196.5c-1.6,1.8-1.8,4.1-0.5,5.7c1.9,2.4,5.4,1.9,27.6-4c24.3-6.5,25.7-6.7,31.7-3.7
	c7.9,4,10.4,12.3,5.7,19c-3.1,4.4-6.1,5.6-28.4,11.6c-19.7,5.3-25.3,7.4-26.7,10.1c-1.4,2.7-1.1,3.8,1.5,5.5
	c2.6,1.6,8.5,0.7,27.7-4.5c23.2-6.2,24.7-6.4,30.6-3.4c8,4,10.2,11.9,5.4,18.8c-3.4,4.8-5.8,5.8-28.4,11.8
	c-19.4,5.2-25.1,7.3-26.5,10c-1.4,2.7-1.1,3.8,1.5,5.5c5.2,3.3,50.9-9.4,59-16.4c11.9-10.2,11.8-30.7-0.2-37.5
	c-4.5-2.5-4.5-2.9-1.9-11.3c5.3-17.2-7.3-32.4-26.5-31.9C399.4,182.1,362.3,192.6,358.8,196.5z M354.2,220.1
	c-11.3,10.8-11.9,27.6-1.2,35.1c11.4,8,15.2,8.1,41.8,1.3c33.7-8.7,31.9-7.9,30.5-13.1l-1.2-4.6l-26.3,7c-23.5,6.3-27,6.8-32.7,4.7
	c-7.7-2.8-11-11.8-7.1-19.4c2.4-4.7,4.1-5.4,28.1-11.6c26.8-7,31.3-9.2,28.5-14.5c-1.5-2.9-4.1-2.6-28.4,3.4
	C363.1,214.1,358.8,215.7,354.2,220.1z"/>
<path class="st0" d="M358.8,83.9c-1.6,1.8-1.8,4.1-0.5,5.7c1.9,2.4,5.4,1.9,27.6-4c24.3-6.5,25.7-6.7,31.7-3.7
	c7.9,4,10.4,12.3,5.7,19c-3.1,4.4-6.1,5.6-28.4,11.6c-19.7,5.3-25.3,7.4-26.7,10.1c-1.4,2.7-1.1,3.8,1.5,5.5
	c2.6,1.6,8.5,0.7,27.7-4.5c23.2-6.2,24.7-6.4,30.6-3.4c8,4,10.2,11.9,5.4,18.8c-3.4,4.8-5.8,5.8-28.4,11.8
	c-19.4,5.2-25.1,7.3-26.5,10c-1.4,2.7-1.1,3.8,1.5,5.5c5.2,3.3,50.9-9.4,59-16.4c11.9-10.2,11.8-30.7-0.2-37.5
	c-4.5-2.5-4.5-2.9-1.9-11.3c5.3-17.2-7.3-32.4-26.5-31.9C399.4,69.5,362.3,80.1,358.8,83.9z M354.2,107.5
	c-11.3,10.8-11.9,27.6-1.2,35.1c11.4,8,15.2,8.1,41.8,1.3c33.7-8.7,31.9-7.9,30.5-13.1l-1.2-4.6l-26.3,7c-23.5,6.3-27,6.8-32.7,4.7
	c-7.7-2.8-11-11.8-7.1-19.4c2.4-4.7,4.1-5.4,28.1-11.6c26.8-7,31.3-9.2,28.5-14.5c-1.5-2.9-4.1-2.6-28.4,3.4
	C363.1,101.6,358.8,103.2,354.2,107.5z"/>
<path class="st0" d="M242.6,171c-1.6,1.8-1.8,4.1-0.5,5.7c1.9,2.4,5.4,1.9,27.6-4c24.3-6.5,25.7-6.7,31.7-3.7
	c7.9,4,10.4,12.3,5.7,19c-3.1,4.4-6.1,5.6-28.4,11.6c-19.7,5.3-25.3,7.4-26.7,10.1c-1.4,2.7-1.1,3.8,1.5,5.5
	c2.6,1.6,8.5,0.7,27.7-4.5c23.2-6.2,24.7-6.4,30.6-3.4c8,4,10.2,11.9,5.4,18.8c-3.4,4.8-5.8,5.8-28.4,11.8
	c-19.4,5.2-25.1,7.3-26.5,10c-1.4,2.7-1.1,3.8,1.5,5.5c5.2,3.3,50.9-9.4,59-16.4c11.9-10.2,11.8-30.7-0.2-37.5
	c-4.5-2.5-4.5-2.9-1.9-11.3c5.3-17.2-7.3-32.4-26.5-31.9C283.1,156.6,246,167.2,242.6,171z M237.9,194.6
	c-11.3,10.8-11.9,27.6-1.2,35.1c11.4,8,15.2,8.1,41.8,1.3c33.7-8.7,31.9-7.9,30.5-13.1l-1.2-4.6l-26.3,7c-23.5,6.3-27,6.8-32.7,4.7
	c-7.7-2.8-11-11.8-7.1-19.4c2.4-4.7,4.1-5.4,28.1-11.6c26.8-7,31.3-9.2,28.5-14.5c-1.5-2.9-4.1-2.6-28.4,3.4
	C246.8,188.7,242.5,190.2,237.9,194.6z"/>
<path class="st0" d="M242.6,58.5c-1.6,1.8-1.8,4.1-0.5,5.7c1.9,2.4,5.4,1.9,27.6-4c24.3-6.5,25.7-6.7,31.7-3.7
	c7.9,4,10.4,12.3,5.7,19c-3.1,4.4-6.1,5.6-28.4,11.6c-19.7,5.3-25.3,7.4-26.7,10.1c-1.4,2.7-1.1,3.8,1.5,5.5
	c2.6,1.6,8.5,0.7,27.7-4.5c23.2-6.2,24.7-6.4,30.6-3.4c8,4,10.2,11.9,5.4,18.8c-3.4,4.8-5.8,5.8-28.4,11.8
	c-19.4,5.2-25.1,7.3-26.5,10c-1.4,2.7-1.1,3.8,1.5,5.5c5.2,3.3,50.9-9.4,59-16.4c11.9-10.2,11.8-30.7-0.2-37.5
	c-4.5-2.5-4.5-2.9-1.9-11.3c5.3-17.2-7.3-32.4-26.5-31.9C283.1,44.1,246,54.7,242.6,58.5z M237.9,82.1
	c-11.3,10.8-11.9,27.6-1.2,35.1c11.4,8,15.2,8.1,41.8,1.3c33.7-8.7,31.9-7.9,30.5-13.1l-1.2-4.6l-26.3,7c-23.5,6.3-27,6.8-32.7,4.7
	c-7.7-2.8-11-11.8-7.1-19.4c2.4-4.7,4.1-5.4,28.1-11.6c26.8-7,31.3-9.2,28.5-14.5c-1.5-2.9-4.1-2.6-28.4,3.4
	C246.8,76.1,242.5,77.7,237.9,82.1z"/>
<path class="st0" d="M126.3,140.2c-1.6,1.8-1.8,4.1-0.5,5.7c1.9,2.4,5.4,1.9,27.6-4c24.3-6.5,25.7-6.7,31.7-3.7
	c7.9,4,10.4,12.3,5.7,19c-3.1,4.4-6.1,5.6-28.4,11.6c-19.7,5.3-25.3,7.4-26.7,10.1c-1.4,2.7-1.1,3.8,1.5,5.5
	c2.6,1.6,8.5,0.7,27.7-4.5c23.2-6.2,24.7-6.4,30.6-3.4c8,4,10.2,11.9,5.4,18.8c-3.4,4.8-5.8,5.8-28.4,11.8
	c-19.4,5.2-25.1,7.3-26.5,10c-1.4,2.7-1.1,3.8,1.5,5.5c5.2,3.3,50.9-9.4,59-16.4c11.9-10.2,11.8-30.7-0.2-37.5
	c-4.5-2.5-4.5-2.9-1.9-11.3c5.3-17.2-7.3-32.4-26.5-31.9C166.9,125.8,129.8,136.4,126.3,140.2z M121.7,163.8
	c-11.3,10.8-11.9,27.6-1.2,35.1c11.4,8,15.2,8.1,41.8,1.3c33.7-8.7,31.9-7.9,30.5-13.1l-1.2-4.6l-26.3,7c-23.5,6.3-27,6.8-32.7,4.7
	c-7.7-2.8-11-11.8-7.1-19.4c2.4-4.7,4.1-5.4,28.1-11.6c26.8-7,31.3-9.2,28.5-14.5c-1.5-2.9-4.1-2.6-28.4,3.4
	C130.6,157.8,126.3,159.4,121.7,163.8z"/>
<path class="st0" d="M126.3,27.7c-1.6,1.8-1.8,4.1-0.5,5.7c1.9,2.4,5.4,1.9,27.6-4c24.3-6.5,25.7-6.7,31.7-3.7
	c7.9,4,10.4,12.3,5.7,19c-3.1,4.4-6.1,5.6-28.4,11.6c-19.7,5.3-25.3,7.4-26.7,10.1c-1.4,2.7-1.1,3.8,1.5,5.5
	c2.6,1.6,8.5,0.7,27.7-4.5c23.2-6.2,24.7-6.4,30.6-3.4c8,4,10.2,11.9,5.4,18.8c-3.4,4.8-5.8,5.8-28.4,11.8
	c-19.4,5.2-25.1,7.3-26.5,10c-1.4,2.7-1.1,3.8,1.5,5.5c5.2,3.3,50.9-9.4,59-16.4c11.9-10.2,11.8-30.7-0.2-37.5
	c-4.5-2.5-4.5-2.9-1.9-11.3c5.3-17.2-7.3-32.4-26.5-31.9C166.9,13.3,129.8,23.8,126.3,27.7z M121.7,51.3
	c-11.3,10.8-11.9,27.6-1.2,35.1c11.4,8,15.2,8.1,41.8,1.3c33.7-8.7,31.9-7.9,30.5-13.1l-1.2-4.6l-26.3,7c-23.5,6.3-27,6.8-32.7,4.7
	c-7.7-2.8-11-11.8-7.1-19.4c2.4-4.7,4.1-5.4,28.1-11.6c26.8-7,31.3-9.2,28.5-14.5c-1.5-2.9-4.1-2.6-28.4,3.4
	C130.6,45.3,126.3,46.9,121.7,51.3z"/>
<path class="st0" d="M17.7,197.7c-1.6,1.8-1.8,4.1-0.5,5.7c1.9,2.4,5.4,1.9,27.6-4c24.3-6.5,25.7-6.7,31.7-3.7
	c7.9,4,10.4,12.3,5.7,19c-3.1,4.4-6.1,5.6-28.4,11.6c-19.7,5.3-25.3,7.4-26.7,10.1c-1.4,2.7-1.1,3.8,1.5,5.5
	c2.6,1.6,8.5,0.7,27.7-4.5c23.2-6.2,24.7-6.4,30.6-3.4c8,4,10.2,11.9,5.4,18.8c-3.4,4.8-5.8,5.8-28.4,11.8
	c-19.4,5.2-25.1,7.3-26.5,10c-1.4,2.7-1.1,3.8,1.5,5.5c5.2,3.3,50.9-9.4,59-16.4c11.9-10.2,11.8-30.7-0.2-37.5
	c-4.5-2.5-4.5-2.9-1.9-11.3c5.3-17.2-7.3-32.4-26.5-31.9C58.2,183.3,21.1,193.9,17.7,197.7z M13,221.3C1.7,232.2,1.1,249,11.8,256.5
	c11.4,8,15.2,8.1,41.8,1.3c33.7-8.7,31.9-7.9,30.5-13.1l-1.2-4.6l-26.3,7c-23.5,6.3-27,6.8-32.7,4.7c-7.7-2.8-11-11.8-7.1-19.4
	c2.4-4.7,4.1-5.4,28.1-11.6c26.8-7,31.3-9.2,28.5-14.5c-1.5-2.9-4.1-2.6-28.4,3.4C21.9,215.3,17.6,216.9,13,221.3z"/>
<path class="st0" d="M17.7,85.2c-1.6,1.8-1.8,4.1-0.5,5.7c1.9,2.4,5.4,1.9,27.6-4c24.3-6.5,25.7-6.7,31.7-3.7
	c7.9,4,10.4,12.3,5.7,19c-3.1,4.4-6.1,5.6-28.4,11.6c-19.7,5.3-25.3,7.4-26.7,10.1c-1.4,2.7-1.1,3.8,1.5,5.5
	c2.6,1.6,8.5,0.7,27.7-4.5c23.2-6.2,24.7-6.4,30.6-3.4c8,4,10.2,11.9,5.4,18.8c-3.4,4.8-5.8,5.8-28.4,11.8
	c-19.4,5.2-25.1,7.3-26.5,10c-1.4,2.7-1.1,3.8,1.5,5.5c5.2,3.3,50.9-9.4,59-16.4c11.9-10.2,11.8-30.7-0.2-37.5
	c-4.5-2.5-4.5-2.9-1.9-11.3C101,85.2,88.4,70,69.2,70.5C58.2,70.8,21.1,81.3,17.7,85.2z M13,108.8c-11.3,10.8-11.9,27.6-1.2,35.1
	c11.4,8,15.2,8.1,41.8,1.3c33.7-8.7,31.9-7.9,30.5-13.1l-1.2-4.6l-26.3,7c-23.5,6.3-27,6.8-32.7,4.7c-7.7-2.8-11-11.8-7.1-19.4
	c2.4-4.7,4.1-5.4,28.1-11.6c26.8-7,31.3-9.2,28.5-14.5c-1.5-2.9-4.1-2.6-28.4,3.4C21.9,102.8,17.6,104.4,13,108.8z"/>
<path class="st0" d="M138.5,258.6c-1.6,1.8-1.8,4.1-0.5,5.7c1.9,2.4,5.4,1.9,27.6-4c24.3-6.5,25.7-6.7,31.7-3.7
	c7.9,4,10.4,12.3,5.7,19c-3.1,4.4-6.1,5.6-28.4,11.6c-19.7,5.3-25.3,7.4-26.7,10.1c-1.4,2.7-1.1,3.8,1.5,5.5
	c2.6,1.6,8.5,0.7,27.7-4.5c23.2-6.2,24.7-6.4,30.6-3.4c8,4,10.2,11.9,5.4,18.8c-3.4,4.8-5.8,5.8-28.4,11.8
	c-19.4,5.2-25.1,7.3-26.5,10c-1.4,2.7-1.1,3.8,1.5,5.5c5.2,3.3,50.9-9.4,59-16.4c11.9-10.2,11.8-30.7-0.2-37.5
	c-4.5-2.5-4.5-2.9-1.9-11.3c5.3-17.2-7.3-32.4-26.5-31.9C179,244.2,141.9,254.7,138.5,258.6z M133.9,282.2
	c-11.3,10.8-11.9,27.6-1.2,35.1c11.4,8,15.2,8.1,41.8,1.3c33.7-8.7,31.9-7.9,30.5-13.1l-1.2-4.6l-26.3,7c-23.5,6.3-27,6.8-32.7,4.7
	c-7.7-2.8-11-11.8-7.1-19.4c2.4-4.7,4.1-5.4,28.1-11.6c26.8-7,31.3-9.2,28.5-14.5c-1.5-2.9-4.1-2.6-28.4,3.4
	C142.8,276.2,138.4,277.8,133.9,282.2z"/>
<path class="st0" d="M358.8-28.6c-1.6,1.8-1.8,4.1-0.5,5.7c1.9,2.4,5.4,1.9,27.6-4c24.3-6.5,25.7-6.7,31.7-3.7
	c7.9,4,10.4,12.3,5.7,19C420.3-7.1,417.2-5.9,395,0c-19.7,5.3-25.3,7.4-26.7,10.1c-1.4,2.7-1.1,3.8,1.5,5.5
	c2.6,1.6,8.5,0.7,27.7-4.5c23.2-6.2,24.7-6.4,30.6-3.4c8,4,10.2,11.9,5.4,18.8c-3.4,4.8-5.8,5.8-28.4,11.8
	c-19.4,5.2-25.1,7.3-26.5,10c-1.4,2.7-1.1,3.8,1.5,5.5c5.2,3.3,50.9-9.4,59-16.4c11.9-10.2,11.8-30.7-0.2-37.5
	c-4.5-2.5-4.5-2.9-1.9-11.3c5.3-17.2-7.3-32.4-26.5-31.9C399.4-43,362.3-32.4,358.8-28.6z M354.2-5c-11.3,10.8-11.9,27.6-1.2,35.1
	c11.4,8,15.2,8.1,41.8,1.3c33.7-8.7,31.9-7.9,30.5-13.1l-1.2-4.6l-26.3,7c-23.5,6.3-27,6.8-32.7,4.7c-7.7-2.8-11-11.8-7.1-19.4
	c2.4-4.7,4.1-5.4,28.1-11.6c26.8-7,31.3-9.2,28.5-14.5c-1.5-2.9-4.1-2.6-28.4,3.4C363.1-11,358.8-9.4,354.2-5z"/>
<path class="st0" d="M239.5-56.1c-1.6,1.8-1.8,4.1-0.5,5.7c1.9,2.4,5.4,1.9,27.6-4c24.3-6.5,25.7-6.7,31.7-3.7
	c7.9,4,10.4,12.3,5.7,19c-3.1,4.4-6.1,5.6-28.4,11.6c-19.7,5.3-25.3,7.4-26.7,10.1c-1.4,2.7-1.1,3.8,1.5,5.5
	c2.6,1.6,8.5,0.7,27.7-4.5c23.2-6.2,24.7-6.4,30.6-3.4c8,4,10.2,11.9,5.4,18.8c-3.4,4.8-5.8,5.8-28.4,11.8
	c-19.4,5.2-25.1,7.3-26.5,10c-1.4,2.7-1.1,3.8,1.5,5.5c5.2,3.3,50.9-9.4,59-16.4c11.9-10.2,11.8-30.7-0.2-37.5
	c-4.5-2.5-4.5-2.9-1.9-11.3c5.3-17.2-7.3-32.4-26.5-31.9C280.1-70.5,243-59.9,239.5-56.1z M234.9-32.4C223.5-21.6,223-4.8,233.7,2.7
	c11.4,8,15.2,8.1,41.8,1.3c33.7-8.7,31.9-7.9,30.5-13.1l-1.2-4.6l-26.3,7c-23.5,6.3-27,6.8-32.7,4.7c-7.7-2.8-11-11.8-7.1-19.4
	c2.4-4.7,4.1-5.4,28.1-11.6c26.8-7,31.3-9.2,28.5-14.5c-1.5-2.9-4.1-2.6-28.4,3.4C243.8-38.4,239.5-36.8,234.9-32.4z"/>
<path class="st0" d="M13.1-27.4c-1.6,1.8-1.8,4.1-0.5,5.7c1.9,2.4,5.4,1.9,27.6-4C64.6-32.1,66-32.3,72-29.3c7.9,4,10.4,12.3,5.7,19
	c-3.1,4.4-6.1,5.6-28.4,11.6C29.6,6.5,23.9,8.7,22.5,11.4c-1.4,2.7-1.1,3.8,1.5,5.5c2.6,1.6,8.5,0.7,27.7-4.5
	C74.8,6.2,76.3,6,82.2,9c8,4,10.2,11.9,5.4,18.8c-3.4,4.8-5.8,5.8-28.4,11.8c-19.4,5.2-25.1,7.3-26.5,10c-1.4,2.7-1.1,3.8,1.5,5.5
	c5.2,3.3,50.9-9.4,59-16.4C105.2,28.5,105.1,8,93.1,1.2c-4.5-2.5-4.5-2.9-1.9-11.3c5.3-17.2-7.3-32.4-26.5-31.9
	C53.6-41.8,16.5-31.2,13.1-27.4z M8.5-3.8C-2.9,7.1-3.5,23.9,7.3,31.4c11.4,8,15.2,8.1,41.8,1.3c33.7-8.7,31.9-7.9,30.5-13.1
	L78.3,15l-26.3,7c-23.5,6.3-27,6.8-32.7,4.7c-7.7-2.8-11-11.8-7.1-19.4c2.4-4.7,4.1-5.4,28.1-11.6c26.8-7,31.3-9.2,28.5-14.5
	c-1.5-2.9-4.1-2.6-28.4,3.4C17.4-9.7,13.1-8.1,8.5-3.8z"/>
<path class="st0" d="M255.3,283.6c-1.6,1.8-1.8,4.1-0.5,5.7c1.9,2.4,5.4,1.9,27.6-4c24.3-6.5,25.7-6.7,31.7-3.7
	c7.9,4,10.4,12.3,5.7,19c-3.1,4.4-6.1,5.6-28.4,11.6c-19.7,5.3-25.3,7.4-26.7,10.1c-1.4,2.7-1.1,3.8,1.5,5.5
	c2.6,1.6,8.5,0.7,27.7-4.5c23.2-6.2,24.7-6.4,30.6-3.4c8,4,10.2,11.9,5.4,18.8c-3.4,4.8-5.8,5.8-28.4,11.8
	c-19.4,5.2-25.1,7.3-26.5,10c-1.4,2.7-1.1,3.8,1.5,5.5c5.2,3.3,50.9-9.4,59-16.4c11.9-10.2,11.8-30.7-0.2-37.5
	c-4.5-2.5-4.5-2.9-1.9-11.3c5.3-17.2-7.3-32.4-26.5-31.9C295.9,269.2,258.8,279.7,255.3,283.6z M250.7,307.2
	c-11.3,10.8-11.9,27.6-1.2,35.1c11.4,8,15.2,8.1,41.8,1.3c33.7-8.7,31.9-7.9,30.5-13.1l-1.2-4.6l-26.3,7c-23.5,6.3-27,6.8-32.7,4.7
	c-7.7-2.8-11-11.8-7.1-19.4c2.4-4.7,4.1-5.4,28.1-11.6c26.8-7,31.3-9.2,28.5-14.5c-1.5-2.9-4.1-2.6-28.4,3.4
	C259.6,301.2,255.3,302.8,250.7,307.2z"/>
</svg>
