<svg width="43" height="27" viewBox="0 0 43 27" fill="none" xmlns="http://www.w3.org/2000/svg">
<path d="M13.4933 27C20.7364 27 26.6081 20.9558 26.6081 13.5C26.6081 6.04416 20.7364 0 13.4933 0C6.25014 0 0.378418 6.04416 0.378418 13.5C0.378418 20.9558 6.25014 27 13.4933 27Z" fill="#2285DD"/>
<path fill-rule="evenodd" clip-rule="evenodd" d="M21.6901 24.03C21.8425 23.9034 21.9802 23.7583 22.1278 23.625H21.2507C21.3999 23.7583 21.5376 23.9034 21.6901 24.03Z" fill="#376BD1"/>
<path fill-rule="evenodd" clip-rule="evenodd" d="M29.8868 0C25.7475 0 22.0622 1.97944 19.6572 5.0625H23.7228C24.1343 5.59069 24.4933 6.16106 24.8261 6.75H18.5523H18.5392C18.2343 7.29169 17.9621 7.85194 17.7326 8.4375H17.7474H25.6311C25.8475 8.98425 26.0343 9.5445 26.1802 10.125H17.2015C17.0638 10.6751 16.9539 11.2371 16.8851 11.8125H26.4999C26.5671 12.366 26.6081 12.9279 26.6081 13.5H16.772C16.772 14.0721 16.8179 14.634 16.8851 15.1875H26.4999C26.4294 15.7629 26.318 16.3249 26.1802 16.875H17.2015C17.3457 17.4521 17.5195 18.0174 17.7343 18.5625H17.749H25.6327C25.4016 19.1464 25.1327 19.71 24.8278 20.25H18.554H18.5408C18.8736 20.8423 19.2441 21.4076 19.6572 21.9375H23.7228C23.2442 22.5501 22.7015 23.1069 22.1278 23.625H21.2507H21.231C23.5409 25.7192 26.5655 27 29.8852 27C37.1279 27 43.0001 20.9554 43.0001 13.5C43.0001 6.04462 37.1295 0 29.8868 0Z" fill="#F01524"/>
</svg>
