<svg width="43" height="27" viewBox="0 0 43 27" fill="none" xmlns="http://www.w3.org/2000/svg">
<path d="M13.3614 27C20.6046 27 26.4763 20.9558 26.4763 13.5C26.4763 6.04416 20.6046 0 13.3614 0C6.11831 0 0.246582 6.04416 0.246582 13.5C0.246582 20.9558 6.11831 27 13.3614 27Z" fill="#F01524"/>
<path fill-rule="evenodd" clip-rule="evenodd" d="M21.5582 24.03C21.7107 23.9034 21.8484 23.7583 21.996 23.625H21.1189C21.2681 23.7583 21.4058 23.9034 21.5582 24.03Z" fill="#376BD1"/>
<path fill-rule="evenodd" clip-rule="evenodd" d="M29.755 0C25.6156 0 21.9303 1.97944 19.5254 5.0625H23.591C24.0025 5.59069 24.3615 6.16106 24.6943 6.75H18.4205H18.4074C18.1024 7.29169 17.8303 7.85194 17.6008 8.4375H17.6156H25.4992C25.7156 8.98425 25.9025 9.5445 26.0484 10.125H17.0696C16.9319 10.6751 16.8221 11.2371 16.7533 11.8125H26.3681C26.4353 12.366 26.4763 12.9279 26.4763 13.5H16.6401C16.6401 14.0721 16.686 14.634 16.7533 15.1875H26.3681C26.2976 15.7629 26.1861 16.3249 26.0484 16.875H17.0696C17.2139 17.4521 17.3877 18.0174 17.6024 18.5625H17.6172H25.5009C25.2697 19.1464 25.0009 19.71 24.6959 20.25H18.4221H18.409C18.7418 20.8423 19.1123 21.4076 19.5254 21.9375H23.591C23.1123 22.5501 22.5697 23.1069 21.9959 23.625H21.1189H21.0992C23.409 25.7192 26.4337 27 29.7534 27C36.996 27 42.8682 20.9554 42.8682 13.5C42.8682 6.04462 36.9977 0 29.755 0Z" fill="#FEB415"/>
<path d="M13.3614 27C20.6046 27 26.4763 20.9558 26.4763 13.5C26.4763 6.04416 20.6046 0 13.3614 0C6.11831 0 0.246582 6.04416 0.246582 13.5C0.246582 20.9558 6.11831 27 13.3614 27Z" fill="#F01524"/>
<path fill-rule="evenodd" clip-rule="evenodd" d="M29.755 0C25.6156 0 21.9303 1.97944 19.5254 5.0625H23.591C24.0025 5.59069 24.3615 6.16106 24.6943 6.75H18.4205H18.4074C18.1024 7.29169 17.8303 7.85194 17.6008 8.4375H17.6156H25.4992C25.7156 8.98425 25.9025 9.5445 26.0484 10.125H17.0696C16.9319 10.6751 16.8221 11.2371 16.7533 11.8125H26.3681C26.4353 12.366 26.4763 12.9279 26.4763 13.5H16.6401C16.6401 14.0721 16.686 14.634 16.7533 15.1875H26.3681C26.2976 15.7629 26.1861 16.3249 26.0484 16.875H17.0696C17.2139 17.4521 17.3877 18.0174 17.6024 18.5625H17.6172H25.5009C25.2697 19.1464 25.0009 19.71 24.6959 20.25H18.4221H18.409C18.7418 20.8423 19.1123 21.4076 19.5254 21.9375H23.591C23.1123 22.5501 22.5697 23.1069 21.9959 23.625H21.1189H21.0992C23.409 25.7192 26.4337 27 29.7534 27C36.996 27 42.8682 20.9554 42.8682 13.5C42.8682 6.04462 36.9977 0 29.755 0Z" fill="#FEB415"/>
</svg>
