<svg width="53" height="18" viewBox="0 0 53 18" fill="none" xmlns="http://www.w3.org/2000/svg">
<path fill-rule="evenodd" clip-rule="evenodd" d="M18.6199 16.8162H22.897L25.574 0.656738H21.2953L18.6199 16.8162Z" fill="#282735"/>
<path fill-rule="evenodd" clip-rule="evenodd" d="M34.202 7.14525C32.7069 6.39769 31.7905 5.89819 31.8003 5.14219C31.8003 4.47056 32.5757 3.75169 34.2511 3.75169C35.6216 3.72975 36.7266 4.01662 37.838 4.55662L38.4184 1.05337C37.5708 0.726 36.2429 0.375 34.5839 0.375C30.356 0.375 27.3773 2.56706 27.3527 5.7075C27.3281 8.0295 29.479 9.3255 31.1019 10.0984C32.7675 10.8898 33.3282 11.3961 33.32 12.1031C33.3101 13.1865 31.9905 13.6809 30.7593 13.6809C28.8609 13.6809 27.9035 13.3789 26.1806 12.5756L25.5806 16.1936C26.5806 16.6442 28.4281 17.0357 30.3478 17.0559C34.8462 17.0559 37.7659 14.8892 37.7987 11.5344C37.8102 9.69675 36.6708 8.29781 34.202 7.14525Z" fill="#282735"/>
<path fill-rule="evenodd" clip-rule="evenodd" d="M49.3888 0.671875H46.0822C45.0576 0.671875 44.292 0.960437 43.8412 2.01175L37.4871 16.8213H41.9805C41.9805 16.8213 42.715 14.83 42.8822 14.3929C43.374 14.3929 47.738 14.3997 48.3626 14.3997C48.4904 14.965 48.8839 16.8213 48.8839 16.8213H52.8544L49.3888 0.671875ZM44.1133 11.0888C44.2904 10.6231 46.0363 6.00775 46.3855 5.029C46.9642 7.81506 46.4002 5.11169 47.6658 11.0888H44.1133Z" fill="#282735"/>
<path fill-rule="evenodd" clip-rule="evenodd" d="M15.0313 0.668816L10.8411 11.6882L10.3952 9.44888L8.89516 2.02219C8.63614 0.999566 7.88531 0.694129 6.9558 0.658691H0.0540988L0 0.994504C1.6787 1.413 3.17871 2.01713 4.49512 2.76638L8.30007 16.8013L12.828 16.7963L19.5641 0.667129H15.0313V0.668816Z" fill="#282735"/>
</svg>
