<svg xmlns="http://www.w3.org/2000/svg" width="749" height="640" viewBox="0 0 749 640" id="rouble-2">
    <g fill="none" fill-rule="evenodd">
        <circle cx="296.964" cy="343.036" r="296.964" fill="#FAF144"></circle>
        <g fill="#191919" transform="translate(180)">
            <path d="M101.44 502.786h32.05v-85.133h-32.05z"></path>
            <path d="M278.44 357.559H0v-32.14h278.44c80.628 0 146.231-65.787 146.231-146.64 0-80.86-65.603-146.639-146.23-146.639H136.206v233.016h-32.05V0H278.44c98.297 0 178.274 80.2 178.274 178.78S376.737 357.558 278.44 357.558">
            </path>

            <g id="path-2-1" style="opacity: 0;" transform="translate(326 155)">
                <path id="Fill-40" d="M41.2 24.067c0 11.116-9.013 20.12-20.12 20.12-11.117 0-20.13-9.004-20.13-20.12 0-11.108 9.013-20.12 20.13-20.12 11.107 0 20.12 9.012 20.12 20.12">
                </path>
                <path id="Fill-60" d="M166.843 31.128V17.053L210.537.596v16.457l-21.143 7.017 21.143 7.058v16.415z">
                </path>
            </g>
            <g id="path-2-2" style="opacity: 0;" transform="translate(326 155)">
                <path id="Fill-41" d="M166.841 31.129V17.054L210.535.589v16.465l-21.143 7.017 21.143 7.058v16.415z">
                </path>
                <path id="Fill-70" d="M44.316 31.129V17.054L.622.589v16.465l21.143 7.017L.622 31.129v16.415z"></path>
            </g>
            <g id="path-2-3" style="opacity: 0;" transform="translate(298 124)">
                <path id="Fill-42" d="M69.195 55.072c0 11.108-9.004 20.112-20.12 20.112-11.116 0-20.12-9.004-20.12-20.112 0-11.116 9.004-20.12 20.12-20.12 11.116 0 20.12 9.004 20.12 20.12">
                </path>
                <path id="Fill-61" d="M238.205 55.072c0 11.108-9.004 20.112-20.12 20.112-11.117 0-20.12-9.004-20.12-20.112 0-11.116 9.003-20.12 20.12-20.12 11.116 0 20.12 9.004 20.12 20.12">
                </path>
                <path id="Fill-80" d="M9.947 42.849l-9.071-14.1L44.888.455l9.071 14.101z"></path>
                <path id="Fill-10" d="M254.865 42.849l-44.013-28.293L219.923.455l44.013 28.294z"></path>
            </g>
            <g id="path-2-4" style="opacity: 0;" transform="translate(316 133)">
                <path id="Fill-5" d="M34.524 58.748c0-.948-.57-1.77-1.719-2.457-1.148-.687-2.615-1.332-4.393-1.936a305.871 305.871 0 0 0-5.994-1.97 40.013 40.013 0 0 1-6.58-2.775c-2.18-1.149-4.159-2.473-5.928-3.974-1.76-1.509-3.219-3.538-4.367-6.094-1.149-2.557-1.719-5.433-1.719-8.644 0-5.113 1.777-9.573 5.332-13.388 3.546-3.814 8.14-6.455 13.774-7.93V.936h18.62V9.48c3.403.754 6.496 1.886 9.28 3.387 2.783 1.509 4.686 2.817 5.7 3.932l1.618 1.718-13.061 13.606c-.26-.394-.68-.855-1.258-1.4-.57-.536-1.735-1.282-3.487-2.23-1.752-.955-3.53-1.425-5.323-1.425-1.937 0-3.43.42-4.477 1.274-1.048.856-1.568 1.937-1.568 3.245 0 1.081.755 2.037 2.255 2.875 1.51.83 3.404 1.518 5.676 2.063 2.28.536 4.745 1.383 7.394 2.523a53.97 53.97 0 0 1 7.394 3.881c2.272 1.442 4.175 3.589 5.7 6.439 1.518 2.85 2.28 6.153 2.28 9.917 0 5.374-1.642 9.951-4.937 13.732-3.286 3.781-7.687 6.573-13.187 8.375v9.088H22.93v-8.25c-4.291-.653-8.274-1.953-11.962-3.881-3.68-1.937-6.296-3.672-7.83-5.206L.78 70.828l13.112-13.061c.46.461 1.09 1.056 1.894 1.794.797.738 2.398 1.71 4.787 2.917 2.39 1.216 4.695 1.82 6.9 1.82 2.213 0 3.94-.537 5.18-1.618 1.25-1.082 1.87-2.39 1.87-3.932">
                </path>
                <path id="Fill-71" d="M205.073 58.748c0-.948-.57-1.77-1.719-2.457-1.148-.687-2.615-1.332-4.393-1.936a305.872 305.872 0 0 0-5.994-1.97 40.013 40.013 0 0 1-6.58-2.775c-2.18-1.149-4.159-2.473-5.928-3.974-1.76-1.509-3.219-3.538-4.367-6.094-1.149-2.557-1.719-5.433-1.719-8.644 0-5.113 1.777-9.573 5.332-13.388 3.546-3.814 8.14-6.455 13.774-7.93V.936h18.619V9.48c3.404.754 6.497 1.886 9.28 3.387 2.784 1.509 4.687 2.817 5.701 3.932l1.618 1.718-13.061 13.606c-.26-.394-.68-.855-1.258-1.4-.57-.536-1.735-1.282-3.487-2.23-1.752-.955-3.53-1.425-5.324-1.425-1.936 0-3.428.42-4.476 1.274-1.048.856-1.568 1.937-1.568 3.245 0 1.081.755 2.037 2.255 2.875 1.51.83 3.404 1.518 5.676 2.063 2.28.536 4.745 1.383 7.394 2.523a53.97 53.97 0 0 1 7.394 3.881c2.272 1.442 4.175 3.589 5.7 6.439 1.518 2.85 2.28 6.153 2.28 9.917 0 5.374-1.642 9.951-4.937 13.732-3.286 3.781-7.688 6.573-13.187 8.375v9.088h-18.62v-8.25c-4.292-.653-8.274-1.953-11.962-3.881-3.68-1.937-6.296-3.672-7.83-5.206l-2.356-2.314 13.111-13.061c.461.461 1.09 1.056 1.895 1.794.796.738 2.398 1.71 4.787 2.917 2.39 1.216 4.695 1.82 6.9 1.82 2.213 0 3.94-.537 5.18-1.618 1.25-1.082 1.87-2.39 1.87-3.932">
                </path>
            </g>
            <g id="path-2-5" style="opacity: 0;" transform="translate(313 150)">
                <path id="Fill-43" d="M34.25 58.114h-.176a2.291 2.291 0 0 1-1.383-.344 186.612 186.612 0 0 0-5.399-3.337c-4.443-2.69-9.029-5.474-13.28-8.936-6.99-5.7-11.308-12.257-12.809-19.483-1.24-5.969-.73-11.477 1.476-15.928C7.499.378 18.674-1.894 26.697 1.509c1.71.73 5.072 2.39 7.377 5.072C36.38 3.9 39.741 2.24 41.452 1.51 49.474-1.903 60.649.378 65.47 10.086c2.205 4.451 2.716 9.95 1.475 15.928-1.5 7.226-5.818 13.782-12.81 19.483-4.241 3.454-8.844 6.245-13.279 8.936a198.785 198.785 0 0 0-5.399 3.337 2.357 2.357 0 0 1-1.207.344">
                </path>
                <path id="Fill-62" d="M201.917 58.114h-.176a2.291 2.291 0 0 1-1.383-.344 186.611 186.611 0 0 0-5.4-3.337c-4.442-2.69-9.028-5.474-13.278-8.936-6.992-5.7-11.31-12.257-12.81-19.483-1.24-5.969-.73-11.477 1.475-15.928 4.82-9.708 15.996-11.98 24.019-8.577 1.71.73 5.071 2.39 7.377 5.072 2.305-2.682 5.667-4.342 7.377-5.072 8.023-3.412 19.198-1.131 24.018 8.577 2.205 4.451 2.717 9.95 1.476 15.928-1.5 7.226-5.818 13.782-12.81 19.483-4.242 3.454-8.844 6.245-13.279 8.936a198.786 198.786 0 0 0-5.399 3.337 2.357 2.357 0 0 1-1.207.344">
                </path>
            </g>
            <g id="path-2-6" style="opacity: 1;" transform="translate(312 138)">
                <path id="Fill-44" d="M49.532 41.574c-1.165-1.22-2.46-1.826-3.876-1.826-1.417 0-2.703.606-3.849 1.826-1.146 1.221-1.723 2.647-1.723 4.287 0 1.64.577 3.074 1.723 4.314 1.146 1.239 2.432 1.854 3.849 1.854 1.416 0 2.711-.615 3.876-1.854 1.164-1.24 1.742-2.674 1.742-4.314 0-1.64-.578-3.066-1.742-4.287m-7.203-16.408c1.63 0 3.159.289 4.584.848 1.417.568 2.423 1.1 3 1.612l.765.932v-2.786H65.8v21.235c0 1.64.485 2.972 1.445 4.016.969 1.034 2.161 1.556 3.578 1.556 1.789 0 3.26-.783 4.426-2.348 1.164-1.566 1.742-3.951 1.742-7.156 0-7.902-2.926-14.62-8.787-20.173-5.86-5.554-13.193-8.321-21.999-8.321-8.125 0-15.178 3.038-21.188 9.113-6 6.075-9.01 13.287-9.01 21.617 0 8.34 3.01 15.542 9.01 21.626 6.01 6.075 13.063 9.113 21.188 9.113 3.494 0 6.867-.55 10.12-1.668 3.26-1.109 5.674-2.227 7.24-3.354l2.235-1.696 8.955 10.65c-.289.289-.718.662-1.286 1.118-.56.457-1.78 1.258-3.653 2.404a48.625 48.625 0 0 1-5.87 3.056c-2.04.895-4.659 1.696-7.864 2.404a45.627 45.627 0 0 1-9.877 1.063c-12.523 0-23.2-4.389-32.025-13.185C5.356 68.055.94 57.545.94 45.311c0-12.225 4.416-22.735 13.24-31.522C23.004 4.993 33.682.604 46.205.604c12.952 0 23.835 4.156 32.64 12.468 8.815 8.32 13.213 18.318 13.213 30.003 0 7.389-1.845 13.147-5.535 17.284-3.699 4.128-8.563 6.196-14.61 6.196-2.833 0-5.404-.559-7.697-1.668-2.292-1.108-3.932-2.226-4.91-3.354l-1.37-1.696c-.14.15-.326.392-.54.736-.224.345-.755.895-1.612 1.64a18.657 18.657 0 0 1-2.786 1.994c-.997.578-2.302 1.118-3.904 1.612a17.623 17.623 0 0 1-5.134.736c-5.46 0-9.989-1.9-13.595-5.711-3.596-3.802-5.404-8.796-5.404-14.983 0-5.973 1.742-10.911 5.218-14.825 3.475-3.913 7.52-5.87 12.15-5.87">
                </path>
                <path id="Fill-63" d="M213.53 41.574c-1.164-1.22-2.46-1.826-3.875-1.826-1.417 0-2.703.606-3.849 1.826-1.146 1.221-1.723 2.647-1.723 4.287 0 1.64.577 3.074 1.723 4.314 1.146 1.239 2.432 1.854 3.849 1.854 1.416 0 2.711-.615 3.876-1.854 1.164-1.24 1.742-2.674 1.742-4.314 0-1.64-.578-3.066-1.742-4.287m-7.203-16.408c1.63 0 3.159.289 4.584.848 1.417.568 2.423 1.1 3 1.612l.765.932v-2.786h15.122v21.235c0 1.64.485 2.972 1.445 4.016.969 1.034 2.161 1.556 3.578 1.556 1.789 0 3.26-.783 4.426-2.348 1.164-1.566 1.742-3.951 1.742-7.156 0-7.902-2.926-14.62-8.787-20.173-5.86-5.554-13.194-8.321-21.999-8.321-8.125 0-15.178 3.038-21.188 9.113-6 6.075-9.01 13.287-9.01 21.617 0 8.34 3.01 15.542 9.01 21.626 6.01 6.075 13.063 9.113 21.188 9.113 3.494 0 6.867-.55 10.12-1.668 3.26-1.109 5.674-2.227 7.24-3.354l2.235-1.696 8.955 10.65c-.29.289-.718.662-1.286 1.118-.56.457-1.78 1.258-3.653 2.404a48.625 48.625 0 0 1-5.87 3.056c-2.04.895-4.659 1.696-7.864 2.404a45.627 45.627 0 0 1-9.877 1.063c-12.523 0-23.2-4.389-32.025-13.185-8.824-8.787-13.24-19.297-13.24-31.531 0-12.225 4.416-22.735 13.24-31.522C187.003 4.993 197.681.604 210.204.604c12.952 0 23.835 4.156 32.64 12.468 8.815 8.32 13.213 18.318 13.213 30.003 0 7.389-1.845 13.147-5.535 17.284-3.7 4.128-8.563 6.196-14.61 6.196-2.833 0-5.404-.559-7.697-1.668-2.292-1.108-3.932-2.226-4.91-3.354l-1.37-1.696c-.14.15-.326.392-.54.736-.224.345-.755.895-1.612 1.64a18.657 18.657 0 0 1-2.786 1.994c-.997.578-2.302 1.118-3.904 1.612a17.623 17.623 0 0 1-5.134.736c-5.46 0-9.989-1.9-13.595-5.711-3.597-3.802-5.404-8.796-5.404-14.983 0-5.973 1.742-10.911 5.218-14.825 3.475-3.913 7.52-5.87 12.15-5.87">
                </path>
            </g>
            <g id="path-2-7" style="opacity: 0;" transform="translate(283 116)">
                <path id="Fill-45" d="M77 63.067c0 7.336-5.943 13.271-13.279 13.271-7.327 0-13.27-5.935-13.27-13.27 0-7.336 5.943-13.272 13.27-13.272 7.336 0 13.28 5.936 13.28 13.271">
                </path>
                <path id="Fill-64" d="M266.878 63.067c0 11.116-9.004 20.12-20.112 20.12-11.116 0-20.128-9.004-20.128-20.12 0-11.108 9.012-20.12 20.128-20.12 11.108 0 20.112 9.012 20.112 20.12">
                </path>
                <path id="Fill-81" d="M63.721 100.792c-20.799 0-37.725-16.926-37.725-37.725 0-20.799 16.926-37.725 37.725-37.725 20.8 0 37.725 16.926 37.725 37.725 0 20.8-16.926 37.725-37.725 37.725m62.875-37.725c0-34.673-28.201-62.875-62.875-62.875C29.048.192.846 28.394.846 63.067c0 30.365 21.63 55.766 50.3 61.61v89.802h25.15v-89.803c28.671-5.843 50.3-31.244 50.3-61.609">
                </path>
            </g>
            <g id="path-2-8" style="opacity: 0;" transform="translate(313 153)">
                <path id="Fill-46" d="M67.615 2.43a33.45 33.45 0 0 1-33.533 33.534A33.444 33.444 0 0 1 .548 2.43c0-.553 0-1.257.135-1.81h66.79c.142.553.142 1.257.142 1.81">
                </path>
                <path id="Fill-65" d="M236.616 2.434a33.455 33.455 0 0 1-33.533 33.533c-18.577 0-33.533-14.956-33.533-33.533 0-.562 0-1.258.15-1.82h66.774c.142.562.142 1.258.142 1.82">
                </path>
            </g>
            <g id="path-2-9" style="opacity: 0;" transform="translate(313 159)">
                <path id="Fill-47" d="M212.13 30.296c0-5.96-4.736-10.768-10.566-10.768-5.804 0-10.523 4.808-10.523 10.725l-19.002.043v-.043c0-16.55 13.247-30.004 29.525-30.004 16.304 0 29.567 13.455 29.567 30.004l-19.001.043z">
                </path>
                <path id="Fill-66" d="M40.09 30.047c0-5.96-4.726-10.767-10.565-10.767-5.796 0-10.515 4.807-10.515 10.725L0 30.047v-.042C0 13.455 13.255 0 29.525 0 45.83 0 59.092 13.455 59.092 30.005l-19.001.042z">
                </path>
            </g>
            <g id="path-2-10" style="opacity: 0;" transform="translate(301 141)">
                <path id="Fill-48" d="M65.195 33.305c0 17.89-14.503 32.393-32.393 32.393S.408 51.195.408 33.305 14.912.91 32.802.91s32.393 14.504 32.393 32.394">
                </path>
                <path id="Fill-67" d="M229.014 33.305c0 7.687-6.238 13.924-13.925 13.924-7.688 0-13.925-6.237-13.925-13.924 0-7.688 6.237-13.925 13.925-13.925 7.687 0 13.925 6.237 13.925 13.925">
                </path>
            </g>
            <g id="path-2-0" transform="translate(326 158)" style="opacity: 0;">
                <path id="Fill-49" d="M41.192 21.07c0 11.108-9.004 20.12-20.112 20.12C9.955 41.19.952 32.178.952 21.07.952 9.953 9.955.95 21.08.95c11.108 0 20.112 9.003 20.112 20.12">
                </path>
                <path id="Fill-68" d="M209.961 20.95c0 11.041-8.95 20-19.991 20-11.059 0-20.009-8.959-20.009-20 0-11.05 8.95-20 20.009-20 11.041 0 19.991 8.95 19.991 20">
                </path>
            </g>
        </g>
    </g>
</svg>