<svg xmlns="http://www.w3.org/2000/svg" xmlns:xlink="http://www.w3.org/1999/xlink" id="rouble-1" width="59" height="45">
    <defs>
    <path id="path-1" d="M44.091 13.92H48v4.2h-3.909z"></path>
    <path id="path-3" d="M44.091 13.919H48v4.201h-3.909z"></path>
    <path id="path-5" d="M45.524 11.134h4.749v3.793h-4.749z"></path>
    </defs>
    <g fill="none" fill-rule="evenodd">
    <path fill="#FAF144" d="M35.2 22.5c0 9.445-7.656 17.1-17.1 17.1C8.655 39.6 1 31.945 1 22.5S8.655 5.4 18.1 5.4c9.444 0 17.1 7.655 17.1 17.1">
    </path>
    <path fill="#191919" d="M16.21 45h2.88v-7.56h-2.88z"></path>
    <path fill="#191919" d="M32.05 32.04H7.03v-2.88H32.05c7.245 0 13.14-5.894 13.14-13.14 0-7.245-5.895-13.14-13.14-13.14H19.27V23.76H16.39V0H32.05c8.833 0 16.02 7.187 16.02 16.02 0 8.833-7.187 16.02-16.02 16.02">
    </path>
    <g id="path-1-1" fill="#353435" style="opacity: 0;" transform="translate(7)">
        <path d="M32.761 15.594a2.898 2.898 0 1 1-5.796 0 2.898 2.898 0 0 1 5.796 0"></path>
        <path d="M47.417 15.594a1.246 1.246 0 1 1-2.492 0 1.246 1.246 0 0 1 2.492 0"></path>
    </g>
    <g id="path-1-2" fill="#353435" style="opacity: 0;" transform="translate(7)">
        <path d="M31.02 14.833a1.187 1.187 0 1 0-.001 2.374 1.187 1.187 0 0 0 0-2.374"></path>
        <path d="M47.394 14.833a1.187 1.187 0 1 0 0 2.374 1.187 1.187 0 0 0 0-2.374"></path>
        <path d="M47.37 19.395a3.38 3.38 0 0 1-3.375-3.375 3.38 3.38 0 0 1 3.375-3.375 3.38 3.38 0 0 1 3.375 3.375 3.38 3.38 0 0 1-3.375 3.375m-16.351 0a3.38 3.38 0 0 1-3.375-3.375 3.38 3.38 0 0 1 3.375-3.375 3.379 3.379 0 0 1 3.375 3.375 3.379 3.379 0 0 1-3.375 3.375m16.351-9a5.63 5.63 0 0 0-5.215 3.529 7.592 7.592 0 0 0-2.96-.615 7.605 7.605 0 0 0-2.965.6 5.632 5.632 0 0 0-5.211-3.514 5.631 5.631 0 0 0-5.625 5.625 5.631 5.631 0 0 0 5.625 5.625c3.034 0 5.507-2.416 5.615-5.423a5.483 5.483 0 0 1 5.122.003c.11 3.006 2.582 5.42 5.614 5.42a5.63 5.63 0 0 0 5.625-5.625 5.63 5.63 0 0 0-5.625-5.625">
        </path>
    </g>
    <g id="path-1-3" style="opacity: 0;" transform="translate(7)">
        <mask id="mask-2" fill="#fff">
        <use xlink:href="#path-1"></use>
        </mask>
        <path fill="#353435" d="M44.091 16.652v-1.26L48 13.92v1.472l-1.891.628 1.891.632v1.468z" mask="url(#mask-2)"></path>
        <path fill="#353435" d="M32.85 16.02a1.8 1.8 0 1 1-3.6 0 1.8 1.8 0 0 1 3.6 0"></path>
    </g>
    <g id="path-1-4" style="opacity: 0;" transform="translate(7)">
        <mask id="mask-4" fill="#fff">
        <use xlink:href="#path-3"></use>
        </mask>
        <path fill="#353435" d="M44.091 16.652v-1.26L48 13.919v1.473l-1.891.628 1.891.632v1.468z" mask="url(#mask-4)"></path>
        <path fill="#353435" d="M33.13 16.652v-1.26l-3.909-1.473v1.473l1.891.628-1.891.632v1.468z"></path>
    </g>
    <g id="path-1-5" style="opacity: 0;" transform="translate(7)">
        <path fill="#353435" d="M32.85 16.02a1.8 1.8 0 1 1-3.598 0 1.8 1.8 0 0 1 3.598 0"></path>
        <path fill="#353435" d="M47.97 16.02a1.8 1.8 0 1 1-3.598 0 1.8 1.8 0 0 1 3.599 0"></path>
        <path fill="#353435" d="M27.55 14.927l-.812-1.262 3.938-2.531.811 1.262z"></path>
        <mask id="mask-6" fill="#fff">
        <use xlink:href="#path-5"></use>
        </mask>
        <path fill="#353435" d="M49.461 14.927l-3.937-2.531.811-1.262 3.938 2.531z" mask="url(#mask-6)">
        </path>
    </g>
    <g id="path-1-6" fill="#353435" style="opacity: 0;" transform="translate(7)">
        <path d="M31.359 17.154c0-.084-.051-.158-.154-.22a2.071 2.071 0 0 0-.393-.173c-.16-.054-.339-.113-.536-.176a3.58 3.58 0 0 1-.589-.248 2.921 2.921 0 0 1-.53-.356 1.528 1.528 0 0 1-.39-.545 1.866 1.866 0 0 1-.154-.773 1.7 1.7 0 0 1 .477-1.198c.317-.341.728-.577 1.232-.71v-.773h1.666v.765a3.2 3.2 0 0 1 .83.303c.249.135.419.252.51.351l.144.154-1.168 1.217a.765.765 0 0 0-.113-.125 1.678 1.678 0 0 0-.312-.2.985.985 0 0 0-.476-.127c-.173 0-.306.038-.4.114a.359.359 0 0 0-.14.29c0 .097.067.183.201.258.135.074.305.135.508.184.204.048.425.124.662.226.236.103.457.218.661.347a1.5 1.5 0 0 1 .51.576c.136.255.204.55.204.887 0 .481-.147.89-.442 1.229-.294.338-.688.588-1.18.75v.812h-1.665v-.738a3.396 3.396 0 0 1-1.07-.347c-.33-.173-.564-.329-.701-.466l-.21-.207 1.172-1.168c.041.04.098.094.17.16.071.066.214.153.428.261.214.109.42.163.617.163.198 0 .353-.048.464-.145a.448.448 0 0 0 .167-.352">
        </path>
        <path d="M46.617 17.154c0-.084-.051-.158-.154-.22a2.071 2.071 0 0 0-.393-.173c-.16-.054-.339-.113-.536-.176a3.58 3.58 0 0 1-.589-.248 2.921 2.921 0 0 1-.53-.356 1.528 1.528 0 0 1-.39-.545 1.866 1.866 0 0 1-.155-.773 1.7 1.7 0 0 1 .477-1.198c.318-.341.729-.577 1.233-.71v-.773h1.665v.765a3.2 3.2 0 0 1 .83.303c.25.135.42.252.51.351l.145.154-1.168 1.217a.765.765 0 0 0-.113-.125 1.678 1.678 0 0 0-.312-.2.985.985 0 0 0-.476-.127c-.173 0-.307.038-.4.114a.359.359 0 0 0-.14.29c0 .097.067.183.201.258.135.074.305.135.508.184.204.048.424.124.661.226.237.103.458.218.662.347a1.5 1.5 0 0 1 .51.576c.136.255.204.55.204.887 0 .481-.147.89-.442 1.229-.294.338-.688.588-1.18.75v.812H45.58v-.738a3.396 3.396 0 0 1-1.07-.347c-.33-.173-.564-.329-.701-.466l-.21-.207 1.172-1.168c.041.04.098.094.17.16.07.066.214.153.428.261.214.109.42.163.617.163.198 0 .353-.048.464-.145a.448.448 0 0 0 .167-.352">
        </path>
    </g>
    <g id="path-1-7" fill="#333" style="opacity: 0;" transform="translate(7)">
        <path d="M31.066 18.619h-.016a.205.205 0 0 1-.123-.031c-.16-.103-.32-.201-.483-.299-.398-.24-.808-.49-1.188-.8-.626-.51-1.012-1.096-1.146-1.742-.111-.534-.066-1.027.132-1.425.43-.869 1.43-1.072 2.148-.767.153.065.454.213.66.453.207-.24.507-.388.66-.453.718-.306 1.718-.102 2.15.767.196.398.242.89.131 1.425-.134.646-.52 1.233-1.146 1.743-.38.309-.791.559-1.188.8-.162.097-.324.195-.483.298a.21.21 0 0 1-.108.03">
        </path>
        <path d="M46.066 18.619h-.016a.205.205 0 0 1-.123-.031c-.16-.103-.32-.201-.483-.299-.398-.24-.808-.49-1.188-.8-.626-.51-1.012-1.096-1.146-1.742-.111-.534-.066-1.027.132-1.425.43-.869 1.43-1.072 2.148-.767.153.065.454.213.66.453.207-.24.507-.388.66-.453.718-.306 1.718-.102 2.15.767.196.398.242.89.131 1.425-.134.646-.52 1.233-1.146 1.743-.38.309-.791.559-1.188.8-.162.097-.324.195-.483.298a.21.21 0 0 1-.108.03">
        </path>
    </g>
    <g id="path-1-8" fill="#353435" style="opacity: 0;" transform="translate(7)">
        <path d="M46.264 17.436h-1.067v-1.192h-1.186v1.192h-1.106v-1.192H41.72v-1.422h1.186v1.376h1.067v-1.376h1.225v1.376h1.067v1.238zm-13.556 1.422h-1.186V17.62h-1.186v-1.421h1.226v1.238h1.185v1.422h-.04zm-3.598-2.66h1.186v-1.376H29.11v1.376zm1.186 2.66H29.11v-1.284h-1.107v-1.376h-1.145v-1.376h1.107v1.422h1.106v1.375h1.185v1.24h.04zm-11.66-5.274v1.33h-2.173v1.193h2.292v-1.148h5.691c.04 0 .04.047.119.047v1.192h1.225v1.238h1.068v1.422h1.225v1.192h8.063v-1.238h1.186v-1.238h1.067v-1.376h2.253v1.238h1.067v1.376h8.062V17.39h1.226v-1.238h1.027v-2.614c-11.422.046-21.975.046-33.397.046z">
        </path>
    </g>
    <g id="path-1-9" fill="#353435" style="opacity: 1;" transform="translate(7)">
        <path d="M32.344 16.065a.471.471 0 0 0-.347-.163.463.463 0 0 0-.344.163.542.542 0 0 0-.154.384.55.55 0 0 0 .154.386.46.46 0 0 0 .344.166.468.468 0 0 0 .347-.166.545.545 0 0 0 .156-.386.537.537 0 0 0-.156-.384m-.645-1.468c.146 0 .283.026.41.076.127.051.217.099.269.144l.068.084v-.25H33.8v1.9a.51.51 0 0 0 .13.36c.086.092.193.139.32.139.16 0 .291-.07.396-.21.104-.14.155-.354.155-.64 0-.707-.261-1.308-.786-1.805-.524-.497-1.18-.745-1.968-.745-.727 0-1.358.272-1.895.816-.537.543-.806 1.188-.806 1.934s.269 1.39.806 1.934 1.168.816 1.895.816c.313 0 .615-.05.905-.15.292-.099.508-.199.648-.3l.2-.151.801.952c-.026.026-.064.06-.115.1-.05.041-.159.113-.326.215a4.35 4.35 0 0 1-.526.274 3.86 3.86 0 0 1-.703.215 4.082 4.082 0 0 1-.884.095c-1.12 0-2.075-.393-2.865-1.18-.79-.786-1.184-1.726-1.184-2.82 0-1.094.395-2.034 1.184-2.82.79-.787 1.745-1.18 2.865-1.18 1.159 0 2.133.372 2.92 1.115.789.745 1.182 1.64 1.182 2.685 0 .66-.165 1.176-.495 1.546-.33.37-.766.554-1.307.554-.253 0-.483-.05-.688-.149-.206-.1-.352-.2-.44-.3l-.122-.152a.873.873 0 0 1-.193.213 1.67 1.67 0 0 1-.25.178 1.714 1.714 0 0 1-.808.21c-.488 0-.893-.17-1.216-.51-.322-.34-.483-.788-.483-1.341 0-.535.155-.976.466-1.326.311-.35.673-.526 1.087-.526">
        </path>
        <path d="M47.016 16.065a.471.471 0 0 0-.347-.163.463.463 0 0 0-.344.163.542.542 0 0 0-.155.384.55.55 0 0 0 .155.386.46.46 0 0 0 .344.166.468.468 0 0 0 .347-.166.545.545 0 0 0 .156-.386.537.537 0 0 0-.156-.384m-.645-1.468c.146 0 .283.026.41.076.127.051.217.099.269.144l.068.084v-.25h1.353v1.9a.51.51 0 0 0 .13.36c.086.092.193.139.32.139.16 0 .291-.07.395-.21.105-.14.156-.354.156-.64 0-.707-.261-1.308-.786-1.805-.524-.497-1.18-.745-1.968-.745-.727 0-1.358.272-1.896.816-.536.543-.806 1.188-.806 1.934s.27 1.39.806 1.934c.538.544 1.17.816 1.896.816.313 0 .614-.05.905-.15.292-.099.508-.199.648-.3l.2-.151.801.952c-.026.026-.064.06-.115.1-.05.041-.159.113-.327.215a4.35 4.35 0 0 1-.525.274 3.86 3.86 0 0 1-.703.215 4.082 4.082 0 0 1-.884.095c-1.12 0-2.076-.393-2.865-1.18-.79-.786-1.185-1.726-1.185-2.82 0-1.094.396-2.034 1.185-2.82.79-.787 1.745-1.18 2.865-1.18 1.159 0 2.132.372 2.92 1.115.789.745 1.182 1.64 1.182 2.685 0 .66-.165 1.176-.495 1.546-.33.37-.766.554-1.307.554-.253 0-.484-.05-.689-.149-.205-.1-.351-.2-.439-.3l-.122-.152a.873.873 0 0 1-.193.213 1.67 1.67 0 0 1-.25.178 1.714 1.714 0 0 1-.808.21c-.488 0-.893-.17-1.216-.51-.322-.34-.484-.788-.484-1.341 0-.535.156-.976.467-1.326.311-.35.673-.526 1.087-.526">
        </path>
    </g>
    <g id="path-1-10" fill="#353435" style="opacity: 0;" transform="translate(7)">
        <path d="M32.207 16.02a1.187 1.187 0 1 1-2.375 0 1.187 1.187 0 0 1 2.375 0"></path>
        <path d="M49.194 16.02a1.8 1.8 0 1 1-3.599.001 1.8 1.8 0 0 1 3.599-.001"></path>
        <path d="M31.019 19.395a3.38 3.38 0 0 1-3.375-3.375 3.38 3.38 0 0 1 3.375-3.375 3.38 3.38 0 0 1 3.375 3.375 3.38 3.38 0 0 1-3.375 3.375m5.625-3.375a5.63 5.63 0 0 0-5.625-5.625 5.63 5.63 0 0 0-5.625 5.625 5.634 5.634 0 0 0 4.5 5.512v8.034h2.25v-8.034a5.634 5.634 0 0 0 4.5-5.512">
        </path>
    </g>
    <g id="path-1-11" fill="#353435" style="opacity: 0;" transform="translate(7)">
        <path d="M34.051 13.905c0 1.663-1.337 3-3 3s-3-1.337-3-3c0-.05 0-.112.012-.162h5.975c.013.05.013.113.013.162">
        </path>
        <path d="M49.17 13.906c0 1.662-1.337 3-3 3-1.662 0-3-1.338-3-3 0-.05 0-.113.014-.163h5.974c.012.05.012.112.012.163">
        </path>
    </g>
    <g id="path-1-12" fill="#353435" style="opacity: 0;" transform="translate(7)">
        <path d="M47.118 16.923a.948.948 0 0 0-1.894-.004l-1.706.004v-.004a2.656 2.656 0 0 1 2.65-2.654 2.657 2.657 0 0 1 2.656 2.654l-1.706.004z">
        </path>
        <path d="M31.747 16.923a.95.95 0 0 0-.949-.953.947.947 0 0 0-.944.95l-1.707.003v-.004a2.656 2.656 0 0 1 2.651-2.654 2.657 2.657 0 0 1 2.655 2.654l-1.706.004z">
        </path>
    </g>
    <g id="path-1-0" fill="#191919" transform="translate(36 14)" style="opacity: 0;">
        <path d="M3.88 2.02a1.8 1.8 0 1 1-3.6 0 1.8 1.8 0 0 1 3.6 0"></path>
        <path d="M19 2.02a1.8 1.8 0 1 1-3.6 0 1.8 1.8 0 0 1 3.6 0"></path>
    </g>
    </g>
</svg>